<svg xmlns="http://www.w3.org/2000/svg" xmlns:xlink="http://www.w3.org/1999/xlink" width="1366" zoomAndPan="magnify" viewBox="0 0 1024.5 576" height="768" preserveAspectRatio="xMidYMid meet" version="1.0"><defs><g/><clipPath id="6173a455b6"><rect x="0" width="1020" y="0" height="234"/></clipPath></defs><g transform="matrix(1, 0, 0, 1, 4, 168)"><g clip-path="url(#6173a455b6)"><g fill="#010101" fill-opacity="1"><g transform="translate(0.595103, 104.694201)"><g><path d="M 48.3125 -100.546875 C 49.53125 -101.597656 50.535156 -102.125 51.328125 -102.125 C 53.253906 -102.125 54.21875 -99.367188 54.21875 -93.859375 C 54.21875 -90.359375 53.910156 -88.519531 53.296875 -88.34375 C 53.117188 -88.25 52.898438 -88.203125 52.640625 -88.203125 C 51.671875 -88.203125 51.144531 -89.867188 51.0625 -93.203125 C 51.0625 -96.265625 50.796875 -97.796875 50.265625 -97.796875 C 49.742188 -97.796875 48.828125 -95.519531 47.515625 -90.96875 C 45.503906 -84.3125 44.410156 -78.796875 44.234375 -74.421875 C 44.148438 -72.328125 44 -70.207031 43.78125 -68.0625 C 43.5625 -65.914062 43.316406 -63.53125 43.046875 -60.90625 C 42.785156 -58.28125 42.570312 -56.179688 42.40625 -54.609375 C 41.789062 -49.535156 41.4375 -46.910156 41.34375 -46.734375 C 41.175781 -46.117188 40.257812 -42.179688 38.59375 -34.921875 C 35.707031 -21.703125 31.722656 -11.679688 26.640625 -4.859375 C 25.941406 -3.890625 25.203125 -3.40625 24.421875 -3.40625 C 23.710938 -3.40625 22.921875 -3.84375 22.046875 -4.71875 C 20.648438 -6.125 18.859375 -12.296875 16.671875 -23.234375 C 16.148438 -25.941406 15.515625 -28.757812 14.765625 -31.6875 C 14.023438 -34.625 13.390625 -37.671875 12.859375 -40.828125 C 12.335938 -43.890625 11.640625 -47.082031 10.765625 -50.40625 C 8.484375 -58.019531 7.34375 -62.960938 7.34375 -65.234375 C 7.34375 -66.203125 6.90625 -67.78125 6.03125 -69.96875 C 4.550781 -73.90625 3.8125 -76.75 3.8125 -78.5 C 3.8125 -80.425781 4.597656 -81.390625 6.171875 -81.390625 C 7.742188 -81.390625 8.53125 -80.25 8.53125 -77.96875 C 8.53125 -77.09375 9.1875 -74.378906 10.5 -69.828125 C 12.507812 -62.828125 14.566406 -53.988281 16.671875 -43.3125 C 17.804688 -36.664062 19.992188 -26.648438 23.234375 -13.265625 C 23.492188 -12.035156 23.84375 -11.421875 24.28125 -11.421875 C 24.71875 -11.421875 25.203125 -12.078125 25.734375 -13.390625 C 25.898438 -14.085938 26.726562 -15.707031 28.21875 -18.25 C 29.707031 -20.695312 30.671875 -22.753906 31.109375 -24.421875 C 31.367188 -25.460938 31.867188 -26.816406 32.609375 -28.484375 C 33.359375 -30.148438 33.863281 -31.679688 34.125 -33.078125 C 34.21875 -34.304688 34.484375 -35.421875 34.921875 -36.421875 C 35.359375 -37.429688 35.617188 -38.414062 35.703125 -39.375 C 36.316406 -44.457031 37.0625 -48.832031 37.9375 -52.5 C 38.195312 -53.8125 38.328125 -55.695312 38.328125 -58.15625 C 38.328125 -60.070312 38.585938 -62.171875 39.109375 -64.453125 C 39.640625 -66.640625 39.726562 -67.90625 39.375 -68.25 C 39.03125 -68.601562 39.078125 -69.21875 39.515625 -70.09375 C 39.859375 -70.707031 40.117188 -73.160156 40.296875 -77.453125 C 40.390625 -81.472656 40.914062 -84.445312 41.875 -86.375 C 42.75 -88.300781 43.1875 -89.65625 43.1875 -90.4375 C 43.1875 -90.53125 43.164062 -90.6875 43.125 -90.90625 C 43.082031 -91.125 43.0625 -91.273438 43.0625 -91.359375 C 43.0625 -91.441406 43.035156 -91.59375 42.984375 -91.8125 C 42.941406 -92.039062 42.921875 -92.195312 42.921875 -92.28125 C 42.921875 -93.15625 43.488281 -94.425781 44.625 -96.09375 C 45.9375 -98.1875 47.164062 -99.671875 48.3125 -100.546875 Z M 48.3125 -100.546875 "/></g></g></g><g fill="#010101" fill-opacity="1"><g transform="translate(58.084334, 104.694201)"><g><path d="M 11.6875 -39.109375 C 12.90625 -39.816406 14.085938 -40.171875 15.234375 -40.171875 C 16.453125 -40.171875 17.675781 -39.773438 18.90625 -38.984375 C 20.65625 -37.847656 21.53125 -36.84375 21.53125 -35.96875 C 21.53125 -35.53125 21.222656 -35.046875 20.609375 -34.515625 C 18.859375 -33.203125 17.804688 -33.25 17.453125 -34.65625 C 17.191406 -35.4375 16.578125 -35.828125 15.609375 -35.828125 C 14.648438 -35.828125 13.734375 -35.390625 12.859375 -34.515625 C 11.367188 -32.765625 10.117188 -30.507812 9.109375 -27.75 C 8.109375 -25 7.609375 -22.441406 7.609375 -20.078125 C 7.609375 -18.941406 7.695312 -18.265625 7.875 -18.046875 C 8.050781 -17.828125 8.578125 -17.71875 9.453125 -17.71875 C 10.847656 -17.71875 12.421875 -18.15625 14.171875 -19.03125 C 16.097656 -19.90625 17.847656 -21.523438 19.421875 -23.890625 C 20.910156 -26.078125 21.65625 -28.132812 21.65625 -30.0625 C 21.65625 -32.507812 22.222656 -33.734375 23.359375 -33.734375 C 23.796875 -33.734375 24.148438 -33.644531 24.421875 -33.46875 C 25.117188 -33.125 25.859375 -31.375 26.640625 -28.21875 C 27.515625 -24.71875 28.238281 -22.332031 28.8125 -21.0625 C 29.382812 -19.800781 30.238281 -18.953125 31.375 -18.515625 C 32.945312 -17.898438 33.734375 -17.195312 33.734375 -16.40625 C 33.734375 -15.882812 33.554688 -15.40625 33.203125 -14.96875 C 32.679688 -14.175781 32.023438 -13.78125 31.234375 -13.78125 C 30.628906 -13.78125 29.710938 -14.128906 28.484375 -14.828125 C 26.648438 -16.054688 25.25 -18.378906 24.28125 -21.796875 C 24.101562 -22.398438 23.882812 -22.703125 23.625 -22.703125 C 23.1875 -22.703125 22.003906 -21.609375 20.078125 -19.421875 C 16.753906 -15.578125 13.34375 -13.65625 9.84375 -13.65625 C 8.007812 -13.65625 6.476562 -14.265625 5.25 -15.484375 C 4.195312 -16.535156 3.671875 -17.585938 3.671875 -18.640625 C 3.671875 -19.597656 3.71875 -20.472656 3.8125 -21.265625 C 4.25 -25.378906 5.1875 -29.097656 6.625 -32.421875 C 8.070312 -35.742188 9.757812 -37.972656 11.6875 -39.109375 Z M 11.6875 -39.109375 "/></g></g></g><g fill="#010101" fill-opacity="1"><g transform="translate(104.41753, 104.694201)"><g><path d="M 9.3125 -42.53125 C 10.1875 -42.96875 11.28125 -43.1875 12.59375 -43.1875 C 15.050781 -43.1875 16.28125 -42.351562 16.28125 -40.6875 C 16.28125 -39.46875 15.578125 -38.859375 14.171875 -38.859375 C 13.734375 -38.859375 13.253906 -39.03125 12.734375 -39.375 C 12.472656 -39.644531 12.164062 -39.78125 11.8125 -39.78125 C 10.851562 -39.78125 9.890625 -38.878906 8.921875 -37.078125 C 7.960938 -35.285156 7.484375 -33.472656 7.484375 -31.640625 C 7.484375 -29.273438 8.269531 -27.742188 9.84375 -27.046875 C 10.363281 -26.867188 10.710938 -26.78125 10.890625 -26.78125 C 11.585938 -26.78125 13.035156 -27.523438 15.234375 -29.015625 C 18.640625 -31.203125 20.910156 -32.296875 22.046875 -32.296875 C 22.921875 -32.296875 23.84375 -32.117188 24.8125 -31.765625 C 26.90625 -31.148438 29.113281 -30.140625 31.4375 -28.734375 C 33.757812 -27.335938 35.003906 -26.25 35.171875 -25.46875 C 35.265625 -25.207031 35.3125 -24.8125 35.3125 -24.28125 C 35.3125 -22.09375 33.820312 -20.035156 30.84375 -18.109375 C 28.65625 -16.628906 26.992188 -15.691406 25.859375 -15.296875 C 24.722656 -14.898438 22.578125 -14.523438 19.421875 -14.171875 C 17.328125 -13.910156 15.84375 -13.78125 14.96875 -13.78125 C 14.09375 -13.78125 13.21875 -14 12.34375 -14.4375 C 11.289062 -15.050781 10.804688 -15.835938 10.890625 -16.796875 C 10.984375 -17.503906 11.140625 -17.941406 11.359375 -18.109375 C 11.578125 -18.285156 12.035156 -18.332031 12.734375 -18.25 C 15.179688 -18.070312 16.710938 -17.984375 17.328125 -17.984375 C 19.773438 -17.984375 22.269531 -18.550781 24.8125 -19.6875 C 26.738281 -20.5625 28.398438 -21.484375 29.796875 -22.453125 C 30.410156 -23.054688 30.71875 -23.492188 30.71875 -23.765625 C 30.71875 -24.460938 29.140625 -25.554688 25.984375 -27.046875 L 22.1875 -28.875 L 17.203125 -25.984375 C 13.429688 -23.796875 10.71875 -22.703125 9.0625 -22.703125 C 7.570312 -22.703125 6.390625 -23.535156 5.515625 -25.203125 C 4.285156 -27.828125 3.671875 -30.628906 3.671875 -33.609375 C 3.671875 -34.046875 3.757812 -34.59375 3.9375 -35.25 C 4.113281 -35.90625 4.203125 -36.363281 4.203125 -36.625 C 4.378906 -37.582031 5.015625 -38.695312 6.109375 -39.96875 C 7.203125 -41.238281 8.269531 -42.09375 9.3125 -42.53125 Z M 9.3125 -42.53125 "/></g></g></g><g fill="#010101" fill-opacity="1"><g transform="translate(148.78201, 104.694201)"><g><path d="M 7.609375 -37.9375 C 7.960938 -38.894531 8.421875 -39.523438 8.984375 -39.828125 C 9.554688 -40.140625 10.019531 -39.988281 10.375 -39.375 C 10.539062 -39.03125 10.84375 -37.5 11.28125 -34.78125 C 11.71875 -31.976562 12.285156 -30.097656 12.984375 -29.140625 C 13.691406 -28.179688 14.175781 -26.429688 14.4375 -23.890625 C 14.53125 -23.191406 14.578125 -22.445312 14.578125 -21.65625 C 14.578125 -20.695312 13.960938 -19.601562 12.734375 -18.375 C 11.421875 -17.0625 10.585938 -16.40625 10.234375 -16.40625 C 9.617188 -16.40625 9.3125 -16.929688 9.3125 -17.984375 C 9.3125 -18.773438 9.488281 -19.519531 9.84375 -20.21875 C 10.363281 -21.269531 10.625 -22.316406 10.625 -23.359375 C 10.625 -24.847656 10.1875 -26.335938 9.3125 -27.828125 C 7.832031 -30.367188 7.09375 -32.816406 7.09375 -35.171875 C 7.09375 -36.316406 7.265625 -37.238281 7.609375 -37.9375 Z M -1.4375 -63.40625 C -0.738281 -64.28125 0.21875 -64.71875 1.4375 -64.71875 C 2.40625 -64.71875 2.890625 -64.363281 2.890625 -63.65625 C 2.890625 -63.132812 3.632812 -62.128906 5.125 -60.640625 C 6.164062 -59.679688 6.726562 -59.046875 6.8125 -58.734375 C 6.90625 -58.429688 6.734375 -58.101562 6.296875 -57.75 C 5.597656 -57.050781 4.679688 -56.613281 3.546875 -56.4375 C 2.316406 -56.269531 1.265625 -56.625 0.390625 -57.5 L -1.046875 -58.9375 L -1.046875 -57.09375 C -1.046875 -55.257812 -0.21875 -54.34375 1.4375 -54.34375 C 1.789062 -54.34375 2.582031 -54.429688 3.8125 -54.609375 C 6 -54.953125 7.484375 -55.648438 8.265625 -56.703125 C 8.878906 -57.398438 9.296875 -57.769531 9.515625 -57.8125 C 9.734375 -57.863281 10.019531 -57.625 10.375 -57.09375 C 10.894531 -56.488281 11.15625 -55.660156 11.15625 -54.609375 C 11.15625 -53.910156 11.023438 -53.382812 10.765625 -53.03125 C 10.410156 -52.507812 9.53125 -51.960938 8.125 -51.390625 C 6.726562 -50.816406 5.289062 -50.445312 3.8125 -50.28125 C 3.375 -50.1875 2.800781 -50.140625 2.09375 -50.140625 C -0.4375 -50.140625 -2.488281 -51.015625 -4.0625 -52.765625 C -5.113281 -53.816406 -5.640625 -54.910156 -5.640625 -56.046875 C -5.640625 -57.796875 -4.238281 -60.25 -1.4375 -63.40625 Z M -1.4375 -63.40625 "/></g></g></g><g fill="#010101" fill-opacity="1"><g transform="translate(175.82184, 104.694201)"><g><path d="M 5.78125 -78.109375 C 6.820312 -78.109375 8 -77.316406 9.3125 -75.734375 C 10.625 -74.253906 11.367188 -73.160156 11.546875 -72.453125 C 11.722656 -72.015625 11.722656 -71.726562 11.546875 -71.59375 C 11.367188 -71.46875 10.929688 -71.40625 10.234375 -71.40625 C 9.453125 -71.40625 8.972656 -71.316406 8.796875 -71.140625 C 8.617188 -70.972656 8.617188 -70.625 8.796875 -70.09375 C 9.054688 -69.394531 9.664062 -65.585938 10.625 -58.671875 C 13.34375 -40.210938 14.921875 -28.925781 15.359375 -24.8125 C 15.796875 -21.050781 16.273438 -18.644531 16.796875 -17.59375 C 17.328125 -16.457031 17.546875 -15.535156 17.453125 -14.828125 C 17.367188 -14.128906 17.21875 -13.691406 17 -13.515625 C 16.78125 -13.347656 16.320312 -13.265625 15.625 -13.265625 C 14.570312 -13.265625 13.800781 -13.742188 13.3125 -14.703125 C 12.832031 -15.660156 12.375 -17.410156 11.9375 -19.953125 C 11.769531 -21.441406 11.113281 -25.90625 9.96875 -33.34375 C 8.832031 -40.78125 8.175781 -45.242188 8 -46.734375 C 7.914062 -47.347656 7.785156 -48.332031 7.609375 -49.6875 C 7.429688 -51.039062 7.234375 -52.742188 7.015625 -54.796875 C 6.796875 -56.859375 6.601562 -58.546875 6.4375 -59.859375 C 5.726562 -65.628906 5.070312 -70.09375 4.46875 -73.25 C 4.03125 -75.175781 3.8125 -76.53125 3.8125 -77.3125 C 3.8125 -77.84375 4.46875 -78.109375 5.78125 -78.109375 Z M 5.78125 -78.109375 "/></g></g></g><g fill="#010101" fill-opacity="1"><g transform="translate(205.880375, 104.694201)"><g><path d="M 23.5 -41.75 L 22.84375 -41.75 C 20.5625 -41.75 18.28125 -41.242188 16 -40.234375 C 13.726562 -39.222656 12.421875 -38.148438 12.078125 -37.015625 C 11.898438 -36.140625 11.941406 -35.59375 12.203125 -35.375 C 12.460938 -35.15625 13.164062 -35.003906 14.3125 -34.921875 L 14.828125 -34.921875 C 17.015625 -34.921875 19.3125 -35.53125 21.71875 -36.75 C 24.125 -37.976562 25.328125 -39.160156 25.328125 -40.296875 C 25.328125 -41.265625 24.71875 -41.75 23.5 -41.75 Z M 17.984375 -44.625 C 20.609375 -45.414062 22.398438 -45.8125 23.359375 -45.8125 C 23.796875 -45.8125 24.539062 -45.632812 25.59375 -45.28125 C 28.132812 -44.40625 29.40625 -42.832031 29.40625 -40.5625 C 29.40625 -38.375 27.523438 -36.054688 23.765625 -33.609375 C 20.347656 -31.328125 16.847656 -30.1875 13.265625 -30.1875 C 12.296875 -30.1875 11.460938 -30.316406 10.765625 -30.578125 C 9.628906 -31.015625 8.882812 -31.234375 8.53125 -31.234375 C 8.09375 -31.234375 7.875 -30.710938 7.875 -29.671875 C 7.875 -28.003906 8.269531 -26.601562 9.0625 -25.46875 C 10.375 -23.71875 12.910156 -22.160156 16.671875 -20.796875 C 20.429688 -19.441406 23.972656 -18.765625 27.296875 -18.765625 C 29.222656 -18.765625 30.90625 -19.507812 32.34375 -21 C 33.789062 -22.488281 34.78125 -24.457031 35.3125 -26.90625 C 35.570312 -27.875 36.050781 -28.359375 36.75 -28.359375 C 37.363281 -28.359375 37.976562 -28.003906 38.59375 -27.296875 C 39.289062 -26.597656 39.507812 -25.679688 39.25 -24.546875 C 39.070312 -23.410156 38.039062 -21.832031 36.15625 -19.8125 C 34.28125 -17.800781 32.640625 -16.445312 31.234375 -15.75 C 30.015625 -15.226562 28.484375 -14.96875 26.640625 -14.96875 C 21.660156 -14.96875 16.457031 -16.367188 11.03125 -19.171875 C 6.125 -21.441406 3.671875 -24.546875 3.671875 -28.484375 C 3.671875 -29.273438 3.800781 -30.0625 4.0625 -30.84375 C 5.113281 -34.519531 6.734375 -37.5 8.921875 -39.78125 C 10.765625 -41.875 13.785156 -43.488281 17.984375 -44.625 Z M 17.984375 -44.625 "/></g></g></g><g fill="#010101" fill-opacity="1"><g transform="translate(253.788573, 104.694201)"><g><path d="M 16.796875 -44.109375 C 16.359375 -44.285156 15.789062 -44.375 15.09375 -44.375 C 13.601562 -44.375 11.8125 -43.320312 9.71875 -41.21875 C 8.664062 -40.164062 8.03125 -39.375 7.8125 -38.84375 C 7.59375 -38.320312 7.484375 -37.234375 7.484375 -35.578125 C 7.484375 -33.390625 7.960938 -30.566406 8.921875 -27.109375 C 9.890625 -23.648438 10.8125 -21.441406 11.6875 -20.484375 C 12.46875 -19.609375 13.382812 -19.171875 14.4375 -19.171875 C 17.15625 -19.171875 20.347656 -22.144531 24.015625 -28.09375 C 26.296875 -31.769531 27.4375 -34.4375 27.4375 -36.09375 C 27.4375 -36.882812 27.257812 -37.5 26.90625 -37.9375 C 26.5625 -38.457031 26.234375 -38.738281 25.921875 -38.78125 C 25.617188 -38.832031 25.03125 -38.679688 24.15625 -38.328125 C 22.84375 -37.890625 21.570312 -37.847656 20.34375 -38.203125 C 19.207031 -38.640625 17.675781 -38.941406 15.75 -39.109375 C 14.175781 -39.378906 13.390625 -39.6875 13.390625 -40.03125 C 13.390625 -40.46875 14.132812 -41.039062 15.625 -41.75 C 17.8125 -42.789062 18.203125 -43.578125 16.796875 -44.109375 Z M 11.8125 -47.78125 C 12.25 -47.957031 13.171875 -48.046875 14.578125 -48.046875 C 18.078125 -48.046875 20.347656 -47.648438 21.390625 -46.859375 C 22.179688 -46.335938 22.753906 -45.460938 23.109375 -44.234375 C 23.273438 -43.453125 23.535156 -42.953125 23.890625 -42.734375 C 24.242188 -42.515625 25.03125 -42.316406 26.25 -42.140625 C 27.820312 -41.960938 29.113281 -41.4375 30.125 -40.5625 C 31.132812 -39.6875 31.640625 -38.722656 31.640625 -37.671875 C 31.640625 -35.660156 30.566406 -32.597656 28.421875 -28.484375 C 26.273438 -24.367188 24.019531 -21.046875 21.65625 -18.515625 C 19.820312 -16.410156 17.328125 -15.359375 14.171875 -15.359375 C 14.003906 -15.359375 13.785156 -15.378906 13.515625 -15.421875 C 13.253906 -15.460938 13.082031 -15.484375 13 -15.484375 C 10.8125 -15.835938 9.210938 -16.671875 8.203125 -17.984375 C 7.191406 -19.296875 6.03125 -22.050781 4.71875 -26.25 C 4.28125 -27.300781 3.976562 -29.535156 3.8125 -32.953125 C 3.71875 -33.828125 3.671875 -34.875 3.671875 -36.09375 C 3.671875 -37.757812 3.9375 -39.289062 4.46875 -40.6875 C 5.070312 -42.175781 6.097656 -43.640625 7.546875 -45.078125 C 8.992188 -46.523438 10.414062 -47.425781 11.8125 -47.78125 Z M 11.8125 -47.78125 "/></g></g></g><g fill="#010101" fill-opacity="1"><g transform="translate(297.890591, 104.694201)"><g><path d="M 9.3125 -42.53125 C 10.1875 -42.96875 11.28125 -43.1875 12.59375 -43.1875 C 15.050781 -43.1875 16.28125 -42.351562 16.28125 -40.6875 C 16.28125 -39.46875 15.578125 -38.859375 14.171875 -38.859375 C 13.734375 -38.859375 13.253906 -39.03125 12.734375 -39.375 C 12.472656 -39.644531 12.164062 -39.78125 11.8125 -39.78125 C 10.851562 -39.78125 9.890625 -38.878906 8.921875 -37.078125 C 7.960938 -35.285156 7.484375 -33.472656 7.484375 -31.640625 C 7.484375 -29.273438 8.269531 -27.742188 9.84375 -27.046875 C 10.363281 -26.867188 10.710938 -26.78125 10.890625 -26.78125 C 11.585938 -26.78125 13.035156 -27.523438 15.234375 -29.015625 C 18.640625 -31.203125 20.910156 -32.296875 22.046875 -32.296875 C 22.921875 -32.296875 23.84375 -32.117188 24.8125 -31.765625 C 26.90625 -31.148438 29.113281 -30.140625 31.4375 -28.734375 C 33.757812 -27.335938 35.003906 -26.25 35.171875 -25.46875 C 35.265625 -25.207031 35.3125 -24.8125 35.3125 -24.28125 C 35.3125 -22.09375 33.820312 -20.035156 30.84375 -18.109375 C 28.65625 -16.628906 26.992188 -15.691406 25.859375 -15.296875 C 24.722656 -14.898438 22.578125 -14.523438 19.421875 -14.171875 C 17.328125 -13.910156 15.84375 -13.78125 14.96875 -13.78125 C 14.09375 -13.78125 13.21875 -14 12.34375 -14.4375 C 11.289062 -15.050781 10.804688 -15.835938 10.890625 -16.796875 C 10.984375 -17.503906 11.140625 -17.941406 11.359375 -18.109375 C 11.578125 -18.285156 12.035156 -18.332031 12.734375 -18.25 C 15.179688 -18.070312 16.710938 -17.984375 17.328125 -17.984375 C 19.773438 -17.984375 22.269531 -18.550781 24.8125 -19.6875 C 26.738281 -20.5625 28.398438 -21.484375 29.796875 -22.453125 C 30.410156 -23.054688 30.71875 -23.492188 30.71875 -23.765625 C 30.71875 -24.460938 29.140625 -25.554688 25.984375 -27.046875 L 22.1875 -28.875 L 17.203125 -25.984375 C 13.429688 -23.796875 10.71875 -22.703125 9.0625 -22.703125 C 7.570312 -22.703125 6.390625 -23.535156 5.515625 -25.203125 C 4.285156 -27.828125 3.671875 -30.628906 3.671875 -33.609375 C 3.671875 -34.046875 3.757812 -34.59375 3.9375 -35.25 C 4.113281 -35.90625 4.203125 -36.363281 4.203125 -36.625 C 4.378906 -37.582031 5.015625 -38.695312 6.109375 -39.96875 C 7.203125 -41.238281 8.269531 -42.09375 9.3125 -42.53125 Z M 9.3125 -42.53125 "/></g></g></g><g fill="#010101" fill-opacity="1"><g transform="translate(342.25507, 104.694201)"><g/></g></g><g fill="#010101" fill-opacity="1"><g transform="translate(375.069799, 104.694201)"><g><path d="M 19.6875 -63 C 22.3125 -63.269531 24.894531 -63.40625 27.4375 -63.40625 C 34.875 -63.40625 39.863281 -62.613281 42.40625 -61.03125 C 44.414062 -59.632812 45.421875 -57.40625 45.421875 -54.34375 C 45.421875 -54.164062 45.394531 -53.988281 45.34375 -53.8125 C 45.300781 -53.644531 45.28125 -53.472656 45.28125 -53.296875 C 45.019531 -51.890625 44.078125 -50.441406 42.453125 -48.953125 C 40.835938 -47.472656 39.460938 -46.734375 38.328125 -46.734375 C 37.535156 -46.734375 37.140625 -47.125 37.140625 -47.90625 C 37.140625 -48.78125 37.710938 -49.703125 38.859375 -50.671875 C 39.992188 -51.722656 40.5625 -52.769531 40.5625 -53.8125 C 40.5625 -55.039062 40.035156 -55.960938 38.984375 -56.578125 C 36.179688 -58.503906 32.988281 -59.46875 29.40625 -59.46875 C 27.738281 -59.46875 26.378906 -59.421875 25.328125 -59.328125 C 20.515625 -58.984375 17.148438 -58.59375 15.234375 -58.15625 C 12.773438 -57.445312 10.84375 -56.257812 9.4375 -54.59375 C 8.039062 -52.9375 7.34375 -50.972656 7.34375 -48.703125 C 7.34375 -46.253906 7.867188 -43.847656 8.921875 -41.484375 C 9.972656 -39.117188 12.597656 -34.566406 16.796875 -27.828125 C 18.023438 -25.898438 19.515625 -24.257812 21.265625 -22.90625 C 23.015625 -21.550781 24.546875 -20.875 25.859375 -20.875 C 27.253906 -20.875 29.046875 -21.484375 31.234375 -22.703125 C 33.421875 -23.929688 35.085938 -25.242188 36.234375 -26.640625 C 37.191406 -27.785156 38.238281 -29.34375 39.375 -31.3125 C 40.519531 -33.28125 41.09375 -34.484375 41.09375 -34.921875 C 41.09375 -35.265625 40.65625 -35.347656 39.78125 -35.171875 C 39.6875 -35.171875 39.570312 -35.148438 39.4375 -35.109375 C 39.3125 -35.066406 39.203125 -35.046875 39.109375 -35.046875 C 37.535156 -35.046875 36.75 -35.613281 36.75 -36.75 C 36.75 -37.007812 36.796875 -37.226562 36.890625 -37.40625 C 37.328125 -38.195312 40.957031 -39.46875 47.78125 -41.21875 C 54.601562 -42.96875 60.421875 -44.148438 65.234375 -44.765625 L 65.890625 -44.765625 C 67.117188 -44.765625 68.148438 -44.390625 68.984375 -43.640625 C 69.816406 -42.898438 70.234375 -42.003906 70.234375 -40.953125 C 70.234375 -40.078125 69.925781 -39.332031 69.3125 -38.71875 C 68.78125 -38.101562 68.253906 -37.796875 67.734375 -37.796875 C 67.210938 -37.796875 66.425781 -38.320312 65.375 -39.375 L 63.796875 -40.953125 L 57.359375 -39.375 C 54.992188 -38.757812 52.0625 -38.101562 48.5625 -37.40625 C 46.90625 -37.0625 46.078125 -36.84375 46.078125 -36.75 C 46.078125 -36.664062 46.46875 -35.660156 47.25 -33.734375 C 47.78125 -32.421875 48.347656 -30.601562 48.953125 -28.28125 C 49.566406 -25.96875 50.09375 -24.242188 50.53125 -23.109375 C 51.582031 -20.742188 52.585938 -17.894531 53.546875 -14.5625 C 54.515625 -11.238281 55 -9.140625 55 -8.265625 C 55 -7.210938 54.519531 -6.601562 53.5625 -6.4375 L 53.15625 -6.4375 C 50.625 -6.4375 48.875 -9.585938 47.90625 -15.890625 C 47.382812 -18.953125 46.773438 -21.441406 46.078125 -23.359375 C 45.378906 -25.285156 45.03125 -26.90625 45.03125 -28.21875 C 45.03125 -29.445312 44.8125 -30.410156 44.375 -31.109375 C 44.195312 -31.460938 44.019531 -31.640625 43.84375 -31.640625 C 43.664062 -31.640625 42.832031 -30.367188 41.34375 -27.828125 C 39.59375 -24.847656 37.582031 -22.53125 35.3125 -20.875 C 31.894531 -18.25 28.613281 -16.9375 25.46875 -16.9375 C 22.488281 -16.9375 19.617188 -18.332031 16.859375 -21.125 C 14.109375 -23.925781 10.632812 -29.003906 6.4375 -36.359375 C 4.59375 -39.597656 3.671875 -43.40625 3.671875 -47.78125 C 3.671875 -52.769531 4.765625 -56.359375 6.953125 -58.546875 C 7.742188 -59.328125 9.515625 -60.195312 12.265625 -61.15625 C 15.023438 -62.125 17.5 -62.738281 19.6875 -63 Z M 19.6875 -63 "/></g></g></g><g fill="#010101" fill-opacity="1"><g transform="translate(451.196173, 104.694201)"><g><path d="M 23.5 -41.75 L 22.84375 -41.75 C 20.5625 -41.75 18.28125 -41.242188 16 -40.234375 C 13.726562 -39.222656 12.421875 -38.148438 12.078125 -37.015625 C 11.898438 -36.140625 11.941406 -35.59375 12.203125 -35.375 C 12.460938 -35.15625 13.164062 -35.003906 14.3125 -34.921875 L 14.828125 -34.921875 C 17.015625 -34.921875 19.3125 -35.53125 21.71875 -36.75 C 24.125 -37.976562 25.328125 -39.160156 25.328125 -40.296875 C 25.328125 -41.265625 24.71875 -41.75 23.5 -41.75 Z M 17.984375 -44.625 C 20.609375 -45.414062 22.398438 -45.8125 23.359375 -45.8125 C 23.796875 -45.8125 24.539062 -45.632812 25.59375 -45.28125 C 28.132812 -44.40625 29.40625 -42.832031 29.40625 -40.5625 C 29.40625 -38.375 27.523438 -36.054688 23.765625 -33.609375 C 20.347656 -31.328125 16.847656 -30.1875 13.265625 -30.1875 C 12.296875 -30.1875 11.460938 -30.316406 10.765625 -30.578125 C 9.628906 -31.015625 8.882812 -31.234375 8.53125 -31.234375 C 8.09375 -31.234375 7.875 -30.710938 7.875 -29.671875 C 7.875 -28.003906 8.269531 -26.601562 9.0625 -25.46875 C 10.375 -23.71875 12.910156 -22.160156 16.671875 -20.796875 C 20.429688 -19.441406 23.972656 -18.765625 27.296875 -18.765625 C 29.222656 -18.765625 30.90625 -19.507812 32.34375 -21 C 33.789062 -22.488281 34.78125 -24.457031 35.3125 -26.90625 C 35.570312 -27.875 36.050781 -28.359375 36.75 -28.359375 C 37.363281 -28.359375 37.976562 -28.003906 38.59375 -27.296875 C 39.289062 -26.597656 39.507812 -25.679688 39.25 -24.546875 C 39.070312 -23.410156 38.039062 -21.832031 36.15625 -19.8125 C 34.28125 -17.800781 32.640625 -16.445312 31.234375 -15.75 C 30.015625 -15.226562 28.484375 -14.96875 26.640625 -14.96875 C 21.660156 -14.96875 16.457031 -16.367188 11.03125 -19.171875 C 6.125 -21.441406 3.671875 -24.546875 3.671875 -28.484375 C 3.671875 -29.273438 3.800781 -30.0625 4.0625 -30.84375 C 5.113281 -34.519531 6.734375 -37.5 8.921875 -39.78125 C 10.765625 -41.875 13.785156 -43.488281 17.984375 -44.625 Z M 17.984375 -44.625 "/></g></g></g><g fill="#010101" fill-opacity="1"><g transform="translate(499.104372, 104.694201)"><g><path d="M 16.796875 -44.109375 C 16.359375 -44.285156 15.789062 -44.375 15.09375 -44.375 C 13.601562 -44.375 11.8125 -43.320312 9.71875 -41.21875 C 8.664062 -40.164062 8.03125 -39.375 7.8125 -38.84375 C 7.59375 -38.320312 7.484375 -37.234375 7.484375 -35.578125 C 7.484375 -33.390625 7.960938 -30.566406 8.921875 -27.109375 C 9.890625 -23.648438 10.8125 -21.441406 11.6875 -20.484375 C 12.46875 -19.609375 13.382812 -19.171875 14.4375 -19.171875 C 17.15625 -19.171875 20.347656 -22.144531 24.015625 -28.09375 C 26.296875 -31.769531 27.4375 -34.4375 27.4375 -36.09375 C 27.4375 -36.882812 27.257812 -37.5 26.90625 -37.9375 C 26.5625 -38.457031 26.234375 -38.738281 25.921875 -38.78125 C 25.617188 -38.832031 25.03125 -38.679688 24.15625 -38.328125 C 22.84375 -37.890625 21.570312 -37.847656 20.34375 -38.203125 C 19.207031 -38.640625 17.675781 -38.941406 15.75 -39.109375 C 14.175781 -39.378906 13.390625 -39.6875 13.390625 -40.03125 C 13.390625 -40.46875 14.132812 -41.039062 15.625 -41.75 C 17.8125 -42.789062 18.203125 -43.578125 16.796875 -44.109375 Z M 11.8125 -47.78125 C 12.25 -47.957031 13.171875 -48.046875 14.578125 -48.046875 C 18.078125 -48.046875 20.347656 -47.648438 21.390625 -46.859375 C 22.179688 -46.335938 22.753906 -45.460938 23.109375 -44.234375 C 23.273438 -43.453125 23.535156 -42.953125 23.890625 -42.734375 C 24.242188 -42.515625 25.03125 -42.316406 26.25 -42.140625 C 27.820312 -41.960938 29.113281 -41.4375 30.125 -40.5625 C 31.132812 -39.6875 31.640625 -38.722656 31.640625 -37.671875 C 31.640625 -35.660156 30.566406 -32.597656 28.421875 -28.484375 C 26.273438 -24.367188 24.019531 -21.046875 21.65625 -18.515625 C 19.820312 -16.410156 17.328125 -15.359375 14.171875 -15.359375 C 14.003906 -15.359375 13.785156 -15.378906 13.515625 -15.421875 C 13.253906 -15.460938 13.082031 -15.484375 13 -15.484375 C 10.8125 -15.835938 9.210938 -16.671875 8.203125 -17.984375 C 7.191406 -19.296875 6.03125 -22.050781 4.71875 -26.25 C 4.28125 -27.300781 3.976562 -29.535156 3.8125 -32.953125 C 3.71875 -33.828125 3.671875 -34.875 3.671875 -36.09375 C 3.671875 -37.757812 3.9375 -39.289062 4.46875 -40.6875 C 5.070312 -42.175781 6.097656 -43.640625 7.546875 -45.078125 C 8.992188 -46.523438 10.414062 -47.425781 11.8125 -47.78125 Z M 11.8125 -47.78125 "/></g></g></g><g fill="#010101" fill-opacity="1"><g transform="translate(543.206389, 104.694201)"><g><path d="M 8.65625 -40.4375 C 9.625 -41.21875 10.328125 -41.609375 10.765625 -41.609375 C 11.722656 -41.609375 14.039062 -39.816406 17.71875 -36.234375 C 19.726562 -34.304688 20.734375 -33.125 20.734375 -32.6875 C 20.734375 -32.425781 20.5625 -32.25 20.21875 -32.15625 C 19.34375 -31.8125 18.773438 -31.640625 18.515625 -31.640625 C 17.722656 -31.640625 16.410156 -32.378906 14.578125 -33.859375 C 12.992188 -35.171875 11.8125 -35.828125 11.03125 -35.828125 L 10.890625 -35.828125 C 9.835938 -35.390625 9.3125 -34.34375 9.3125 -32.6875 C 9.3125 -31.894531 9.445312 -31.109375 9.71875 -30.328125 C 10.0625 -29.359375 10.234375 -28.265625 10.234375 -27.046875 C 10.234375 -26.773438 10.144531 -25.414062 9.96875 -22.96875 C 9.53125 -18.414062 8.742188 -15.789062 7.609375 -15.09375 C 6.390625 -14.3125 5.253906 -14.441406 4.203125 -15.484375 C 3.765625 -15.921875 3.546875 -16.882812 3.546875 -18.375 C 3.546875 -19.945312 3.585938 -21.390625 3.671875 -22.703125 C 3.847656 -26.472656 4.4375 -30.109375 5.4375 -33.609375 C 6.445312 -37.109375 7.519531 -39.382812 8.65625 -40.4375 Z M 8.65625 -40.4375 "/></g></g></g><g fill="#010101" fill-opacity="1"><g transform="translate(576.546088, 104.694201)"><g><path d="M 9.71875 -40.953125 C 12.082031 -42.703125 13.394531 -43.578125 13.65625 -43.578125 C 14.09375 -43.578125 14.722656 -43.09375 15.546875 -42.125 C 16.378906 -41.164062 16.796875 -40.46875 16.796875 -40.03125 C 16.796875 -39.070312 15.09375 -37.453125 11.6875 -35.171875 C 8.96875 -33.597656 7.609375 -32.375 7.609375 -31.5 C 7.609375 -30.882812 8.046875 -29.921875 8.921875 -28.609375 C 9.796875 -27.296875 10.628906 -26.378906 11.421875 -25.859375 C 12.117188 -25.335938 12.734375 -25.078125 13.265625 -25.078125 C 14.046875 -25.078125 15.398438 -25.773438 17.328125 -27.171875 C 20.828125 -29.617188 23.210938 -31.191406 24.484375 -31.890625 C 25.753906 -32.597656 27.046875 -32.953125 28.359375 -32.953125 C 31.242188 -32.953125 33.429688 -32.117188 34.921875 -30.453125 C 35.441406 -29.835938 36.3125 -27.78125 37.53125 -24.28125 C 38.757812 -20.78125 39.375 -18.59375 39.375 -17.71875 C 39.375 -17.101562 39.679688 -15.96875 40.296875 -14.3125 C 40.734375 -13.34375 40.953125 -11.675781 40.953125 -9.3125 C 40.953125 -5.988281 40.472656 -3.234375 39.515625 -1.046875 C 38.285156 1.578125 36.398438 3.71875 33.859375 5.375 C 31.328125 7.039062 28.570312 7.875 25.59375 7.875 C 23.5 7.875 20.785156 7 17.453125 5.25 C 14.660156 3.757812 12.78125 2.46875 11.8125 1.375 C 10.851562 0.28125 10.375 -1.140625 10.375 -2.890625 C 10.375 -4.640625 11.289062 -6.738281 13.125 -9.1875 C 14.695312 -11.195312 16.007812 -12.570312 17.0625 -13.3125 C 18.113281 -14.0625 19.863281 -14.875 22.3125 -15.75 C 24.9375 -16.625 26.6875 -17.0625 27.5625 -17.0625 C 28.53125 -17.0625 29.363281 -16.710938 30.0625 -16.015625 C 30.675781 -15.398438 30.984375 -14.832031 30.984375 -14.3125 C 30.984375 -13.34375 29.625 -12.726562 26.90625 -12.46875 C 24.375 -12.289062 22.40625 -11.8125 21 -11.03125 C 19.945312 -10.5 18.4375 -9.117188 16.46875 -6.890625 C 14.5 -4.660156 13.515625 -3.238281 13.515625 -2.625 C 13.515625 -1.488281 14.648438 -0.175781 16.921875 1.3125 C 19.203125 2.800781 21.566406 3.71875 24.015625 4.0625 C 24.453125 4.15625 25.109375 4.203125 25.984375 4.203125 C 27.734375 4.203125 29.703125 3.28125 31.890625 1.4375 C 33.203125 0.476562 34.078125 -0.347656 34.515625 -1.046875 C 34.953125 -1.742188 35.4375 -2.925781 35.96875 -4.59375 L 37.28125 -8.40625 L 34.921875 -17.59375 C 33.773438 -22.144531 32.894531 -25.140625 32.28125 -26.578125 C 31.675781 -28.023438 30.847656 -28.921875 29.796875 -29.265625 L 29.53125 -29.265625 C 28.65625 -29.265625 26.925781 -28.566406 24.34375 -27.171875 C 21.769531 -25.773438 19.519531 -24.332031 17.59375 -22.84375 C 15.75 -21.351562 14.4375 -20.609375 13.65625 -20.609375 C 13.125 -20.609375 12.726562 -20.648438 12.46875 -20.734375 C 11.15625 -21.003906 9.492188 -22.144531 7.484375 -24.15625 C 5.472656 -26.164062 4.289062 -27.914062 3.9375 -29.40625 C 3.675781 -30.28125 3.546875 -31.109375 3.546875 -31.890625 C 3.546875 -34.691406 5.601562 -37.710938 9.71875 -40.953125 Z M 9.71875 -40.953125 "/></g></g></g><g fill="#010101" fill-opacity="1"><g transform="translate(627.604198, 104.694201)"><g><path d="M 7.609375 -37.9375 C 7.960938 -38.894531 8.421875 -39.523438 8.984375 -39.828125 C 9.554688 -40.140625 10.019531 -39.988281 10.375 -39.375 C 10.539062 -39.03125 10.84375 -37.5 11.28125 -34.78125 C 11.71875 -31.976562 12.285156 -30.097656 12.984375 -29.140625 C 13.691406 -28.179688 14.175781 -26.429688 14.4375 -23.890625 C 14.53125 -23.191406 14.578125 -22.445312 14.578125 -21.65625 C 14.578125 -20.695312 13.960938 -19.601562 12.734375 -18.375 C 11.421875 -17.0625 10.585938 -16.40625 10.234375 -16.40625 C 9.617188 -16.40625 9.3125 -16.929688 9.3125 -17.984375 C 9.3125 -18.773438 9.488281 -19.519531 9.84375 -20.21875 C 10.363281 -21.269531 10.625 -22.316406 10.625 -23.359375 C 10.625 -24.847656 10.1875 -26.335938 9.3125 -27.828125 C 7.832031 -30.367188 7.09375 -32.816406 7.09375 -35.171875 C 7.09375 -36.316406 7.265625 -37.238281 7.609375 -37.9375 Z M -1.4375 -63.40625 C -0.738281 -64.28125 0.21875 -64.71875 1.4375 -64.71875 C 2.40625 -64.71875 2.890625 -64.363281 2.890625 -63.65625 C 2.890625 -63.132812 3.632812 -62.128906 5.125 -60.640625 C 6.164062 -59.679688 6.726562 -59.046875 6.8125 -58.734375 C 6.90625 -58.429688 6.734375 -58.101562 6.296875 -57.75 C 5.597656 -57.050781 4.679688 -56.613281 3.546875 -56.4375 C 2.316406 -56.269531 1.265625 -56.625 0.390625 -57.5 L -1.046875 -58.9375 L -1.046875 -57.09375 C -1.046875 -55.257812 -0.21875 -54.34375 1.4375 -54.34375 C 1.789062 -54.34375 2.582031 -54.429688 3.8125 -54.609375 C 6 -54.953125 7.484375 -55.648438 8.265625 -56.703125 C 8.878906 -57.398438 9.296875 -57.769531 9.515625 -57.8125 C 9.734375 -57.863281 10.019531 -57.625 10.375 -57.09375 C 10.894531 -56.488281 11.15625 -55.660156 11.15625 -54.609375 C 11.15625 -53.910156 11.023438 -53.382812 10.765625 -53.03125 C 10.410156 -52.507812 9.53125 -51.960938 8.125 -51.390625 C 6.726562 -50.816406 5.289062 -50.445312 3.8125 -50.28125 C 3.375 -50.1875 2.800781 -50.140625 2.09375 -50.140625 C -0.4375 -50.140625 -2.488281 -51.015625 -4.0625 -52.765625 C -5.113281 -53.816406 -5.640625 -54.910156 -5.640625 -56.046875 C -5.640625 -57.796875 -4.238281 -60.25 -1.4375 -63.40625 Z M -1.4375 -63.40625 "/></g></g></g><g fill="#010101" fill-opacity="1"><g transform="translate(654.644028, 104.694201)"><g><path d="M 16.796875 -44.109375 C 16.359375 -44.285156 15.789062 -44.375 15.09375 -44.375 C 13.601562 -44.375 11.8125 -43.320312 9.71875 -41.21875 C 8.664062 -40.164062 8.03125 -39.375 7.8125 -38.84375 C 7.59375 -38.320312 7.484375 -37.234375 7.484375 -35.578125 C 7.484375 -33.390625 7.960938 -30.566406 8.921875 -27.109375 C 9.890625 -23.648438 10.8125 -21.441406 11.6875 -20.484375 C 12.46875 -19.609375 13.382812 -19.171875 14.4375 -19.171875 C 17.15625 -19.171875 20.347656 -22.144531 24.015625 -28.09375 C 26.296875 -31.769531 27.4375 -34.4375 27.4375 -36.09375 C 27.4375 -36.882812 27.257812 -37.5 26.90625 -37.9375 C 26.5625 -38.457031 26.234375 -38.738281 25.921875 -38.78125 C 25.617188 -38.832031 25.03125 -38.679688 24.15625 -38.328125 C 22.84375 -37.890625 21.570312 -37.847656 20.34375 -38.203125 C 19.207031 -38.640625 17.675781 -38.941406 15.75 -39.109375 C 14.175781 -39.378906 13.390625 -39.6875 13.390625 -40.03125 C 13.390625 -40.46875 14.132812 -41.039062 15.625 -41.75 C 17.8125 -42.789062 18.203125 -43.578125 16.796875 -44.109375 Z M 11.8125 -47.78125 C 12.25 -47.957031 13.171875 -48.046875 14.578125 -48.046875 C 18.078125 -48.046875 20.347656 -47.648438 21.390625 -46.859375 C 22.179688 -46.335938 22.753906 -45.460938 23.109375 -44.234375 C 23.273438 -43.453125 23.535156 -42.953125 23.890625 -42.734375 C 24.242188 -42.515625 25.03125 -42.316406 26.25 -42.140625 C 27.820312 -41.960938 29.113281 -41.4375 30.125 -40.5625 C 31.132812 -39.6875 31.640625 -38.722656 31.640625 -37.671875 C 31.640625 -35.660156 30.566406 -32.597656 28.421875 -28.484375 C 26.273438 -24.367188 24.019531 -21.046875 21.65625 -18.515625 C 19.820312 -16.410156 17.328125 -15.359375 14.171875 -15.359375 C 14.003906 -15.359375 13.785156 -15.378906 13.515625 -15.421875 C 13.253906 -15.460938 13.082031 -15.484375 13 -15.484375 C 10.8125 -15.835938 9.210938 -16.671875 8.203125 -17.984375 C 7.191406 -19.296875 6.03125 -22.050781 4.71875 -26.25 C 4.28125 -27.300781 3.976562 -29.535156 3.8125 -32.953125 C 3.71875 -33.828125 3.671875 -34.875 3.671875 -36.09375 C 3.671875 -37.757812 3.9375 -39.289062 4.46875 -40.6875 C 5.070312 -42.175781 6.097656 -43.640625 7.546875 -45.078125 C 8.992188 -46.523438 10.414062 -47.425781 11.8125 -47.78125 Z M 11.8125 -47.78125 "/></g></g></g><g fill="#010101" fill-opacity="1"><g transform="translate(698.746046, 104.694201)"><g><path d="M 4.59375 -37.40625 C 5.382812 -38.375 6.082031 -38.859375 6.6875 -38.859375 C 7.125 -38.859375 7.5625 -38.503906 8 -37.796875 C 8.351562 -37.097656 8.53125 -36.398438 8.53125 -35.703125 C 8.53125 -34.910156 8.269531 -34.253906 7.75 -33.734375 C 7.132812 -33.117188 7 -32.242188 7.34375 -31.109375 C 7.613281 -30.054688 7.921875 -27.867188 8.265625 -24.546875 C 8.523438 -21.484375 9.007812 -19.601562 9.71875 -18.90625 C 9.976562 -18.644531 10.238281 -18.515625 10.5 -18.515625 C 10.9375 -18.515625 12.078125 -19.300781 13.921875 -20.875 C 17.421875 -24.019531 19.34375 -27.648438 19.6875 -31.765625 C 19.945312 -35.003906 20.648438 -36.625 21.796875 -36.625 C 22.316406 -36.625 22.882812 -36.316406 23.5 -35.703125 C 24.113281 -35.085938 24.285156 -33.816406 24.015625 -31.890625 C 24.015625 -31.722656 23.992188 -31.375 23.953125 -30.84375 C 23.910156 -30.320312 23.890625 -29.929688 23.890625 -29.671875 C 23.890625 -28.003906 24.019531 -26.515625 24.28125 -25.203125 C 24.539062 -22.753906 25.375 -20.742188 26.78125 -19.171875 C 28.09375 -17.765625 28.75 -16.84375 28.75 -16.40625 C 28.75 -16.144531 28.53125 -15.796875 28.09375 -15.359375 C 27.738281 -15.003906 27.253906 -14.828125 26.640625 -14.828125 C 25.679688 -14.828125 24.675781 -15.351562 23.625 -16.40625 C 22.570312 -17.457031 21.875 -18.726562 21.53125 -20.21875 C 21 -21.875 20.648438 -22.75 20.484375 -22.84375 C 20.390625 -22.925781 20.101562 -22.703125 19.625 -22.171875 C 19.144531 -21.648438 18.640625 -21 18.109375 -20.21875 C 17.148438 -18.726562 15.769531 -17.347656 13.96875 -16.078125 C 12.175781 -14.804688 10.757812 -14.171875 9.71875 -14.171875 C 8.84375 -14.171875 7.941406 -14.71875 7.015625 -15.8125 C 6.097656 -16.90625 5.421875 -18.285156 4.984375 -19.953125 C 4.285156 -22.578125 3.894531 -25.726562 3.8125 -29.40625 C 3.632812 -32.550781 3.546875 -34.210938 3.546875 -34.390625 C 3.546875 -35.703125 3.894531 -36.707031 4.59375 -37.40625 Z M 4.59375 -37.40625 "/></g></g></g><g fill="#010101" fill-opacity="1"><g transform="translate(740.091869, 104.694201)"><g/></g></g><g fill="#010101" fill-opacity="1"><g transform="translate(772.906598, 104.694201)"><g><path d="M 53.953125 -64.0625 C 58.585938 -64.757812 62.085938 -65.109375 64.453125 -65.109375 C 65.328125 -65.109375 68.210938 -64.929688 73.109375 -64.578125 C 76.703125 -64.234375 79.085938 -63.84375 80.265625 -63.40625 C 81.453125 -62.96875 82.265625 -62.09375 82.703125 -60.78125 C 83.046875 -59.632812 82.828125 -58.582031 82.046875 -57.625 C 81.429688 -56.75 80.773438 -56.3125 80.078125 -56.3125 C 79.285156 -56.3125 78.890625 -56.925781 78.890625 -58.15625 C 78.890625 -58.757812 78.757812 -59.148438 78.5 -59.328125 C 78.238281 -59.503906 77.492188 -59.679688 76.265625 -59.859375 C 74.429688 -60.117188 71.367188 -60.25 67.078125 -60.25 C 62.703125 -60.25 59.460938 -60.117188 57.359375 -59.859375 L 54.078125 -59.46875 L 54.609375 -49.625 C 54.953125 -42.269531 55.125 -36.1875 55.125 -31.375 C 55.125 -25.863281 55.300781 -23.109375 55.65625 -23.109375 C 55.832031 -23.109375 57.144531 -23.367188 59.59375 -23.890625 C 63.96875 -24.847656 68.34375 -25.632812 72.71875 -26.25 C 78.9375 -27.125 82.65625 -27.78125 83.875 -28.21875 C 84.925781 -28.570312 86.765625 -28.75 89.390625 -28.75 C 92.273438 -28.75 94.507812 -28.96875 96.09375 -29.40625 C 96.613281 -29.582031 97.269531 -29.671875 98.0625 -29.671875 C 99.019531 -29.671875 99.5 -29.40625 99.5 -28.875 C 99.5 -28.53125 99.238281 -28.09375 98.71875 -27.5625 C 97.925781 -26.78125 95.515625 -26.125 91.484375 -25.59375 C 89.035156 -25.332031 85.953125 -24.742188 82.234375 -23.828125 C 78.515625 -22.910156 75.5625 -22.316406 73.375 -22.046875 C 71.007812 -21.785156 67.289062 -21.046875 62.21875 -19.828125 C 58.894531 -19.117188 56.859375 -18.613281 56.109375 -18.3125 C 55.367188 -18.007812 54.867188 -17.503906 54.609375 -16.796875 C 54.347656 -15.835938 53.820312 -15.359375 53.03125 -15.359375 C 52.507812 -15.359375 51.851562 -15.617188 51.0625 -16.140625 C 50.269531 -16.671875 49.351562 -16.804688 48.3125 -16.546875 C 47 -16.273438 44.066406 -15.242188 39.515625 -13.453125 C 34.960938 -11.660156 31.375 -10.109375 28.75 -8.796875 C 25.25 -7.128906 23.101562 -6.296875 22.3125 -6.296875 C 21.613281 -6.296875 20.78125 -6.664062 19.8125 -7.40625 C 18.851562 -8.15625 18.375 -8.789062 18.375 -9.3125 C 18.375 -9.84375 18.851562 -10.5 19.8125 -11.28125 C 20.78125 -12.070312 21.570312 -12.46875 22.1875 -12.46875 C 23.144531 -12.46875 24.148438 -12.773438 25.203125 -13.390625 C 27.390625 -14.347656 32.25 -16.140625 39.78125 -18.765625 C 43.101562 -20.078125 45.859375 -20.910156 48.046875 -21.265625 L 50.9375 -21.65625 L 50.9375 -28.875 C 50.9375 -33.78125 50.628906 -38.769531 50.015625 -43.84375 C 49.398438 -48.914062 48.742188 -51.9375 48.046875 -52.90625 C 47.253906 -53.945312 46.988281 -55.039062 47.25 -56.1875 C 47.425781 -56.96875 47.445312 -57.445312 47.3125 -57.625 C 47.1875 -57.800781 46.726562 -57.890625 45.9375 -57.890625 C 43.3125 -57.890625 37.6875 -56.816406 29.0625 -54.671875 C 20.445312 -52.523438 13.601562 -50.535156 8.53125 -48.703125 C 6.863281 -48.085938 5.8125 -47.78125 5.375 -47.78125 C 4.769531 -47.78125 4.332031 -48.175781 4.0625 -48.96875 C 3.894531 -49.664062 3.8125 -50.1875 3.8125 -50.53125 C 3.8125 -51.9375 4.769531 -52.898438 6.6875 -53.421875 C 15.269531 -56.046875 22.054688 -57.925781 27.046875 -59.0625 C 34.210938 -60.726562 43.179688 -62.394531 53.953125 -64.0625 Z M 53.953125 -64.0625 "/></g></g></g><g fill="#010101" fill-opacity="1"><g transform="translate(873.970075, 104.694201)"><g/></g></g><g fill="#010101" fill-opacity="1"><g transform="translate(906.784711, 104.694201)"><g><path d="M 16.796875 -56.1875 C 16.015625 -56.882812 14.921875 -57.234375 13.515625 -57.234375 C 12.203125 -57.234375 11.285156 -56.925781 10.765625 -56.3125 C 8.835938 -54.207031 7.65625 -51.015625 7.21875 -46.734375 C 7.21875 -46.472656 7.195312 -46.164062 7.15625 -45.8125 C 7.113281 -45.457031 7.09375 -45.195312 7.09375 -45.03125 C 7.09375 -43.539062 7.394531 -42.507812 8 -41.9375 C 8.613281 -41.375 9.625 -41.09375 11.03125 -41.09375 C 11.988281 -41.09375 12.882812 -41.351562 13.71875 -41.875 C 14.550781 -42.394531 16.148438 -43.707031 18.515625 -45.8125 C 22.097656 -48.957031 23.890625 -50.835938 23.890625 -51.453125 C 23.890625 -51.984375 23.273438 -52.726562 22.046875 -53.6875 C 20.828125 -54.644531 19.910156 -55.125 19.296875 -55.125 C 18.503906 -55.125 17.671875 -55.476562 16.796875 -56.1875 Z M 10.109375 -61.171875 C 11.160156 -61.609375 12.210938 -61.828125 13.265625 -61.828125 C 15.890625 -61.828125 18.734375 -60.820312 21.796875 -58.8125 C 23.628906 -57.582031 24.984375 -56.789062 25.859375 -56.4375 C 27.785156 -55.394531 30.410156 -48.085938 33.734375 -34.515625 C 36.003906 -25.421875 37.140625 -19.820312 37.140625 -17.71875 C 37.140625 -16.757812 36.960938 -16.101562 36.609375 -15.75 C 36.265625 -15.40625 35.65625 -15.234375 34.78125 -15.234375 C 34.164062 -15.234375 33.769531 -15.40625 33.59375 -15.75 C 33.425781 -16.101562 33.253906 -16.976562 33.078125 -18.375 C 32.992188 -19.6875 32.753906 -20.734375 32.359375 -21.515625 C 31.960938 -22.304688 31.765625 -23.359375 31.765625 -24.671875 C 31.765625 -25.898438 31 -29.726562 29.46875 -36.15625 C 27.9375 -42.59375 26.953125 -46.03125 26.515625 -46.46875 L 26.390625 -46.46875 C 26.210938 -46.46875 25.070312 -45.59375 22.96875 -43.84375 C 21.039062 -42.175781 18.804688 -40.554688 16.265625 -38.984375 C 13.734375 -37.410156 11.851562 -36.492188 10.625 -36.234375 C 10.1875 -36.140625 9.617188 -36.09375 8.921875 -36.09375 C 5.421875 -36.09375 3.671875 -39.113281 3.671875 -45.15625 C 3.671875 -48.300781 3.976562 -50.796875 4.59375 -52.640625 C 5.207031 -54.296875 6.082031 -56.039062 7.21875 -57.875 C 8.351562 -59.71875 9.316406 -60.816406 10.109375 -61.171875 Z M 10.109375 -61.171875 "/></g></g></g><g fill="#010101" fill-opacity="1"><g transform="translate(956.530466, 104.694201)"><g><path d="M 3.28125 -47 C 3.71875 -48.570312 4.632812 -48.703125 6.03125 -47.390625 C 6.46875 -46.953125 6.753906 -45.878906 6.890625 -44.171875 C 7.023438 -42.460938 7.09375 -38.109375 7.09375 -31.109375 C 7.09375 -21.222656 6.875 -16.28125 6.4375 -16.28125 C 6.34375 -16.28125 6.253906 -16.320312 6.171875 -16.40625 C 5.035156 -17.375 4.269531 -18.882812 3.875 -20.9375 C 3.476562 -22.988281 3.238281 -27.125 3.15625 -33.34375 L 3.15625 -38.984375 C 3.15625 -43.972656 3.195312 -46.644531 3.28125 -47 Z M 3.28125 -47 "/></g></g></g><g fill="#010101" fill-opacity="1"><g transform="translate(975.695427, 104.694201)"><g><path d="M 11.6875 -39.109375 C 12.90625 -39.816406 14.085938 -40.171875 15.234375 -40.171875 C 16.453125 -40.171875 17.675781 -39.773438 18.90625 -38.984375 C 20.65625 -37.847656 21.53125 -36.84375 21.53125 -35.96875 C 21.53125 -35.53125 21.222656 -35.046875 20.609375 -34.515625 C 18.859375 -33.203125 17.804688 -33.25 17.453125 -34.65625 C 17.191406 -35.4375 16.578125 -35.828125 15.609375 -35.828125 C 14.648438 -35.828125 13.734375 -35.390625 12.859375 -34.515625 C 11.367188 -32.765625 10.117188 -30.507812 9.109375 -27.75 C 8.109375 -25 7.609375 -22.441406 7.609375 -20.078125 C 7.609375 -18.941406 7.695312 -18.265625 7.875 -18.046875 C 8.050781 -17.828125 8.578125 -17.71875 9.453125 -17.71875 C 10.847656 -17.71875 12.421875 -18.15625 14.171875 -19.03125 C 16.097656 -19.90625 17.847656 -21.523438 19.421875 -23.890625 C 20.910156 -26.078125 21.65625 -28.132812 21.65625 -30.0625 C 21.65625 -32.507812 22.222656 -33.734375 23.359375 -33.734375 C 23.796875 -33.734375 24.148438 -33.644531 24.421875 -33.46875 C 25.117188 -33.125 25.859375 -31.375 26.640625 -28.21875 C 27.515625 -24.71875 28.238281 -22.332031 28.8125 -21.0625 C 29.382812 -19.800781 30.238281 -18.953125 31.375 -18.515625 C 32.945312 -17.898438 33.734375 -17.195312 33.734375 -16.40625 C 33.734375 -15.882812 33.554688 -15.40625 33.203125 -14.96875 C 32.679688 -14.175781 32.023438 -13.78125 31.234375 -13.78125 C 30.628906 -13.78125 29.710938 -14.128906 28.484375 -14.828125 C 26.648438 -16.054688 25.25 -18.378906 24.28125 -21.796875 C 24.101562 -22.398438 23.882812 -22.703125 23.625 -22.703125 C 23.1875 -22.703125 22.003906 -21.609375 20.078125 -19.421875 C 16.753906 -15.578125 13.34375 -13.65625 9.84375 -13.65625 C 8.007812 -13.65625 6.476562 -14.265625 5.25 -15.484375 C 4.195312 -16.535156 3.671875 -17.585938 3.671875 -18.640625 C 3.671875 -19.597656 3.71875 -20.472656 3.8125 -21.265625 C 4.25 -25.378906 5.1875 -29.097656 6.625 -32.421875 C 8.070312 -35.742188 9.757812 -37.972656 11.6875 -39.109375 Z M 11.6875 -39.109375 "/></g></g></g><g fill="#010101" fill-opacity="1"><g transform="translate(274.903942, 205.712557)"><g><path d="M 19.6875 -63 C 22.3125 -63.269531 24.894531 -63.40625 27.4375 -63.40625 C 34.875 -63.40625 39.863281 -62.613281 42.40625 -61.03125 C 44.414062 -59.632812 45.421875 -57.40625 45.421875 -54.34375 C 45.421875 -54.164062 45.394531 -53.988281 45.34375 -53.8125 C 45.300781 -53.644531 45.28125 -53.472656 45.28125 -53.296875 C 45.019531 -51.890625 44.078125 -50.441406 42.453125 -48.953125 C 40.835938 -47.472656 39.460938 -46.734375 38.328125 -46.734375 C 37.535156 -46.734375 37.140625 -47.125 37.140625 -47.90625 C 37.140625 -48.78125 37.710938 -49.703125 38.859375 -50.671875 C 39.992188 -51.722656 40.5625 -52.769531 40.5625 -53.8125 C 40.5625 -55.039062 40.035156 -55.960938 38.984375 -56.578125 C 36.179688 -58.503906 32.988281 -59.46875 29.40625 -59.46875 C 27.738281 -59.46875 26.378906 -59.421875 25.328125 -59.328125 C 20.515625 -58.984375 17.148438 -58.59375 15.234375 -58.15625 C 12.773438 -57.445312 10.84375 -56.257812 9.4375 -54.59375 C 8.039062 -52.9375 7.34375 -50.972656 7.34375 -48.703125 C 7.34375 -46.253906 7.867188 -43.847656 8.921875 -41.484375 C 9.972656 -39.117188 12.597656 -34.566406 16.796875 -27.828125 C 18.023438 -25.898438 19.515625 -24.257812 21.265625 -22.90625 C 23.015625 -21.550781 24.546875 -20.875 25.859375 -20.875 C 27.253906 -20.875 29.046875 -21.484375 31.234375 -22.703125 C 33.421875 -23.929688 35.085938 -25.242188 36.234375 -26.640625 C 37.191406 -27.785156 38.238281 -29.34375 39.375 -31.3125 C 40.519531 -33.28125 41.09375 -34.484375 41.09375 -34.921875 C 41.09375 -35.265625 40.65625 -35.347656 39.78125 -35.171875 C 39.6875 -35.171875 39.570312 -35.148438 39.4375 -35.109375 C 39.3125 -35.066406 39.203125 -35.046875 39.109375 -35.046875 C 37.535156 -35.046875 36.75 -35.613281 36.75 -36.75 C 36.75 -37.007812 36.796875 -37.226562 36.890625 -37.40625 C 37.328125 -38.195312 40.957031 -39.46875 47.78125 -41.21875 C 54.601562 -42.96875 60.421875 -44.148438 65.234375 -44.765625 L 65.890625 -44.765625 C 67.117188 -44.765625 68.148438 -44.390625 68.984375 -43.640625 C 69.816406 -42.898438 70.234375 -42.003906 70.234375 -40.953125 C 70.234375 -40.078125 69.925781 -39.332031 69.3125 -38.71875 C 68.78125 -38.101562 68.253906 -37.796875 67.734375 -37.796875 C 67.210938 -37.796875 66.425781 -38.320312 65.375 -39.375 L 63.796875 -40.953125 L 57.359375 -39.375 C 54.992188 -38.757812 52.0625 -38.101562 48.5625 -37.40625 C 46.90625 -37.0625 46.078125 -36.84375 46.078125 -36.75 C 46.078125 -36.664062 46.46875 -35.660156 47.25 -33.734375 C 47.78125 -32.421875 48.347656 -30.601562 48.953125 -28.28125 C 49.566406 -25.96875 50.09375 -24.242188 50.53125 -23.109375 C 51.582031 -20.742188 52.585938 -17.894531 53.546875 -14.5625 C 54.515625 -11.238281 55 -9.140625 55 -8.265625 C 55 -7.210938 54.519531 -6.601562 53.5625 -6.4375 L 53.15625 -6.4375 C 50.625 -6.4375 48.875 -9.585938 47.90625 -15.890625 C 47.382812 -18.953125 46.773438 -21.441406 46.078125 -23.359375 C 45.378906 -25.285156 45.03125 -26.90625 45.03125 -28.21875 C 45.03125 -29.445312 44.8125 -30.410156 44.375 -31.109375 C 44.195312 -31.460938 44.019531 -31.640625 43.84375 -31.640625 C 43.664062 -31.640625 42.832031 -30.367188 41.34375 -27.828125 C 39.59375 -24.847656 37.582031 -22.53125 35.3125 -20.875 C 31.894531 -18.25 28.613281 -16.9375 25.46875 -16.9375 C 22.488281 -16.9375 19.617188 -18.332031 16.859375 -21.125 C 14.109375 -23.925781 10.632812 -29.003906 6.4375 -36.359375 C 4.59375 -39.597656 3.671875 -43.40625 3.671875 -47.78125 C 3.671875 -52.769531 4.765625 -56.359375 6.953125 -58.546875 C 7.742188 -59.328125 9.515625 -60.195312 12.265625 -61.15625 C 15.023438 -62.125 17.5 -62.738281 19.6875 -63 Z M 19.6875 -63 "/></g></g></g><g fill="#010101" fill-opacity="1"><g transform="translate(351.030316, 205.712557)"><g><path d="M 23.5 -41.75 L 22.84375 -41.75 C 20.5625 -41.75 18.28125 -41.242188 16 -40.234375 C 13.726562 -39.222656 12.421875 -38.148438 12.078125 -37.015625 C 11.898438 -36.140625 11.941406 -35.59375 12.203125 -35.375 C 12.460938 -35.15625 13.164062 -35.003906 14.3125 -34.921875 L 14.828125 -34.921875 C 17.015625 -34.921875 19.3125 -35.53125 21.71875 -36.75 C 24.125 -37.976562 25.328125 -39.160156 25.328125 -40.296875 C 25.328125 -41.265625 24.71875 -41.75 23.5 -41.75 Z M 17.984375 -44.625 C 20.609375 -45.414062 22.398438 -45.8125 23.359375 -45.8125 C 23.796875 -45.8125 24.539062 -45.632812 25.59375 -45.28125 C 28.132812 -44.40625 29.40625 -42.832031 29.40625 -40.5625 C 29.40625 -38.375 27.523438 -36.054688 23.765625 -33.609375 C 20.347656 -31.328125 16.847656 -30.1875 13.265625 -30.1875 C 12.296875 -30.1875 11.460938 -30.316406 10.765625 -30.578125 C 9.628906 -31.015625 8.882812 -31.234375 8.53125 -31.234375 C 8.09375 -31.234375 7.875 -30.710938 7.875 -29.671875 C 7.875 -28.003906 8.269531 -26.601562 9.0625 -25.46875 C 10.375 -23.71875 12.910156 -22.160156 16.671875 -20.796875 C 20.429688 -19.441406 23.972656 -18.765625 27.296875 -18.765625 C 29.222656 -18.765625 30.90625 -19.507812 32.34375 -21 C 33.789062 -22.488281 34.78125 -24.457031 35.3125 -26.90625 C 35.570312 -27.875 36.050781 -28.359375 36.75 -28.359375 C 37.363281 -28.359375 37.976562 -28.003906 38.59375 -27.296875 C 39.289062 -26.597656 39.507812 -25.679688 39.25 -24.546875 C 39.070312 -23.410156 38.039062 -21.832031 36.15625 -19.8125 C 34.28125 -17.800781 32.640625 -16.445312 31.234375 -15.75 C 30.015625 -15.226562 28.484375 -14.96875 26.640625 -14.96875 C 21.660156 -14.96875 16.457031 -16.367188 11.03125 -19.171875 C 6.125 -21.441406 3.671875 -24.546875 3.671875 -28.484375 C 3.671875 -29.273438 3.800781 -30.0625 4.0625 -30.84375 C 5.113281 -34.519531 6.734375 -37.5 8.921875 -39.78125 C 10.765625 -41.875 13.785156 -43.488281 17.984375 -44.625 Z M 17.984375 -44.625 "/></g></g></g><g fill="#010101" fill-opacity="1"><g transform="translate(398.938514, 205.712557)"><g><path d="M 8.65625 -40.4375 C 9.625 -41.21875 10.328125 -41.609375 10.765625 -41.609375 C 11.722656 -41.609375 14.039062 -39.816406 17.71875 -36.234375 C 19.726562 -34.304688 20.734375 -33.125 20.734375 -32.6875 C 20.734375 -32.425781 20.5625 -32.25 20.21875 -32.15625 C 19.34375 -31.8125 18.773438 -31.640625 18.515625 -31.640625 C 17.722656 -31.640625 16.410156 -32.378906 14.578125 -33.859375 C 12.992188 -35.171875 11.8125 -35.828125 11.03125 -35.828125 L 10.890625 -35.828125 C 9.835938 -35.390625 9.3125 -34.34375 9.3125 -32.6875 C 9.3125 -31.894531 9.445312 -31.109375 9.71875 -30.328125 C 10.0625 -29.359375 10.234375 -28.265625 10.234375 -27.046875 C 10.234375 -26.773438 10.144531 -25.414062 9.96875 -22.96875 C 9.53125 -18.414062 8.742188 -15.789062 7.609375 -15.09375 C 6.390625 -14.3125 5.253906 -14.441406 4.203125 -15.484375 C 3.765625 -15.921875 3.546875 -16.882812 3.546875 -18.375 C 3.546875 -19.945312 3.585938 -21.390625 3.671875 -22.703125 C 3.847656 -26.472656 4.4375 -30.109375 5.4375 -33.609375 C 6.445312 -37.109375 7.519531 -39.382812 8.65625 -40.4375 Z M 8.65625 -40.4375 "/></g></g></g><g fill="#010101" fill-opacity="1"><g transform="translate(432.278213, 205.712557)"><g><path d="M 35.578125 -41.75 C 36.453125 -42.882812 37.5 -43.453125 38.71875 -43.453125 C 39.945312 -43.453125 41.085938 -42.835938 42.140625 -41.609375 C 43.890625 -39.503906 44.765625 -35.828125 44.765625 -30.578125 C 44.765625 -27.429688 45.023438 -24.367188 45.546875 -21.390625 C 45.984375 -19.203125 46.203125 -17.847656 46.203125 -17.328125 C 46.203125 -16.367188 45.765625 -15.890625 44.890625 -15.890625 L 44.375 -15.890625 C 43.757812 -15.972656 43.316406 -16.1875 43.046875 -16.53125 C 42.785156 -16.882812 42.484375 -17.675781 42.140625 -18.90625 C 41.523438 -21.53125 41.128906 -24.722656 40.953125 -28.484375 C 40.691406 -34.960938 39.90625 -38.203125 38.59375 -38.203125 C 38.238281 -38.203125 37.773438 -37.785156 37.203125 -36.953125 C 36.640625 -36.117188 36.359375 -35.394531 36.359375 -34.78125 C 36.359375 -33.644531 34.695312 -29.796875 31.375 -23.234375 C 30.0625 -20.609375 28.96875 -19.164062 28.09375 -18.90625 C 27.394531 -18.726562 26.957031 -18.640625 26.78125 -18.640625 C 25.8125 -18.640625 25.195312 -20.171875 24.9375 -23.234375 C 24.675781 -26.035156 24.019531 -28.570312 22.96875 -30.84375 C 21.476562 -33.726562 20.296875 -35.171875 19.421875 -35.171875 C 19.160156 -35.171875 18.859375 -35.085938 18.515625 -34.921875 C 17.984375 -34.648438 17.082031 -33.3125 15.8125 -30.90625 C 14.550781 -28.5 13.921875 -26.945312 13.921875 -26.25 C 13.921875 -25.90625 13.347656 -24.679688 12.203125 -22.578125 C 11.066406 -20.472656 10.5 -18.984375 10.5 -18.109375 C 10.5 -16.359375 9.972656 -15.484375 8.921875 -15.484375 C 8.578125 -15.484375 8.316406 -15.53125 8.140625 -15.625 C 7.609375 -15.707031 7.234375 -15.8125 7.015625 -15.9375 C 6.796875 -16.070312 6.597656 -16.507812 6.421875 -17.25 C 6.253906 -18 6.144531 -18.898438 6.09375 -19.953125 C 6.050781 -21.003906 5.988281 -22.710938 5.90625 -25.078125 C 5.644531 -29.710938 5.164062 -32.859375 4.46875 -34.515625 C 3.9375 -35.660156 3.671875 -36.625 3.671875 -37.40625 C 3.671875 -38.71875 4.375 -39.375 5.78125 -39.375 C 6.914062 -39.375 7.742188 -38.867188 8.265625 -37.859375 C 8.796875 -36.859375 9.144531 -34.957031 9.3125 -32.15625 C 9.488281 -28.75 9.707031 -27.046875 9.96875 -27.046875 C 10.320312 -27.046875 10.976562 -28.441406 11.9375 -31.234375 C 12.820312 -33.691406 13.941406 -35.75 15.296875 -37.40625 C 16.648438 -39.070312 17.851562 -39.90625 18.90625 -39.90625 C 20.738281 -39.90625 22.550781 -38.8125 24.34375 -36.625 C 26.144531 -34.4375 27.265625 -31.984375 27.703125 -29.265625 C 27.867188 -28.660156 28.039062 -28.140625 28.21875 -27.703125 C 28.394531 -27.265625 28.570312 -27.085938 28.75 -27.171875 C 29.800781 -27.429688 31.242188 -30.453125 33.078125 -36.234375 C 33.953125 -38.941406 34.785156 -40.78125 35.578125 -41.75 Z M 35.578125 -41.75 "/></g></g></g><g fill="#010101" fill-opacity="1"><g transform="translate(490.948685, 205.712557)"><g><path d="M 11.6875 -39.109375 C 12.90625 -39.816406 14.085938 -40.171875 15.234375 -40.171875 C 16.453125 -40.171875 17.675781 -39.773438 18.90625 -38.984375 C 20.65625 -37.847656 21.53125 -36.84375 21.53125 -35.96875 C 21.53125 -35.53125 21.222656 -35.046875 20.609375 -34.515625 C 18.859375 -33.203125 17.804688 -33.25 17.453125 -34.65625 C 17.191406 -35.4375 16.578125 -35.828125 15.609375 -35.828125 C 14.648438 -35.828125 13.734375 -35.390625 12.859375 -34.515625 C 11.367188 -32.765625 10.117188 -30.507812 9.109375 -27.75 C 8.109375 -25 7.609375 -22.441406 7.609375 -20.078125 C 7.609375 -18.941406 7.695312 -18.265625 7.875 -18.046875 C 8.050781 -17.828125 8.578125 -17.71875 9.453125 -17.71875 C 10.847656 -17.71875 12.421875 -18.15625 14.171875 -19.03125 C 16.097656 -19.90625 17.847656 -21.523438 19.421875 -23.890625 C 20.910156 -26.078125 21.65625 -28.132812 21.65625 -30.0625 C 21.65625 -32.507812 22.222656 -33.734375 23.359375 -33.734375 C 23.796875 -33.734375 24.148438 -33.644531 24.421875 -33.46875 C 25.117188 -33.125 25.859375 -31.375 26.640625 -28.21875 C 27.515625 -24.71875 28.238281 -22.332031 28.8125 -21.0625 C 29.382812 -19.800781 30.238281 -18.953125 31.375 -18.515625 C 32.945312 -17.898438 33.734375 -17.195312 33.734375 -16.40625 C 33.734375 -15.882812 33.554688 -15.40625 33.203125 -14.96875 C 32.679688 -14.175781 32.023438 -13.78125 31.234375 -13.78125 C 30.628906 -13.78125 29.710938 -14.128906 28.484375 -14.828125 C 26.648438 -16.054688 25.25 -18.378906 24.28125 -21.796875 C 24.101562 -22.398438 23.882812 -22.703125 23.625 -22.703125 C 23.1875 -22.703125 22.003906 -21.609375 20.078125 -19.421875 C 16.753906 -15.578125 13.34375 -13.65625 9.84375 -13.65625 C 8.007812 -13.65625 6.476562 -14.265625 5.25 -15.484375 C 4.195312 -16.535156 3.671875 -17.585938 3.671875 -18.640625 C 3.671875 -19.597656 3.71875 -20.472656 3.8125 -21.265625 C 4.25 -25.378906 5.1875 -29.097656 6.625 -32.421875 C 8.070312 -35.742188 9.757812 -37.972656 11.6875 -39.109375 Z M 11.6875 -39.109375 "/></g></g></g><g fill="#010101" fill-opacity="1"><g transform="translate(537.281882, 205.712557)"><g><path d="M 9.3125 -42.53125 C 10.1875 -42.96875 11.28125 -43.1875 12.59375 -43.1875 C 15.050781 -43.1875 16.28125 -42.351562 16.28125 -40.6875 C 16.28125 -39.46875 15.578125 -38.859375 14.171875 -38.859375 C 13.734375 -38.859375 13.253906 -39.03125 12.734375 -39.375 C 12.472656 -39.644531 12.164062 -39.78125 11.8125 -39.78125 C 10.851562 -39.78125 9.890625 -38.878906 8.921875 -37.078125 C 7.960938 -35.285156 7.484375 -33.472656 7.484375 -31.640625 C 7.484375 -29.273438 8.269531 -27.742188 9.84375 -27.046875 C 10.363281 -26.867188 10.710938 -26.78125 10.890625 -26.78125 C 11.585938 -26.78125 13.035156 -27.523438 15.234375 -29.015625 C 18.640625 -31.203125 20.910156 -32.296875 22.046875 -32.296875 C 22.921875 -32.296875 23.84375 -32.117188 24.8125 -31.765625 C 26.90625 -31.148438 29.113281 -30.140625 31.4375 -28.734375 C 33.757812 -27.335938 35.003906 -26.25 35.171875 -25.46875 C 35.265625 -25.207031 35.3125 -24.8125 35.3125 -24.28125 C 35.3125 -22.09375 33.820312 -20.035156 30.84375 -18.109375 C 28.65625 -16.628906 26.992188 -15.691406 25.859375 -15.296875 C 24.722656 -14.898438 22.578125 -14.523438 19.421875 -14.171875 C 17.328125 -13.910156 15.84375 -13.78125 14.96875 -13.78125 C 14.09375 -13.78125 13.21875 -14 12.34375 -14.4375 C 11.289062 -15.050781 10.804688 -15.835938 10.890625 -16.796875 C 10.984375 -17.503906 11.140625 -17.941406 11.359375 -18.109375 C 11.578125 -18.285156 12.035156 -18.332031 12.734375 -18.25 C 15.179688 -18.070312 16.710938 -17.984375 17.328125 -17.984375 C 19.773438 -17.984375 22.269531 -18.550781 24.8125 -19.6875 C 26.738281 -20.5625 28.398438 -21.484375 29.796875 -22.453125 C 30.410156 -23.054688 30.71875 -23.492188 30.71875 -23.765625 C 30.71875 -24.460938 29.140625 -25.554688 25.984375 -27.046875 L 22.1875 -28.875 L 17.203125 -25.984375 C 13.429688 -23.796875 10.71875 -22.703125 9.0625 -22.703125 C 7.570312 -22.703125 6.390625 -23.535156 5.515625 -25.203125 C 4.285156 -27.828125 3.671875 -30.628906 3.671875 -33.609375 C 3.671875 -34.046875 3.757812 -34.59375 3.9375 -35.25 C 4.113281 -35.90625 4.203125 -36.363281 4.203125 -36.625 C 4.378906 -37.582031 5.015625 -38.695312 6.109375 -39.96875 C 7.203125 -41.238281 8.269531 -42.09375 9.3125 -42.53125 Z M 9.3125 -42.53125 "/></g></g></g><g fill="#010101" fill-opacity="1"><g transform="translate(581.646361, 205.712557)"><g><path d="M 16.796875 -44.109375 C 16.359375 -44.285156 15.789062 -44.375 15.09375 -44.375 C 13.601562 -44.375 11.8125 -43.320312 9.71875 -41.21875 C 8.664062 -40.164062 8.03125 -39.375 7.8125 -38.84375 C 7.59375 -38.320312 7.484375 -37.234375 7.484375 -35.578125 C 7.484375 -33.390625 7.960938 -30.566406 8.921875 -27.109375 C 9.890625 -23.648438 10.8125 -21.441406 11.6875 -20.484375 C 12.46875 -19.609375 13.382812 -19.171875 14.4375 -19.171875 C 17.15625 -19.171875 20.347656 -22.144531 24.015625 -28.09375 C 26.296875 -31.769531 27.4375 -34.4375 27.4375 -36.09375 C 27.4375 -36.882812 27.257812 -37.5 26.90625 -37.9375 C 26.5625 -38.457031 26.234375 -38.738281 25.921875 -38.78125 C 25.617188 -38.832031 25.03125 -38.679688 24.15625 -38.328125 C 22.84375 -37.890625 21.570312 -37.847656 20.34375 -38.203125 C 19.207031 -38.640625 17.675781 -38.941406 15.75 -39.109375 C 14.175781 -39.378906 13.390625 -39.6875 13.390625 -40.03125 C 13.390625 -40.46875 14.132812 -41.039062 15.625 -41.75 C 17.8125 -42.789062 18.203125 -43.578125 16.796875 -44.109375 Z M 11.8125 -47.78125 C 12.25 -47.957031 13.171875 -48.046875 14.578125 -48.046875 C 18.078125 -48.046875 20.347656 -47.648438 21.390625 -46.859375 C 22.179688 -46.335938 22.753906 -45.460938 23.109375 -44.234375 C 23.273438 -43.453125 23.535156 -42.953125 23.890625 -42.734375 C 24.242188 -42.515625 25.03125 -42.316406 26.25 -42.140625 C 27.820312 -41.960938 29.113281 -41.4375 30.125 -40.5625 C 31.132812 -39.6875 31.640625 -38.722656 31.640625 -37.671875 C 31.640625 -35.660156 30.566406 -32.597656 28.421875 -28.484375 C 26.273438 -24.367188 24.019531 -21.046875 21.65625 -18.515625 C 19.820312 -16.410156 17.328125 -15.359375 14.171875 -15.359375 C 14.003906 -15.359375 13.785156 -15.378906 13.515625 -15.421875 C 13.253906 -15.460938 13.082031 -15.484375 13 -15.484375 C 10.8125 -15.835938 9.210938 -16.671875 8.203125 -17.984375 C 7.191406 -19.296875 6.03125 -22.050781 4.71875 -26.25 C 4.28125 -27.300781 3.976562 -29.535156 3.8125 -32.953125 C 3.71875 -33.828125 3.671875 -34.875 3.671875 -36.09375 C 3.671875 -37.757812 3.9375 -39.289062 4.46875 -40.6875 C 5.070312 -42.175781 6.097656 -43.640625 7.546875 -45.078125 C 8.992188 -46.523438 10.414062 -47.425781 11.8125 -47.78125 Z M 11.8125 -47.78125 "/></g></g></g><g fill="#010101" fill-opacity="1"><g transform="translate(625.748379, 205.712557)"><g><path d="M 9.71875 -40.953125 C 12.082031 -42.703125 13.394531 -43.578125 13.65625 -43.578125 C 14.09375 -43.578125 14.722656 -43.09375 15.546875 -42.125 C 16.378906 -41.164062 16.796875 -40.46875 16.796875 -40.03125 C 16.796875 -39.070312 15.09375 -37.453125 11.6875 -35.171875 C 8.96875 -33.597656 7.609375 -32.375 7.609375 -31.5 C 7.609375 -30.882812 8.046875 -29.921875 8.921875 -28.609375 C 9.796875 -27.296875 10.628906 -26.378906 11.421875 -25.859375 C 12.117188 -25.335938 12.734375 -25.078125 13.265625 -25.078125 C 14.046875 -25.078125 15.398438 -25.773438 17.328125 -27.171875 C 20.828125 -29.617188 23.210938 -31.191406 24.484375 -31.890625 C 25.753906 -32.597656 27.046875 -32.953125 28.359375 -32.953125 C 31.242188 -32.953125 33.429688 -32.117188 34.921875 -30.453125 C 35.441406 -29.835938 36.3125 -27.78125 37.53125 -24.28125 C 38.757812 -20.78125 39.375 -18.59375 39.375 -17.71875 C 39.375 -17.101562 39.679688 -15.96875 40.296875 -14.3125 C 40.734375 -13.34375 40.953125 -11.675781 40.953125 -9.3125 C 40.953125 -5.988281 40.472656 -3.234375 39.515625 -1.046875 C 38.285156 1.578125 36.398438 3.71875 33.859375 5.375 C 31.328125 7.039062 28.570312 7.875 25.59375 7.875 C 23.5 7.875 20.785156 7 17.453125 5.25 C 14.660156 3.757812 12.78125 2.46875 11.8125 1.375 C 10.851562 0.28125 10.375 -1.140625 10.375 -2.890625 C 10.375 -4.640625 11.289062 -6.738281 13.125 -9.1875 C 14.695312 -11.195312 16.007812 -12.570312 17.0625 -13.3125 C 18.113281 -14.0625 19.863281 -14.875 22.3125 -15.75 C 24.9375 -16.625 26.6875 -17.0625 27.5625 -17.0625 C 28.53125 -17.0625 29.363281 -16.710938 30.0625 -16.015625 C 30.675781 -15.398438 30.984375 -14.832031 30.984375 -14.3125 C 30.984375 -13.34375 29.625 -12.726562 26.90625 -12.46875 C 24.375 -12.289062 22.40625 -11.8125 21 -11.03125 C 19.945312 -10.5 18.4375 -9.117188 16.46875 -6.890625 C 14.5 -4.660156 13.515625 -3.238281 13.515625 -2.625 C 13.515625 -1.488281 14.648438 -0.175781 16.921875 1.3125 C 19.203125 2.800781 21.566406 3.71875 24.015625 4.0625 C 24.453125 4.15625 25.109375 4.203125 25.984375 4.203125 C 27.734375 4.203125 29.703125 3.28125 31.890625 1.4375 C 33.203125 0.476562 34.078125 -0.347656 34.515625 -1.046875 C 34.953125 -1.742188 35.4375 -2.925781 35.96875 -4.59375 L 37.28125 -8.40625 L 34.921875 -17.59375 C 33.773438 -22.144531 32.894531 -25.140625 32.28125 -26.578125 C 31.675781 -28.023438 30.847656 -28.921875 29.796875 -29.265625 L 29.53125 -29.265625 C 28.65625 -29.265625 26.925781 -28.566406 24.34375 -27.171875 C 21.769531 -25.773438 19.519531 -24.332031 17.59375 -22.84375 C 15.75 -21.351562 14.4375 -20.609375 13.65625 -20.609375 C 13.125 -20.609375 12.726562 -20.648438 12.46875 -20.734375 C 11.15625 -21.003906 9.492188 -22.144531 7.484375 -24.15625 C 5.472656 -26.164062 4.289062 -27.914062 3.9375 -29.40625 C 3.675781 -30.28125 3.546875 -31.109375 3.546875 -31.890625 C 3.546875 -34.691406 5.601562 -37.710938 9.71875 -40.953125 Z M 9.71875 -40.953125 "/></g></g></g><g fill="#010101" fill-opacity="1"><g transform="translate(676.806488, 205.712557)"><g><path d="M 7.609375 -37.9375 C 7.960938 -38.894531 8.421875 -39.523438 8.984375 -39.828125 C 9.554688 -40.140625 10.019531 -39.988281 10.375 -39.375 C 10.539062 -39.03125 10.84375 -37.5 11.28125 -34.78125 C 11.71875 -31.976562 12.285156 -30.097656 12.984375 -29.140625 C 13.691406 -28.179688 14.175781 -26.429688 14.4375 -23.890625 C 14.53125 -23.191406 14.578125 -22.445312 14.578125 -21.65625 C 14.578125 -20.695312 13.960938 -19.601562 12.734375 -18.375 C 11.421875 -17.0625 10.585938 -16.40625 10.234375 -16.40625 C 9.617188 -16.40625 9.3125 -16.929688 9.3125 -17.984375 C 9.3125 -18.773438 9.488281 -19.519531 9.84375 -20.21875 C 10.363281 -21.269531 10.625 -22.316406 10.625 -23.359375 C 10.625 -24.847656 10.1875 -26.335938 9.3125 -27.828125 C 7.832031 -30.367188 7.09375 -32.816406 7.09375 -35.171875 C 7.09375 -36.316406 7.265625 -37.238281 7.609375 -37.9375 Z M -1.4375 -63.40625 C -0.738281 -64.28125 0.21875 -64.71875 1.4375 -64.71875 C 2.40625 -64.71875 2.890625 -64.363281 2.890625 -63.65625 C 2.890625 -63.132812 3.632812 -62.128906 5.125 -60.640625 C 6.164062 -59.679688 6.726562 -59.046875 6.8125 -58.734375 C 6.90625 -58.429688 6.734375 -58.101562 6.296875 -57.75 C 5.597656 -57.050781 4.679688 -56.613281 3.546875 -56.4375 C 2.316406 -56.269531 1.265625 -56.625 0.390625 -57.5 L -1.046875 -58.9375 L -1.046875 -57.09375 C -1.046875 -55.257812 -0.21875 -54.34375 1.4375 -54.34375 C 1.789062 -54.34375 2.582031 -54.429688 3.8125 -54.609375 C 6 -54.953125 7.484375 -55.648438 8.265625 -56.703125 C 8.878906 -57.398438 9.296875 -57.769531 9.515625 -57.8125 C 9.734375 -57.863281 10.019531 -57.625 10.375 -57.09375 C 10.894531 -56.488281 11.15625 -55.660156 11.15625 -54.609375 C 11.15625 -53.910156 11.023438 -53.382812 10.765625 -53.03125 C 10.410156 -52.507812 9.53125 -51.960938 8.125 -51.390625 C 6.726562 -50.816406 5.289062 -50.445312 3.8125 -50.28125 C 3.375 -50.1875 2.800781 -50.140625 2.09375 -50.140625 C -0.4375 -50.140625 -2.488281 -51.015625 -4.0625 -52.765625 C -5.113281 -53.816406 -5.640625 -54.910156 -5.640625 -56.046875 C -5.640625 -57.796875 -4.238281 -60.25 -1.4375 -63.40625 Z M -1.4375 -63.40625 "/></g></g></g><g fill="#010101" fill-opacity="1"><g transform="translate(703.846319, 205.712557)"><g><path d="M 11.6875 -39.109375 C 12.90625 -39.816406 14.085938 -40.171875 15.234375 -40.171875 C 16.453125 -40.171875 17.675781 -39.773438 18.90625 -38.984375 C 20.65625 -37.847656 21.53125 -36.84375 21.53125 -35.96875 C 21.53125 -35.53125 21.222656 -35.046875 20.609375 -34.515625 C 18.859375 -33.203125 17.804688 -33.25 17.453125 -34.65625 C 17.191406 -35.4375 16.578125 -35.828125 15.609375 -35.828125 C 14.648438 -35.828125 13.734375 -35.390625 12.859375 -34.515625 C 11.367188 -32.765625 10.117188 -30.507812 9.109375 -27.75 C 8.109375 -25 7.609375 -22.441406 7.609375 -20.078125 C 7.609375 -18.941406 7.695312 -18.265625 7.875 -18.046875 C 8.050781 -17.828125 8.578125 -17.71875 9.453125 -17.71875 C 10.847656 -17.71875 12.421875 -18.15625 14.171875 -19.03125 C 16.097656 -19.90625 17.847656 -21.523438 19.421875 -23.890625 C 20.910156 -26.078125 21.65625 -28.132812 21.65625 -30.0625 C 21.65625 -32.507812 22.222656 -33.734375 23.359375 -33.734375 C 23.796875 -33.734375 24.148438 -33.644531 24.421875 -33.46875 C 25.117188 -33.125 25.859375 -31.375 26.640625 -28.21875 C 27.515625 -24.71875 28.238281 -22.332031 28.8125 -21.0625 C 29.382812 -19.800781 30.238281 -18.953125 31.375 -18.515625 C 32.945312 -17.898438 33.734375 -17.195312 33.734375 -16.40625 C 33.734375 -15.882812 33.554688 -15.40625 33.203125 -14.96875 C 32.679688 -14.175781 32.023438 -13.78125 31.234375 -13.78125 C 30.628906 -13.78125 29.710938 -14.128906 28.484375 -14.828125 C 26.648438 -16.054688 25.25 -18.378906 24.28125 -21.796875 C 24.101562 -22.398438 23.882812 -22.703125 23.625 -22.703125 C 23.1875 -22.703125 22.003906 -21.609375 20.078125 -19.421875 C 16.753906 -15.578125 13.34375 -13.65625 9.84375 -13.65625 C 8.007812 -13.65625 6.476562 -14.265625 5.25 -15.484375 C 4.195312 -16.535156 3.671875 -17.585938 3.671875 -18.640625 C 3.671875 -19.597656 3.71875 -20.472656 3.8125 -21.265625 C 4.25 -25.378906 5.1875 -29.097656 6.625 -32.421875 C 8.070312 -35.742188 9.757812 -37.972656 11.6875 -39.109375 Z M 11.6875 -39.109375 "/></g></g></g></g></g></svg>