<svg xmlns="http://www.w3.org/2000/svg" xmlns:xlink="http://www.w3.org/1999/xlink" width="1366" zoomAndPan="magnify" viewBox="0 0 1024.5 576" height="768" preserveAspectRatio="xMidYMid meet" version="1.0"><defs><g/><clipPath id="8272df86c7"><rect x="0" width="1011" y="0" height="409"/></clipPath></defs><g transform="matrix(1, 0, 0, 1, 13, 80)"><g clip-path="url(#8272df86c7)"><g fill="#010101" fill-opacity="1"><g transform="translate(3.983324, 320.089927)"><g><path d="M 56.0625 -235.046875 C 59.382812 -236.710938 62.429688 -237.546875 65.203125 -237.546875 C 66.859375 -237.546875 68.242188 -237.40625 69.359375 -237.125 C 69.910156 -237.125 72.816406 -236.773438 78.078125 -236.078125 C 83.335938 -235.390625 87.488281 -234.910156 90.53125 -234.640625 C 99.945312 -233.523438 106.035156 -231.582031 108.796875 -228.8125 C 114.890625 -223 117.9375 -215.523438 117.9375 -206.390625 C 117.9375 -200.023438 116.550781 -193.101562 113.78125 -185.625 C 110.738281 -177.039062 107.625 -170.050781 104.4375 -164.65625 C 101.257812 -159.257812 95.929688 -151.578125 88.453125 -141.609375 C 79.867188 -129.984375 75.578125 -123.617188 75.578125 -122.515625 C 75.578125 -121.953125 75.851562 -121.671875 76.40625 -121.671875 C 79.457031 -121.671875 84.582031 -124.023438 91.78125 -128.734375 C 97.039062 -132.609375 103.269531 -136.484375 110.46875 -140.359375 C 116.28125 -143.960938 120.5 -146.109375 123.125 -146.796875 C 125.757812 -147.492188 129.984375 -147.84375 135.796875 -147.84375 C 141.609375 -147.84375 145.898438 -147.425781 148.671875 -146.59375 C 151.441406 -145.757812 156.5625 -143.40625 164.03125 -139.53125 C 182.03125 -130.125 194.90625 -121.265625 202.65625 -112.953125 C 210.40625 -104.648438 215.523438 -94.40625 218.015625 -82.21875 C 218.847656 -78.34375 219.265625 -75.4375 219.265625 -73.5 C 219.265625 -71.289062 218.160156 -67.140625 215.953125 -61.046875 C 211.515625 -49.972656 203.625 -41.253906 192.28125 -34.890625 C 184.800781 -30.734375 174.554688 -28.65625 161.546875 -28.65625 C 138.285156 -28.65625 119.320312 -33.5 104.65625 -43.1875 C 100.78125 -45.40625 98.84375 -48.3125 98.84375 -51.90625 C 98.84375 -54.125 99.394531 -55.925781 100.5 -57.3125 C 100.769531 -58.414062 101.460938 -58.96875 102.578125 -58.96875 C 103.128906 -58.96875 108.316406 -56.195312 118.140625 -50.65625 C 127.972656 -45.125 138.289062 -42.082031 149.09375 -41.53125 L 154.90625 -41.53125 C 172.34375 -41.53125 186.046875 -46.515625 196.015625 -56.484375 C 199.609375 -60.078125 201.75 -62.703125 202.4375 -64.359375 C 203.132812 -66.023438 203.484375 -69.347656 203.484375 -74.328125 C 203.484375 -80.972656 202.515625 -86.234375 200.578125 -90.109375 C 196.703125 -98.691406 187.359375 -108.101562 172.546875 -118.34375 C 157.734375 -128.59375 145.625 -134.132812 136.21875 -134.96875 C 135.382812 -134.96875 134.410156 -135.035156 133.296875 -135.171875 C 132.191406 -135.304688 131.503906 -135.375 131.234375 -135.375 C 127.910156 -135.375 122.09375 -132.46875 113.78125 -126.65625 C 95.507812 -114.195312 80.5625 -107.96875 68.9375 -107.96875 C 61.457031 -107.96875 56.890625 -108.800781 55.234375 -110.46875 C 54.398438 -111.289062 53.984375 -112.117188 53.984375 -112.953125 C 53.984375 -114.890625 56.476562 -119.457031 61.46875 -126.65625 C 67.28125 -135.238281 73.507812 -143.6875 80.15625 -152 C 97.039062 -173.03125 105.484375 -190.75 105.484375 -205.15625 C 105.484375 -207.363281 104.441406 -209.710938 102.359375 -212.203125 C 100.285156 -214.703125 98.421875 -215.953125 96.765625 -215.953125 C 95.929688 -215.953125 95.375 -215.8125 95.09375 -215.53125 C 93.707031 -214.144531 91.769531 -213.453125 89.28125 -213.453125 C 85.40625 -213.453125 80.976562 -215.113281 76 -218.4375 C 70.738281 -221.757812 67 -223.421875 64.78125 -223.421875 C 62.84375 -223.421875 60.765625 -222.3125 58.546875 -220.09375 C 56.335938 -217.882812 53.914062 -213.109375 51.28125 -205.765625 C 48.65625 -198.429688 47.34375 -192.96875 47.34375 -189.375 C 47.34375 -186.320312 46.375 -182.859375 44.4375 -178.984375 C 43.050781 -175.660156 42.359375 -172.335938 42.359375 -169.015625 C 42.359375 -165.972656 42.773438 -160.019531 43.609375 -151.15625 C 44.429688 -143.6875 44.84375 -129.289062 44.84375 -107.96875 C 44.84375 -79.726562 43.597656 -63.671875 41.109375 -59.796875 C 38.898438 -56.753906 36.828125 -55.234375 34.890625 -55.234375 C 32.953125 -55.234375 31.289062 -56.613281 29.90625 -59.375 C 28.519531 -62.144531 27.828125 -65.609375 27.828125 -69.765625 C 27.828125 -75.578125 26.859375 -80.007812 24.921875 -83.0625 C 23.535156 -85.269531 22.84375 -87.898438 22.84375 -90.953125 C 22.84375 -94.273438 24.363281 -102.71875 27.40625 -116.28125 C 28.507812 -120.4375 29.0625 -125.421875 29.0625 -131.234375 C 29.0625 -145.078125 25.878906 -159.609375 19.515625 -174.828125 C 14.535156 -186.460938 12.046875 -195.046875 12.046875 -200.578125 C 12.046875 -203.628906 12.875 -205.84375 14.53125 -207.21875 C 16.46875 -208.882812 18.128906 -209.71875 19.515625 -209.71875 C 21.453125 -209.71875 24.082031 -207.914062 27.40625 -204.3125 C 30.457031 -201.269531 32.535156 -199.75 33.640625 -199.75 C 35.296875 -199.75 36.539062 -202.378906 37.375 -207.640625 C 37.925781 -212.066406 40.207031 -217.253906 44.21875 -223.203125 C 48.238281 -229.160156 52.1875 -233.109375 56.0625 -235.046875 Z M 56.0625 -235.046875 "/></g></g></g><g fill="#010101" fill-opacity="1"><g transform="translate(221.985696, 320.089927)"><g><path d="M 53.15625 -139.53125 C 51.769531 -140.082031 49.96875 -140.359375 47.75 -140.359375 C 43.050781 -140.359375 37.378906 -137.035156 30.734375 -130.390625 C 27.410156 -127.078125 25.398438 -124.585938 24.703125 -122.921875 C 24.015625 -121.265625 23.671875 -117.804688 23.671875 -112.546875 C 23.671875 -105.617188 25.191406 -96.6875 28.234375 -85.75 C 31.285156 -74.820312 34.191406 -67.832031 36.953125 -64.78125 C 39.453125 -62.007812 42.363281 -60.625 45.6875 -60.625 C 54.257812 -60.625 64.363281 -70.039062 76 -88.875 C 83.195312 -100.5 86.796875 -108.941406 86.796875 -114.203125 C 86.796875 -116.691406 86.238281 -118.628906 85.125 -120.015625 C 84.019531 -121.679688 82.984375 -122.582031 82.015625 -122.71875 C 81.046875 -122.851562 79.175781 -122.367188 76.40625 -121.265625 C 72.257812 -119.878906 68.25 -119.738281 64.375 -120.84375 C 60.769531 -122.226562 55.921875 -123.195312 49.828125 -123.75 C 44.847656 -124.582031 42.359375 -125.550781 42.359375 -126.65625 C 42.359375 -128.039062 44.710938 -129.84375 49.421875 -132.0625 C 56.335938 -135.382812 57.582031 -137.875 53.15625 -139.53125 Z M 37.375 -151.15625 C 38.757812 -151.71875 41.664062 -152 46.09375 -152 C 57.164062 -152 64.363281 -150.75 67.6875 -148.25 C 70.175781 -146.59375 71.976562 -143.828125 73.09375 -139.953125 C 73.644531 -137.460938 74.472656 -135.867188 75.578125 -135.171875 C 76.691406 -134.484375 79.1875 -133.863281 83.0625 -133.3125 C 88.039062 -132.75 92.117188 -131.082031 95.296875 -128.3125 C 98.484375 -125.550781 100.078125 -122.507812 100.078125 -119.1875 C 100.078125 -112.820312 96.6875 -103.128906 89.90625 -90.109375 C 83.125 -77.097656 75.992188 -66.578125 68.515625 -58.546875 C 62.703125 -51.910156 54.8125 -48.59375 44.84375 -48.59375 C 44.289062 -48.59375 43.597656 -48.660156 42.765625 -48.796875 C 41.941406 -48.929688 41.390625 -49 41.109375 -49 C 34.191406 -50.113281 29.140625 -52.742188 25.953125 -56.890625 C 22.765625 -61.046875 19.097656 -69.769531 14.953125 -83.0625 C 13.566406 -86.382812 12.597656 -93.441406 12.046875 -104.234375 C 11.765625 -107.003906 11.625 -110.328125 11.625 -114.203125 C 11.625 -119.460938 12.457031 -124.304688 14.125 -128.734375 C 16.0625 -133.441406 19.3125 -138.078125 23.875 -142.640625 C 28.445312 -147.210938 32.945312 -150.050781 37.375 -151.15625 Z M 37.375 -151.15625 "/></g></g></g><g fill="#010101" fill-opacity="1"><g transform="translate(332.440221, 320.089927)"><g><path d="M 53.15625 -139.53125 C 51.769531 -140.082031 49.96875 -140.359375 47.75 -140.359375 C 43.050781 -140.359375 37.378906 -137.035156 30.734375 -130.390625 C 27.410156 -127.078125 25.398438 -124.585938 24.703125 -122.921875 C 24.015625 -121.265625 23.671875 -117.804688 23.671875 -112.546875 C 23.671875 -105.617188 25.191406 -96.6875 28.234375 -85.75 C 31.285156 -74.820312 34.191406 -67.832031 36.953125 -64.78125 C 39.453125 -62.007812 42.363281 -60.625 45.6875 -60.625 C 54.257812 -60.625 64.363281 -70.039062 76 -88.875 C 83.195312 -100.5 86.796875 -108.941406 86.796875 -114.203125 C 86.796875 -116.691406 86.238281 -118.628906 85.125 -120.015625 C 84.019531 -121.679688 82.984375 -122.582031 82.015625 -122.71875 C 81.046875 -122.851562 79.175781 -122.367188 76.40625 -121.265625 C 72.257812 -119.878906 68.25 -119.738281 64.375 -120.84375 C 60.769531 -122.226562 55.921875 -123.195312 49.828125 -123.75 C 44.847656 -124.582031 42.359375 -125.550781 42.359375 -126.65625 C 42.359375 -128.039062 44.710938 -129.84375 49.421875 -132.0625 C 56.335938 -135.382812 57.582031 -137.875 53.15625 -139.53125 Z M 37.375 -151.15625 C 38.757812 -151.71875 41.664062 -152 46.09375 -152 C 57.164062 -152 64.363281 -150.75 67.6875 -148.25 C 70.175781 -146.59375 71.976562 -143.828125 73.09375 -139.953125 C 73.644531 -137.460938 74.472656 -135.867188 75.578125 -135.171875 C 76.691406 -134.484375 79.1875 -133.863281 83.0625 -133.3125 C 88.039062 -132.75 92.117188 -131.082031 95.296875 -128.3125 C 98.484375 -125.550781 100.078125 -122.507812 100.078125 -119.1875 C 100.078125 -112.820312 96.6875 -103.128906 89.90625 -90.109375 C 83.125 -77.097656 75.992188 -66.578125 68.515625 -58.546875 C 62.703125 -51.910156 54.8125 -48.59375 44.84375 -48.59375 C 44.289062 -48.59375 43.597656 -48.660156 42.765625 -48.796875 C 41.941406 -48.929688 41.390625 -49 41.109375 -49 C 34.191406 -50.113281 29.140625 -52.742188 25.953125 -56.890625 C 22.765625 -61.046875 19.097656 -69.769531 14.953125 -83.0625 C 13.566406 -86.382812 12.597656 -93.441406 12.046875 -104.234375 C 11.765625 -107.003906 11.625 -110.328125 11.625 -114.203125 C 11.625 -119.460938 12.457031 -124.304688 14.125 -128.734375 C 16.0625 -133.441406 19.3125 -138.078125 23.875 -142.640625 C 28.445312 -147.210938 32.945312 -150.050781 37.375 -151.15625 Z M 37.375 -151.15625 "/></g></g></g><g fill="#010101" fill-opacity="1"><g transform="translate(442.894745, 320.089927)"><g><path d="M 69.359375 -188.125 C 71.296875 -190.332031 72.675781 -191.578125 73.5 -191.859375 C 74.332031 -192.140625 75.441406 -191.722656 76.828125 -190.609375 C 78.765625 -189.503906 79.734375 -187.984375 79.734375 -186.046875 C 79.734375 -183.273438 78.347656 -179.535156 75.578125 -174.828125 C 71.429688 -167.078125 68.523438 -160.15625 66.859375 -154.0625 C 64.921875 -147.976562 62.707031 -137.875 60.21875 -123.75 C 57.726562 -109.632812 56.484375 -100.5 56.484375 -96.34375 C 56.484375 -89.144531 63.40625 -83.46875 77.25 -79.3125 C 86.382812 -77.101562 105.347656 -70.875 134.140625 -60.625 C 141.890625 -57.863281 146.523438 -56 148.046875 -55.03125 C 149.566406 -54.0625 150.328125 -52.328125 150.328125 -49.828125 C 150.328125 -47.066406 150.050781 -45.546875 149.5 -45.265625 C 148.945312 -44.984375 146.734375 -44.984375 142.859375 -45.265625 C 137.867188 -45.816406 128.867188 -48.585938 115.859375 -53.578125 C 105.335938 -57.722656 93.296875 -61.597656 79.734375 -65.203125 C 69.492188 -67.691406 62.019531 -70.320312 57.3125 -73.09375 C 52.601562 -75.863281 49.28125 -79.597656 47.34375 -84.296875 C 45.40625 -88.453125 44.4375 -93.019531 44.4375 -98 C 44.4375 -103.820312 45.820312 -114.207031 48.59375 -129.15625 C 53.851562 -158.78125 60.773438 -178.4375 69.359375 -188.125 Z M 20.34375 -196.84375 C 22.007812 -199.332031 23.945312 -200.578125 26.15625 -200.578125 C 28.65625 -200.578125 30.875 -199.332031 32.8125 -196.84375 C 34.75 -194.351562 35.578125 -191.171875 35.296875 -187.296875 C 35.296875 -182.304688 35.988281 -169.15625 37.375 -147.84375 C 41.53125 -96.070312 43.609375 -64.785156 43.609375 -53.984375 C 43.609375 -48.722656 43.050781 -45.265625 41.9375 -43.609375 C 40.28125 -41.941406 38.898438 -41.109375 37.796875 -41.109375 C 35.296875 -41.109375 33.632812 -47.203125 32.8125 -59.390625 C 28.9375 -100.085938 26.71875 -125.695312 26.15625 -136.21875 C 25.050781 -156.695312 24.082031 -168.734375 23.25 -172.328125 C 22.425781 -175.929688 20.078125 -177.734375 16.203125 -177.734375 C 13.703125 -177.734375 12.242188 -178.84375 11.828125 -181.0625 C 11.421875 -183.28125 12.320312 -185.21875 14.53125 -186.875 C 16.46875 -188.8125 17.4375 -190.195312 17.4375 -191.03125 C 17.4375 -192.414062 18.40625 -194.351562 20.34375 -196.84375 Z M 20.34375 -196.84375 "/></g></g></g><g fill="#010101" fill-opacity="1"><g transform="translate(576.602863, 320.089927)"><g/></g></g><g fill="#010101" fill-opacity="1"><g transform="translate(651.346487, 320.089927)"><g><path d="M 47.34375 -133.3125 C 50.113281 -134.6875 52.878906 -135.375 55.640625 -135.375 C 65.054688 -135.375 71.84375 -132.054688 76 -125.421875 C 77.9375 -122.648438 78.90625 -109.5 78.90625 -85.96875 C 78.90625 -64.09375 78.351562 -52.046875 77.25 -49.828125 C 76.414062 -48.441406 74.890625 -47.957031 72.671875 -48.375 C 70.460938 -48.789062 69.078125 -49.832031 68.515625 -51.5 C 67.960938 -52.601562 67.410156 -64.226562 66.859375 -86.375 C 66.304688 -107.144531 65.335938 -118.5 63.953125 -120.4375 C 62.847656 -122.09375 60.910156 -122.921875 58.140625 -122.921875 C 55.367188 -122.921875 52.738281 -122.019531 50.25 -120.21875 C 47.757812 -118.425781 46.515625 -116.28125 46.515625 -113.78125 C 46.515625 -111.570312 45.957031 -110.191406 44.84375 -109.640625 C 42.90625 -107.703125 38.476562 -95.242188 31.5625 -72.265625 C 27.957031 -59.804688 23.804688 -53.578125 19.109375 -53.578125 C 14.117188 -53.578125 11.625 -55.925781 11.625 -60.625 C 11.625 -63.394531 11.898438 -65.613281 12.453125 -67.28125 C 13.566406 -71.425781 14.125 -80.144531 14.125 -93.4375 L 14.125 -99.671875 C 14.125 -112.128906 15.644531 -119.328125 18.6875 -121.265625 C 23.113281 -124.304688 25.328125 -122.644531 25.328125 -116.28125 C 25.328125 -111.289062 25.742188 -107.550781 26.578125 -105.0625 L 27.828125 -100.5 L 30.734375 -105.0625 C 33.773438 -111.4375 35.710938 -115.59375 36.546875 -117.53125 C 39.867188 -125.832031 43.46875 -131.09375 47.34375 -133.3125 Z M 47.34375 -133.3125 "/></g></g></g><g fill="#010101" fill-opacity="1"><g transform="translate(738.96267, 320.089927)"><g><path d="M 53.15625 -139.53125 C 51.769531 -140.082031 49.96875 -140.359375 47.75 -140.359375 C 43.050781 -140.359375 37.378906 -137.035156 30.734375 -130.390625 C 27.410156 -127.078125 25.398438 -124.585938 24.703125 -122.921875 C 24.015625 -121.265625 23.671875 -117.804688 23.671875 -112.546875 C 23.671875 -105.617188 25.191406 -96.6875 28.234375 -85.75 C 31.285156 -74.820312 34.191406 -67.832031 36.953125 -64.78125 C 39.453125 -62.007812 42.363281 -60.625 45.6875 -60.625 C 54.257812 -60.625 64.363281 -70.039062 76 -88.875 C 83.195312 -100.5 86.796875 -108.941406 86.796875 -114.203125 C 86.796875 -116.691406 86.238281 -118.628906 85.125 -120.015625 C 84.019531 -121.679688 82.984375 -122.582031 82.015625 -122.71875 C 81.046875 -122.851562 79.175781 -122.367188 76.40625 -121.265625 C 72.257812 -119.878906 68.25 -119.738281 64.375 -120.84375 C 60.769531 -122.226562 55.921875 -123.195312 49.828125 -123.75 C 44.847656 -124.582031 42.359375 -125.550781 42.359375 -126.65625 C 42.359375 -128.039062 44.710938 -129.84375 49.421875 -132.0625 C 56.335938 -135.382812 57.582031 -137.875 53.15625 -139.53125 Z M 37.375 -151.15625 C 38.757812 -151.71875 41.664062 -152 46.09375 -152 C 57.164062 -152 64.363281 -150.75 67.6875 -148.25 C 70.175781 -146.59375 71.976562 -143.828125 73.09375 -139.953125 C 73.644531 -137.460938 74.472656 -135.867188 75.578125 -135.171875 C 76.691406 -134.484375 79.1875 -133.863281 83.0625 -133.3125 C 88.039062 -132.75 92.117188 -131.082031 95.296875 -128.3125 C 98.484375 -125.550781 100.078125 -122.507812 100.078125 -119.1875 C 100.078125 -112.820312 96.6875 -103.128906 89.90625 -90.109375 C 83.125 -77.097656 75.992188 -66.578125 68.515625 -58.546875 C 62.703125 -51.910156 54.8125 -48.59375 44.84375 -48.59375 C 44.289062 -48.59375 43.597656 -48.660156 42.765625 -48.796875 C 41.941406 -48.929688 41.390625 -49 41.109375 -49 C 34.191406 -50.113281 29.140625 -52.742188 25.953125 -56.890625 C 22.765625 -61.046875 19.097656 -69.769531 14.953125 -83.0625 C 13.566406 -86.382812 12.597656 -93.441406 12.046875 -104.234375 C 11.765625 -107.003906 11.625 -110.328125 11.625 -114.203125 C 11.625 -119.460938 12.457031 -124.304688 14.125 -128.734375 C 16.0625 -133.441406 19.3125 -138.078125 23.875 -142.640625 C 28.445312 -147.210938 32.945312 -150.050781 37.375 -151.15625 Z M 37.375 -151.15625 "/></g></g></g><g fill="#010101" fill-opacity="1"><g transform="translate(849.417194, 320.089927)"><g><path d="M 145.765625 -143.6875 C 148.253906 -146.457031 151.160156 -147.703125 154.484375 -147.421875 C 158.359375 -146.867188 160.296875 -145.484375 160.296875 -143.265625 C 160.296875 -140.503906 157.113281 -134.832031 150.75 -126.25 C 144.101562 -117.664062 137.59375 -106.9375 131.21875 -94.0625 C 124.851562 -81.1875 121.671875 -72.394531 121.671875 -67.6875 C 121.671875 -64.363281 120.351562 -58.550781 117.71875 -50.25 C 115.09375 -41.945312 112.8125 -36.6875 110.875 -34.46875 C 109.488281 -32.8125 107.828125 -31.984375 105.890625 -31.984375 C 102.296875 -31.984375 96.625 -35.71875 88.875 -43.1875 C 80.5625 -51.769531 74.46875 -58.273438 70.59375 -62.703125 C 65.882812 -68.515625 62.84375 -71.421875 61.46875 -71.421875 C 59.25 -71.421875 56.335938 -67.960938 52.734375 -61.046875 C 48.585938 -53.015625 44.578125 -49 40.703125 -49 C 37.648438 -49 34.050781 -51.210938 29.90625 -55.640625 C 27.132812 -58.410156 24.570312 -63.53125 22.21875 -71 C 19.863281 -78.476562 18.6875 -84.988281 18.6875 -90.53125 C 18.6875 -96.894531 17.441406 -102.570312 14.953125 -107.5625 C 12.179688 -112.820312 11.90625 -116.554688 14.125 -118.765625 C 15.507812 -120.148438 17.03125 -120.84375 18.6875 -120.84375 C 23.113281 -120.84375 26.160156 -117.109375 27.828125 -109.640625 C 28.648438 -106.867188 29.546875 -104.648438 30.515625 -102.984375 C 31.492188 -101.328125 32.1875 -99.738281 32.59375 -98.21875 C 33.007812 -96.695312 33.21875 -93.859375 33.21875 -89.703125 C 33.21875 -83.890625 33.769531 -78.554688 34.875 -73.703125 C 35.988281 -68.859375 37.238281 -66.4375 38.625 -66.4375 L 39.03125 -66.4375 C 41.800781 -67.550781 45.816406 -73.226562 51.078125 -83.46875 C 53.296875 -87.34375 55.507812 -89.28125 57.71875 -89.28125 C 61.320312 -89.28125 66.582031 -85.820312 73.5 -78.90625 C 79.59375 -72.8125 85.6875 -66.164062 91.78125 -58.96875 C 96.488281 -53.4375 100.222656 -50.671875 102.984375 -50.671875 C 104.921875 -50.671875 105.890625 -52.050781 105.890625 -54.8125 C 105.890625 -57.03125 107.414062 -61.1875 110.46875 -67.28125 C 113.238281 -73.363281 114.625 -78.066406 114.625 -81.390625 C 114.625 -86.378906 118.425781 -96.414062 126.03125 -111.5 C 133.644531 -126.59375 140.222656 -137.320312 145.765625 -143.6875 Z M 145.765625 -143.6875 "/></g></g></g></g></g></svg>