<svg xmlns="http://www.w3.org/2000/svg" xmlns:xlink="http://www.w3.org/1999/xlink" width="1366" zoomAndPan="magnify" viewBox="0 0 1024.5 576" height="768" preserveAspectRatio="xMidYMid meet" version="1.0"><defs><g/><clipPath id="09e3755d92"><rect x="0" width="1019" y="0" height="328"/></clipPath></defs><g transform="matrix(1, 0, 0, 1, 5, 156)"><g clip-path="url(#09e3755d92)"><g fill="#010101" fill-opacity="1"><g transform="translate(0.800671, 106.380954)"><g><path d="M 69.921875 -71.71875 C 69.921875 -70.613281 70.332031 -67.519531 71.15625 -62.4375 C 71.988281 -57.363281 72.40625 -54.273438 72.40625 -53.171875 C 72.40625 -51.316406 71.894531 -48.425781 70.875 -44.5 C 69.863281 -40.582031 68.988281 -38.117188 68.25 -37.109375 C 65.488281 -33.234375 62.257812 -31.296875 58.5625 -31.296875 C 57.726562 -31.296875 56.898438 -31.429688 56.078125 -31.703125 C 53.765625 -32.441406 50.992188 -34.632812 47.765625 -38.28125 C 44.535156 -41.925781 42.734375 -44.992188 42.359375 -47.484375 C 42.085938 -48.773438 41.8125 -49.421875 41.53125 -49.421875 C 41.164062 -49.421875 40.84375 -48.128906 40.5625 -45.546875 C 40.195312 -42.503906 39.597656 -39.96875 38.765625 -37.9375 C 37.753906 -35.539062 37.25 -34.015625 37.25 -33.359375 C 37.25 -32.628906 36.300781 -29.5625 34.40625 -24.15625 C 32.507812 -18.757812 31.007812 -14.816406 29.90625 -12.328125 C 28.0625 -8.171875 26.078125 -6.09375 23.953125 -6.09375 C 23.117188 -6.09375 22.378906 -6.460938 21.734375 -7.203125 C 18.691406 -10.617188 15.644531 -20.125 12.59375 -35.71875 C 11.945312 -38.945312 11.625 -41.023438 11.625 -41.953125 C 11.625 -44.992188 11.347656 -46.515625 10.796875 -46.515625 C 10.703125 -46.515625 10.65625 -46.238281 10.65625 -45.6875 C 10.65625 -44.851562 10.378906 -44.066406 9.828125 -43.328125 C 9.367188 -42.773438 9.046875 -42.5 8.859375 -42.5 C 8.671875 -42.5 8.164062 -42.773438 7.34375 -43.328125 C 6.601562 -43.796875 5.863281 -44.582031 5.125 -45.6875 C 4.382812 -46.789062 4.015625 -47.664062 4.015625 -48.3125 C 4.015625 -48.5 4.566406 -49.332031 5.671875 -50.8125 C 6.785156 -52.101562 7.617188 -53.625 8.171875 -55.375 C 8.535156 -57.039062 9.132812 -57.921875 9.96875 -58.015625 C 10.25 -58.015625 10.617188 -58.035156 11.078125 -58.078125 C 11.535156 -58.128906 11.8125 -58.15625 11.90625 -58.15625 L 12.046875 -58.15625 C 13.523438 -58.15625 15.046875 -52.890625 16.609375 -42.359375 C 17.992188 -32.765625 19.242188 -25.84375 20.359375 -21.59375 C 20.628906 -20.125 21.269531 -18.300781 22.28125 -16.125 C 23.300781 -13.957031 24.039062 -12.875 24.5 -12.875 C 25.144531 -12.875 25.882812 -13.65625 26.71875 -15.21875 C 27.550781 -16.789062 28.378906 -18.6875 29.203125 -20.90625 C 30.035156 -23.125 30.59375 -24.460938 30.875 -24.921875 C 31.613281 -26.578125 31.984375 -27.632812 31.984375 -28.09375 C 31.984375 -28.5625 32.441406 -30.363281 33.359375 -33.5 C 34.285156 -36.644531 34.976562 -38.722656 35.4375 -39.734375 C 35.8125 -40.753906 36.09375 -42.046875 36.28125 -43.609375 C 36.28125 -43.796875 36.460938 -44.878906 36.828125 -46.859375 C 37.191406 -48.847656 37.46875 -50.394531 37.65625 -51.5 C 38.03125 -53.625 38.21875 -55.195312 38.21875 -56.21875 C 38.21875 -57.132812 37.984375 -58.054688 37.515625 -58.984375 C 37.054688 -60.085938 36.828125 -60.914062 36.828125 -61.46875 C 36.828125 -62.582031 37.519531 -63.414062 38.90625 -63.96875 C 39.457031 -64.15625 39.828125 -64.25 40.015625 -64.25 C 41.492188 -64.25 42.925781 -61.707031 44.3125 -56.625 C 45.601562 -51.820312 46.570312 -48.585938 47.21875 -46.921875 C 47.863281 -45.265625 48.832031 -43.648438 50.125 -42.078125 C 51.414062 -40.515625 52.957031 -39.15625 54.75 -38 C 56.550781 -36.851562 58.007812 -36.28125 59.125 -36.28125 C 59.488281 -36.28125 59.71875 -36.320312 59.8125 -36.40625 C 61.46875 -37.332031 63.125 -39.34375 64.78125 -42.4375 C 66.445312 -45.53125 67.46875 -48.414062 67.84375 -51.09375 C 67.9375 -51.550781 67.984375 -52.378906 67.984375 -53.578125 C 67.984375 -57.453125 67.472656 -61.5625 66.453125 -65.90625 C 65.710938 -68.945312 65.34375 -71.4375 65.34375 -73.375 C 65.34375 -74.300781 65.484375 -74.992188 65.765625 -75.453125 C 66.128906 -76.003906 66.820312 -76.28125 67.84375 -76.28125 C 68.757812 -76.28125 69.359375 -75.957031 69.640625 -75.3125 C 69.828125 -74.570312 69.921875 -73.375 69.921875 -71.71875 Z M 69.921875 -71.71875 "/></g></g></g><g fill="#010101" fill-opacity="1"><g transform="translate(76.662923, 106.380954)"><g><path d="M 24.78125 -44.03125 L 24.09375 -44.03125 C 21.6875 -44.03125 19.285156 -43.5 16.890625 -42.4375 C 14.492188 -41.375 13.109375 -40.242188 12.734375 -39.046875 C 12.546875 -38.117188 12.59375 -37.539062 12.875 -37.3125 C 13.15625 -37.082031 13.894531 -36.921875 15.09375 -36.828125 L 15.640625 -36.828125 C 17.953125 -36.828125 20.375 -37.472656 22.90625 -38.765625 C 25.445312 -40.054688 26.71875 -41.300781 26.71875 -42.5 C 26.71875 -43.519531 26.070312 -44.03125 24.78125 -44.03125 Z M 18.96875 -47.078125 C 21.738281 -47.898438 23.628906 -48.3125 24.640625 -48.3125 C 25.109375 -48.3125 25.894531 -48.128906 27 -47.765625 C 29.675781 -46.835938 31.015625 -45.175781 31.015625 -42.78125 C 31.015625 -40.476562 29.03125 -38.03125 25.0625 -35.4375 C 21.457031 -33.039062 17.765625 -31.84375 13.984375 -31.84375 C 12.960938 -31.84375 12.085938 -31.984375 11.359375 -32.265625 C 10.148438 -32.722656 9.363281 -32.953125 9 -32.953125 C 8.539062 -32.953125 8.3125 -32.398438 8.3125 -31.296875 C 8.3125 -29.535156 8.722656 -28.054688 9.546875 -26.859375 C 10.929688 -25.015625 13.609375 -23.375 17.578125 -21.9375 C 21.546875 -20.507812 25.285156 -19.796875 28.796875 -19.796875 C 30.828125 -19.796875 32.601562 -20.578125 34.125 -22.140625 C 35.644531 -23.710938 36.6875 -25.796875 37.25 -28.390625 C 37.519531 -29.398438 38.023438 -29.90625 38.765625 -29.90625 C 39.410156 -29.90625 40.054688 -29.535156 40.703125 -28.796875 C 41.441406 -28.054688 41.671875 -27.085938 41.390625 -25.890625 C 41.210938 -24.691406 40.128906 -23.03125 38.140625 -20.90625 C 36.160156 -18.78125 34.429688 -17.347656 32.953125 -16.609375 C 31.660156 -16.054688 30.046875 -15.78125 28.109375 -15.78125 C 22.847656 -15.78125 17.351562 -17.257812 11.625 -20.21875 C 6.457031 -22.613281 3.875 -25.890625 3.875 -30.046875 C 3.875 -30.878906 4.015625 -31.707031 4.296875 -32.53125 C 5.398438 -36.40625 7.109375 -39.546875 9.421875 -41.953125 C 11.359375 -44.171875 14.539062 -45.878906 18.96875 -47.078125 Z M 18.96875 -47.078125 "/></g></g></g><g fill="#010101" fill-opacity="1"><g transform="translate(117.501164, 106.380954)"><g/></g></g><g fill="#010101" fill-opacity="1"><g transform="translate(142.419406, 106.380954)"><g><path d="M 25.890625 -88.890625 C 24.046875 -90.085938 22.84375 -90.6875 22.28125 -90.6875 C 21.726562 -90.6875 21.382812 -90.269531 21.25 -89.4375 C 21.113281 -88.601562 21.046875 -86.941406 21.046875 -84.453125 C 21.046875 -80.671875 21.738281 -76.007812 23.125 -70.46875 C 23.863281 -67.613281 24.644531 -64.707031 25.46875 -61.75 C 26.300781 -58.789062 27.132812 -55.609375 27.96875 -52.203125 C 29.445312 -46.566406 30.367188 -43.75 30.734375 -43.75 C 31.472656 -43.75 32.117188 -51.132812 32.671875 -65.90625 C 32.671875 -66.457031 32.691406 -67.238281 32.734375 -68.25 C 32.785156 -69.269531 32.8125 -70.007812 32.8125 -70.46875 C 32.8125 -75.632812 32.28125 -79.601562 31.21875 -82.375 C 30.15625 -85.144531 28.378906 -87.316406 25.890625 -88.890625 Z M 18.828125 -94.28125 C 19.472656 -94.925781 20.394531 -95.25 21.59375 -95.25 C 23.257812 -95.25 25.128906 -94.578125 27.203125 -93.234375 C 29.285156 -91.898438 31.015625 -90.175781 32.390625 -88.0625 C 33.960938 -85.5625 35.023438 -83.066406 35.578125 -80.578125 C 36.128906 -78.085938 36.40625 -74.628906 36.40625 -70.203125 C 36.40625 -56.265625 35.757812 -46.847656 34.46875 -41.953125 C 34.007812 -40.109375 33.78125 -39 33.78125 -38.625 C 33.78125 -38.164062 34.007812 -37.335938 34.46875 -36.140625 C 35.757812 -32.992188 38.300781 -28.46875 42.09375 -22.5625 C 43.75 -19.976562 44.578125 -18.410156 44.578125 -17.859375 C 44.578125 -17.578125 44.53125 -17.347656 44.4375 -17.171875 C 44.164062 -16.523438 43.707031 -16.203125 43.0625 -16.203125 C 42.039062 -16.203125 40.769531 -17.054688 39.25 -18.765625 C 37.726562 -20.472656 36.320312 -22.664062 35.03125 -25.34375 C 33.832031 -27.925781 32.863281 -29.21875 32.125 -29.21875 C 31.75 -29.21875 31.515625 -28.941406 31.421875 -28.390625 C 29.117188 -21.828125 26.488281 -16.492188 23.53125 -12.390625 C 20.582031 -8.285156 17.90625 -6.234375 15.5 -6.234375 C 13.101562 -6.234375 10.0625 -8.585938 6.375 -13.296875 C 4.707031 -15.503906 3.875 -17.300781 3.875 -18.6875 C 3.875 -19.707031 4.242188 -21.601562 4.984375 -24.375 C 6.273438 -29.257812 8.003906 -33.222656 10.171875 -36.265625 C 12.347656 -39.316406 14.445312 -40.84375 16.46875 -40.84375 C 17.488281 -40.84375 18.460938 -40.378906 19.390625 -39.453125 C 20.035156 -38.804688 20.359375 -38.300781 20.359375 -37.9375 C 20.359375 -37.289062 19.429688 -36.738281 17.578125 -36.28125 C 16.472656 -36.09375 15.617188 -35.765625 15.015625 -35.296875 C 14.421875 -34.835938 13.660156 -33.867188 12.734375 -32.390625 C 11.441406 -30.367188 10.335938 -27.554688 9.421875 -23.953125 L 8.3125 -19.109375 L 9.828125 -16.34375 C 11.578125 -13.289062 13.378906 -11.765625 15.234375 -11.765625 L 15.78125 -11.765625 C 17.164062 -12.140625 19.21875 -14.398438 21.9375 -18.546875 C 24.664062 -22.703125 26.816406 -26.90625 28.390625 -31.15625 L 29.90625 -35.171875 L 27.140625 -40.984375 C 25.109375 -45.503906 23.445312 -50.535156 22.15625 -56.078125 C 21.601562 -58.472656 20.929688 -61.078125 20.140625 -63.890625 C 19.359375 -66.710938 18.78125 -69.046875 18.40625 -70.890625 C 18.039062 -72.734375 17.628906 -75.269531 17.171875 -78.5 C 16.703125 -82.007812 16.46875 -84.269531 16.46875 -85.28125 C 16.46875 -86.488281 16.609375 -87.78125 16.890625 -89.15625 C 17.347656 -91.75 17.992188 -93.457031 18.828125 -94.28125 Z M 18.828125 -94.28125 "/></g></g></g><g fill="#010101" fill-opacity="1"><g transform="translate(183.949828, 106.380954)"><g><path d="M 17.71875 -46.515625 C 17.257812 -46.703125 16.660156 -46.796875 15.921875 -46.796875 C 14.347656 -46.796875 12.457031 -45.6875 10.25 -43.46875 C 9.132812 -42.363281 8.460938 -41.535156 8.234375 -40.984375 C 8.003906 -40.429688 7.890625 -39.273438 7.890625 -37.515625 C 7.890625 -35.210938 8.394531 -32.238281 9.40625 -28.59375 C 10.425781 -24.945312 11.398438 -22.613281 12.328125 -21.59375 C 13.148438 -20.675781 14.117188 -20.21875 15.234375 -20.21875 C 18.085938 -20.21875 21.457031 -23.351562 25.34375 -29.625 C 27.738281 -33.5 28.9375 -36.316406 28.9375 -38.078125 C 28.9375 -38.910156 28.753906 -39.554688 28.390625 -40.015625 C 28.015625 -40.566406 27.664062 -40.863281 27.34375 -40.90625 C 27.019531 -40.957031 26.394531 -40.796875 25.46875 -40.421875 C 24.09375 -39.960938 22.753906 -39.921875 21.453125 -40.296875 C 20.253906 -40.753906 18.640625 -41.078125 16.609375 -41.265625 C 14.953125 -41.535156 14.125 -41.859375 14.125 -42.234375 C 14.125 -42.691406 14.90625 -43.289062 16.46875 -44.03125 C 18.78125 -45.132812 19.195312 -45.960938 17.71875 -46.515625 Z M 12.453125 -50.390625 C 12.921875 -50.578125 13.894531 -50.671875 15.375 -50.671875 C 19.0625 -50.671875 21.457031 -50.253906 22.5625 -49.421875 C 23.394531 -48.867188 24 -47.945312 24.375 -46.65625 C 24.550781 -45.820312 24.820312 -45.289062 25.1875 -45.0625 C 25.5625 -44.832031 26.394531 -44.625 27.6875 -44.4375 C 29.351562 -44.257812 30.710938 -43.707031 31.765625 -42.78125 C 32.828125 -41.851562 33.359375 -40.835938 33.359375 -39.734375 C 33.359375 -37.609375 32.226562 -34.375 29.96875 -30.03125 C 27.707031 -25.695312 25.332031 -22.191406 22.84375 -19.515625 C 20.90625 -17.304688 18.273438 -16.203125 14.953125 -16.203125 C 14.765625 -16.203125 14.53125 -16.222656 14.25 -16.265625 C 13.976562 -16.316406 13.796875 -16.34375 13.703125 -16.34375 C 11.398438 -16.707031 9.71875 -17.582031 8.65625 -18.96875 C 7.59375 -20.351562 6.367188 -23.257812 4.984375 -27.6875 C 4.523438 -28.800781 4.203125 -31.15625 4.015625 -34.75 C 3.921875 -35.675781 3.875 -36.785156 3.875 -38.078125 C 3.875 -39.828125 4.148438 -41.441406 4.703125 -42.921875 C 5.347656 -44.492188 6.429688 -46.039062 7.953125 -47.5625 C 9.484375 -49.082031 10.984375 -50.023438 12.453125 -50.390625 Z M 12.453125 -50.390625 "/></g></g></g><g fill="#010101" fill-opacity="1"><g transform="translate(220.773458, 106.380954)"><g><path d="M 15.78125 -44.4375 C 16.707031 -44.90625 17.628906 -45.140625 18.546875 -45.140625 C 21.691406 -45.140625 23.957031 -44.03125 25.34375 -41.8125 C 25.988281 -40.882812 26.3125 -36.5 26.3125 -28.65625 C 26.3125 -21.363281 26.125 -17.347656 25.75 -16.609375 C 25.476562 -16.148438 24.972656 -15.988281 24.234375 -16.125 C 23.492188 -16.269531 23.03125 -16.617188 22.84375 -17.171875 C 22.65625 -17.535156 22.472656 -21.410156 22.296875 -28.796875 C 22.109375 -35.722656 21.785156 -39.507812 21.328125 -40.15625 C 20.953125 -40.707031 20.300781 -40.984375 19.375 -40.984375 C 18.457031 -40.984375 17.582031 -40.679688 16.75 -40.078125 C 15.914062 -39.484375 15.5 -38.769531 15.5 -37.9375 C 15.5 -37.195312 15.316406 -36.734375 14.953125 -36.546875 C 14.304688 -35.898438 12.828125 -31.75 10.515625 -24.09375 C 9.316406 -19.9375 7.9375 -17.859375 6.375 -17.859375 C 4.707031 -17.859375 3.875 -18.644531 3.875 -20.21875 C 3.875 -21.132812 3.96875 -21.867188 4.15625 -22.421875 C 4.519531 -23.804688 4.703125 -26.71875 4.703125 -31.15625 L 4.703125 -33.234375 C 4.703125 -37.378906 5.210938 -39.773438 6.234375 -40.421875 C 7.710938 -41.441406 8.453125 -40.890625 8.453125 -38.765625 C 8.453125 -37.109375 8.585938 -35.863281 8.859375 -35.03125 L 9.28125 -33.5 L 10.25 -35.03125 C 11.257812 -37.15625 11.90625 -38.539062 12.1875 -39.1875 C 13.289062 -41.945312 14.488281 -43.695312 15.78125 -44.4375 Z M 15.78125 -44.4375 "/></g></g></g><g fill="#010101" fill-opacity="1"><g transform="translate(249.983178, 106.380954)"><g><path d="M 7.609375 -77.125 C 7.609375 -77.582031 7.863281 -78.039062 8.375 -78.5 C 8.882812 -78.957031 9.367188 -79.1875 9.828125 -79.1875 C 10.285156 -79.1875 10.65625 -78.957031 10.9375 -78.5 L 11.078125 -78.09375 C 11.078125 -77.8125 11.078125 -77.578125 11.078125 -77.390625 C 11.078125 -73.972656 10.566406 -69.128906 9.546875 -62.859375 C 9.085938 -60.460938 8.257812 -59.265625 7.0625 -59.265625 C 6.414062 -59.265625 5.863281 -59.445312 5.40625 -59.8125 C 4.289062 -60.550781 3.734375 -61.335938 3.734375 -62.171875 C 3.734375 -62.898438 3.96875 -63.5 4.4375 -63.96875 C 5.082031 -64.800781 5.539062 -66.785156 5.8125 -69.921875 C 6.1875 -73.242188 6.554688 -75.085938 6.921875 -75.453125 C 7.378906 -75.921875 7.609375 -76.476562 7.609375 -77.125 Z M 7.609375 -77.125 "/></g></g></g><g fill="#010101" fill-opacity="1"><g transform="translate(264.380396, 106.380954)"><g><path d="M 10.109375 -58.28125 C 10.472656 -59.488281 10.835938 -60.179688 11.203125 -60.359375 C 11.578125 -60.546875 12.085938 -60.269531 12.734375 -59.53125 C 13.378906 -58.882812 13.65625 -57.59375 13.5625 -55.65625 L 13.5625 -54.40625 C 13.5625 -53.300781 13.816406 -52.5625 14.328125 -52.1875 C 14.835938 -51.820312 15.921875 -51.640625 17.578125 -51.640625 C 19.054688 -51.640625 20.304688 -51.6875 21.328125 -51.78125 L 27.28125 -52.203125 L 27.28125 -48.1875 L 23.671875 -47.765625 C 20.898438 -47.578125 18.914062 -47.484375 17.71875 -47.484375 C 16.613281 -47.484375 15.691406 -47.207031 14.953125 -46.65625 C 14.210938 -46.101562 13.84375 -45.457031 13.84375 -44.71875 C 13.84375 -44.445312 13.890625 -44.21875 13.984375 -44.03125 C 14.171875 -43.65625 14.445312 -41.945312 14.8125 -38.90625 C 15.09375 -36.6875 16.476562 -31.007812 18.96875 -21.875 C 19.613281 -19.65625 19.9375 -17.851562 19.9375 -16.46875 C 19.9375 -15.09375 19.472656 -14.40625 18.546875 -14.40625 L 18.28125 -14.40625 C 17.351562 -14.488281 16.335938 -16.425781 15.234375 -20.21875 C 12.273438 -29.164062 10.613281 -35.859375 10.25 -40.296875 C 10.0625 -44.078125 9.597656 -46.3125 8.859375 -47 C 8.117188 -47.695312 5.90625 -48.046875 2.21875 -48.046875 C -2.582031 -48.046875 -4.984375 -48.644531 -4.984375 -49.84375 L -4.984375 -50.125 C -4.890625 -50.21875 -4.84375 -50.304688 -4.84375 -50.390625 C -4.476562 -51.597656 -1.847656 -52.203125 3.046875 -52.203125 C 5.722656 -52.203125 7.453125 -52.363281 8.234375 -52.6875 C 9.023438 -53.007812 9.421875 -53.722656 9.421875 -54.828125 C 9.421875 -55.753906 9.648438 -56.90625 10.109375 -58.28125 Z M 10.109375 -58.28125 "/></g></g></g><g fill="#010101" fill-opacity="1"><g transform="translate(292.897964, 106.380954)"><g/></g></g><g fill="#010101" fill-opacity="1"><g transform="translate(317.816206, 106.380954)"><g><path d="M 25.890625 -88.890625 C 24.046875 -90.085938 22.84375 -90.6875 22.28125 -90.6875 C 21.726562 -90.6875 21.382812 -90.269531 21.25 -89.4375 C 21.113281 -88.601562 21.046875 -86.941406 21.046875 -84.453125 C 21.046875 -80.671875 21.738281 -76.007812 23.125 -70.46875 C 23.863281 -67.613281 24.644531 -64.707031 25.46875 -61.75 C 26.300781 -58.789062 27.132812 -55.609375 27.96875 -52.203125 C 29.445312 -46.566406 30.367188 -43.75 30.734375 -43.75 C 31.472656 -43.75 32.117188 -51.132812 32.671875 -65.90625 C 32.671875 -66.457031 32.691406 -67.238281 32.734375 -68.25 C 32.785156 -69.269531 32.8125 -70.007812 32.8125 -70.46875 C 32.8125 -75.632812 32.28125 -79.601562 31.21875 -82.375 C 30.15625 -85.144531 28.378906 -87.316406 25.890625 -88.890625 Z M 18.828125 -94.28125 C 19.472656 -94.925781 20.394531 -95.25 21.59375 -95.25 C 23.257812 -95.25 25.128906 -94.578125 27.203125 -93.234375 C 29.285156 -91.898438 31.015625 -90.175781 32.390625 -88.0625 C 33.960938 -85.5625 35.023438 -83.066406 35.578125 -80.578125 C 36.128906 -78.085938 36.40625 -74.628906 36.40625 -70.203125 C 36.40625 -56.265625 35.757812 -46.847656 34.46875 -41.953125 C 34.007812 -40.109375 33.78125 -39 33.78125 -38.625 C 33.78125 -38.164062 34.007812 -37.335938 34.46875 -36.140625 C 35.757812 -32.992188 38.300781 -28.46875 42.09375 -22.5625 C 43.75 -19.976562 44.578125 -18.410156 44.578125 -17.859375 C 44.578125 -17.578125 44.53125 -17.347656 44.4375 -17.171875 C 44.164062 -16.523438 43.707031 -16.203125 43.0625 -16.203125 C 42.039062 -16.203125 40.769531 -17.054688 39.25 -18.765625 C 37.726562 -20.472656 36.320312 -22.664062 35.03125 -25.34375 C 33.832031 -27.925781 32.863281 -29.21875 32.125 -29.21875 C 31.75 -29.21875 31.515625 -28.941406 31.421875 -28.390625 C 29.117188 -21.828125 26.488281 -16.492188 23.53125 -12.390625 C 20.582031 -8.285156 17.90625 -6.234375 15.5 -6.234375 C 13.101562 -6.234375 10.0625 -8.585938 6.375 -13.296875 C 4.707031 -15.503906 3.875 -17.300781 3.875 -18.6875 C 3.875 -19.707031 4.242188 -21.601562 4.984375 -24.375 C 6.273438 -29.257812 8.003906 -33.222656 10.171875 -36.265625 C 12.347656 -39.316406 14.445312 -40.84375 16.46875 -40.84375 C 17.488281 -40.84375 18.460938 -40.378906 19.390625 -39.453125 C 20.035156 -38.804688 20.359375 -38.300781 20.359375 -37.9375 C 20.359375 -37.289062 19.429688 -36.738281 17.578125 -36.28125 C 16.472656 -36.09375 15.617188 -35.765625 15.015625 -35.296875 C 14.421875 -34.835938 13.660156 -33.867188 12.734375 -32.390625 C 11.441406 -30.367188 10.335938 -27.554688 9.421875 -23.953125 L 8.3125 -19.109375 L 9.828125 -16.34375 C 11.578125 -13.289062 13.378906 -11.765625 15.234375 -11.765625 L 15.78125 -11.765625 C 17.164062 -12.140625 19.21875 -14.398438 21.9375 -18.546875 C 24.664062 -22.703125 26.816406 -26.90625 28.390625 -31.15625 L 29.90625 -35.171875 L 27.140625 -40.984375 C 25.109375 -45.503906 23.445312 -50.535156 22.15625 -56.078125 C 21.601562 -58.472656 20.929688 -61.078125 20.140625 -63.890625 C 19.359375 -66.710938 18.78125 -69.046875 18.40625 -70.890625 C 18.039062 -72.734375 17.628906 -75.269531 17.171875 -78.5 C 16.703125 -82.007812 16.46875 -84.269531 16.46875 -85.28125 C 16.46875 -86.488281 16.609375 -87.78125 16.890625 -89.15625 C 17.347656 -91.75 17.992188 -93.457031 18.828125 -94.28125 Z M 18.828125 -94.28125 "/></g></g></g><g fill="#010101" fill-opacity="1"><g transform="translate(359.346628, 106.380954)"><g><path d="M 24.78125 -44.03125 L 24.09375 -44.03125 C 21.6875 -44.03125 19.285156 -43.5 16.890625 -42.4375 C 14.492188 -41.375 13.109375 -40.242188 12.734375 -39.046875 C 12.546875 -38.117188 12.59375 -37.539062 12.875 -37.3125 C 13.15625 -37.082031 13.894531 -36.921875 15.09375 -36.828125 L 15.640625 -36.828125 C 17.953125 -36.828125 20.375 -37.472656 22.90625 -38.765625 C 25.445312 -40.054688 26.71875 -41.300781 26.71875 -42.5 C 26.71875 -43.519531 26.070312 -44.03125 24.78125 -44.03125 Z M 18.96875 -47.078125 C 21.738281 -47.898438 23.628906 -48.3125 24.640625 -48.3125 C 25.109375 -48.3125 25.894531 -48.128906 27 -47.765625 C 29.675781 -46.835938 31.015625 -45.175781 31.015625 -42.78125 C 31.015625 -40.476562 29.03125 -38.03125 25.0625 -35.4375 C 21.457031 -33.039062 17.765625 -31.84375 13.984375 -31.84375 C 12.960938 -31.84375 12.085938 -31.984375 11.359375 -32.265625 C 10.148438 -32.722656 9.363281 -32.953125 9 -32.953125 C 8.539062 -32.953125 8.3125 -32.398438 8.3125 -31.296875 C 8.3125 -29.535156 8.722656 -28.054688 9.546875 -26.859375 C 10.929688 -25.015625 13.609375 -23.375 17.578125 -21.9375 C 21.546875 -20.507812 25.285156 -19.796875 28.796875 -19.796875 C 30.828125 -19.796875 32.601562 -20.578125 34.125 -22.140625 C 35.644531 -23.710938 36.6875 -25.796875 37.25 -28.390625 C 37.519531 -29.398438 38.023438 -29.90625 38.765625 -29.90625 C 39.410156 -29.90625 40.054688 -29.535156 40.703125 -28.796875 C 41.441406 -28.054688 41.671875 -27.085938 41.390625 -25.890625 C 41.210938 -24.691406 40.128906 -23.03125 38.140625 -20.90625 C 36.160156 -18.78125 34.429688 -17.347656 32.953125 -16.609375 C 31.660156 -16.054688 30.046875 -15.78125 28.109375 -15.78125 C 22.847656 -15.78125 17.351562 -17.257812 11.625 -20.21875 C 6.457031 -22.613281 3.875 -25.890625 3.875 -30.046875 C 3.875 -30.878906 4.015625 -31.707031 4.296875 -32.53125 C 5.398438 -36.40625 7.109375 -39.546875 9.421875 -41.953125 C 11.359375 -44.171875 14.539062 -45.878906 18.96875 -47.078125 Z M 18.96875 -47.078125 "/></g></g></g><g fill="#010101" fill-opacity="1"><g transform="translate(400.184869, 106.380954)"><g><path d="M 9.828125 -44.859375 C 10.753906 -45.316406 11.910156 -45.546875 13.296875 -45.546875 C 15.878906 -45.546875 17.171875 -44.671875 17.171875 -42.921875 C 17.171875 -41.628906 16.429688 -40.984375 14.953125 -40.984375 C 14.492188 -40.984375 13.988281 -41.164062 13.4375 -41.53125 C 13.15625 -41.8125 12.828125 -41.953125 12.453125 -41.953125 C 11.441406 -41.953125 10.425781 -41.003906 9.40625 -39.109375 C 8.394531 -37.222656 7.890625 -35.304688 7.890625 -33.359375 C 7.890625 -30.867188 8.722656 -29.253906 10.390625 -28.515625 C 10.941406 -28.335938 11.304688 -28.25 11.484375 -28.25 C 12.222656 -28.25 13.75 -29.03125 16.0625 -30.59375 C 19.65625 -32.90625 22.054688 -34.0625 23.265625 -34.0625 C 24.179688 -34.0625 25.148438 -33.875 26.171875 -33.5 C 28.378906 -32.851562 30.707031 -31.789062 33.15625 -30.3125 C 35.601562 -28.84375 36.921875 -27.691406 37.109375 -26.859375 C 37.203125 -26.578125 37.25 -26.160156 37.25 -25.609375 C 37.25 -23.304688 35.675781 -21.140625 32.53125 -19.109375 C 30.226562 -17.535156 28.472656 -16.539062 27.265625 -16.125 C 26.066406 -15.707031 23.804688 -15.316406 20.484375 -14.953125 C 18.273438 -14.671875 16.707031 -14.53125 15.78125 -14.53125 C 14.863281 -14.53125 13.941406 -14.765625 13.015625 -15.234375 C 11.910156 -15.878906 11.398438 -16.707031 11.484375 -17.71875 C 11.578125 -18.457031 11.738281 -18.921875 11.96875 -19.109375 C 12.207031 -19.296875 12.695312 -19.34375 13.4375 -19.25 C 16.019531 -19.0625 17.632812 -18.96875 18.28125 -18.96875 C 20.863281 -18.96875 23.492188 -19.566406 26.171875 -20.765625 C 28.203125 -21.691406 29.953125 -22.660156 31.421875 -23.671875 C 32.066406 -24.316406 32.390625 -24.78125 32.390625 -25.0625 C 32.390625 -25.800781 30.726562 -26.953125 27.40625 -28.515625 L 23.40625 -30.453125 L 18.140625 -27.40625 C 14.171875 -25.101562 11.304688 -23.953125 9.546875 -23.953125 C 7.984375 -23.953125 6.738281 -24.828125 5.8125 -26.578125 C 4.519531 -29.347656 3.875 -32.300781 3.875 -35.4375 C 3.875 -35.90625 3.96875 -36.484375 4.15625 -37.171875 C 4.34375 -37.867188 4.4375 -38.351562 4.4375 -38.625 C 4.613281 -39.644531 5.28125 -40.820312 6.4375 -42.15625 C 7.59375 -43.5 8.722656 -44.398438 9.828125 -44.859375 Z M 9.828125 -44.859375 "/></g></g></g><g fill="#010101" fill-opacity="1"><g transform="translate(437.285394, 106.380954)"><g><path d="M 8.03125 -40.015625 C 8.394531 -41.023438 8.878906 -41.691406 9.484375 -42.015625 C 10.085938 -42.335938 10.570312 -42.175781 10.9375 -41.53125 C 11.125 -41.164062 11.445312 -39.550781 11.90625 -36.6875 C 12.363281 -33.738281 12.960938 -31.753906 13.703125 -30.734375 C 14.441406 -29.722656 14.953125 -27.878906 15.234375 -25.203125 C 15.328125 -24.460938 15.375 -23.675781 15.375 -22.84375 C 15.375 -21.832031 14.726562 -20.679688 13.4375 -19.390625 C 12.050781 -18.003906 11.171875 -17.3125 10.796875 -17.3125 C 10.148438 -17.3125 9.828125 -17.863281 9.828125 -18.96875 C 9.828125 -19.800781 10.015625 -20.585938 10.390625 -21.328125 C 10.941406 -22.429688 11.21875 -23.535156 11.21875 -24.640625 C 11.21875 -26.210938 10.753906 -27.785156 9.828125 -29.359375 C 8.253906 -32.023438 7.46875 -34.609375 7.46875 -37.109375 C 7.46875 -38.304688 7.65625 -39.273438 8.03125 -40.015625 Z M -1.515625 -66.875 C -0.785156 -67.789062 0.222656 -68.25 1.515625 -68.25 C 2.535156 -68.25 3.046875 -67.882812 3.046875 -67.15625 C 3.046875 -66.59375 3.832031 -65.53125 5.40625 -63.96875 C 6.507812 -62.945312 7.109375 -62.273438 7.203125 -61.953125 C 7.296875 -61.628906 7.109375 -61.285156 6.640625 -60.921875 C 5.898438 -60.179688 4.929688 -59.71875 3.734375 -59.53125 C 2.441406 -59.351562 1.335938 -59.722656 0.421875 -60.640625 L -1.109375 -62.171875 L -1.109375 -60.234375 C -1.109375 -58.285156 -0.234375 -57.3125 1.515625 -57.3125 C 1.890625 -57.3125 2.722656 -57.40625 4.015625 -57.59375 C 6.316406 -57.96875 7.882812 -58.707031 8.71875 -59.8125 C 9.363281 -60.550781 9.800781 -60.941406 10.03125 -60.984375 C 10.269531 -61.035156 10.570312 -60.785156 10.9375 -60.234375 C 11.488281 -59.585938 11.765625 -58.707031 11.765625 -57.59375 C 11.765625 -56.851562 11.628906 -56.300781 11.359375 -55.9375 C 10.984375 -55.382812 10.054688 -54.804688 8.578125 -54.203125 C 7.109375 -53.597656 5.585938 -53.207031 4.015625 -53.03125 C 3.554688 -52.9375 2.957031 -52.890625 2.21875 -52.890625 C -0.457031 -52.890625 -2.628906 -53.8125 -4.296875 -55.65625 C -5.398438 -56.757812 -5.953125 -57.914062 -5.953125 -59.125 C -5.953125 -60.96875 -4.472656 -63.550781 -1.515625 -66.875 Z M -1.515625 -66.875 "/></g></g></g><g fill="#010101" fill-opacity="1"><g transform="translate(456.112509, 106.380954)"><g><path d="M 10.25 -43.203125 C 12.738281 -45.046875 14.125 -45.96875 14.40625 -45.96875 C 14.863281 -45.96875 15.53125 -45.457031 16.40625 -44.4375 C 17.28125 -43.425781 17.71875 -42.691406 17.71875 -42.234375 C 17.71875 -41.210938 15.921875 -39.503906 12.328125 -37.109375 C 9.460938 -35.441406 8.03125 -34.148438 8.03125 -33.234375 C 8.03125 -32.585938 8.488281 -31.570312 9.40625 -30.1875 C 10.332031 -28.800781 11.210938 -27.832031 12.046875 -27.28125 C 12.785156 -26.71875 13.429688 -26.4375 13.984375 -26.4375 C 14.816406 -26.4375 16.25 -27.175781 18.28125 -28.65625 C 21.96875 -31.238281 24.476562 -32.898438 25.8125 -33.640625 C 27.15625 -34.378906 28.519531 -34.75 29.90625 -34.75 C 32.945312 -34.75 35.253906 -33.875 36.828125 -32.125 C 37.378906 -31.476562 38.300781 -29.304688 39.59375 -25.609375 C 40.882812 -21.921875 41.53125 -19.613281 41.53125 -18.6875 C 41.53125 -18.039062 41.851562 -16.84375 42.5 -15.09375 C 42.96875 -14.070312 43.203125 -12.316406 43.203125 -9.828125 C 43.203125 -6.316406 42.691406 -3.410156 41.671875 -1.109375 C 40.378906 1.660156 38.394531 3.921875 35.71875 5.671875 C 33.039062 7.429688 30.132812 8.3125 27 8.3125 C 24.78125 8.3125 21.921875 7.382812 18.421875 5.53125 C 15.460938 3.96875 13.472656 2.609375 12.453125 1.453125 C 11.441406 0.296875 10.9375 -1.203125 10.9375 -3.046875 C 10.9375 -4.890625 11.90625 -7.101562 13.84375 -9.6875 C 15.507812 -11.8125 16.894531 -13.265625 18 -14.046875 C 19.101562 -14.835938 20.945312 -15.691406 23.53125 -16.609375 C 26.300781 -17.535156 28.148438 -18 29.078125 -18 C 30.085938 -18 30.960938 -17.628906 31.703125 -16.890625 C 32.347656 -16.242188 32.671875 -15.644531 32.671875 -15.09375 C 32.671875 -14.070312 31.242188 -13.425781 28.390625 -13.15625 C 25.710938 -12.96875 23.632812 -12.457031 22.15625 -11.625 C 21.039062 -11.070312 19.445312 -9.617188 17.375 -7.265625 C 15.300781 -4.910156 14.265625 -3.410156 14.265625 -2.765625 C 14.265625 -1.566406 15.460938 -0.1875 17.859375 1.375 C 20.253906 2.945312 22.75 3.921875 25.34375 4.296875 C 25.800781 4.390625 26.488281 4.4375 27.40625 4.4375 C 29.257812 4.4375 31.335938 3.460938 33.640625 1.515625 C 35.023438 0.503906 35.945312 -0.367188 36.40625 -1.109375 C 36.875 -1.847656 37.382812 -3.09375 37.9375 -4.84375 L 39.328125 -8.859375 L 36.828125 -18.546875 C 35.628906 -23.347656 34.707031 -26.507812 34.0625 -28.03125 C 33.414062 -29.5625 32.535156 -30.507812 31.421875 -30.875 L 31.15625 -30.875 C 30.226562 -30.875 28.398438 -30.132812 25.671875 -28.65625 C 22.953125 -27.175781 20.578125 -25.65625 18.546875 -24.09375 C 16.609375 -22.519531 15.226562 -21.734375 14.40625 -21.734375 C 13.84375 -21.734375 13.425781 -21.78125 13.15625 -21.875 C 11.769531 -22.15625 10.015625 -23.351562 7.890625 -25.46875 C 5.765625 -27.59375 4.519531 -29.441406 4.15625 -31.015625 C 3.875 -31.929688 3.734375 -32.804688 3.734375 -33.640625 C 3.734375 -36.597656 5.90625 -39.785156 10.25 -43.203125 Z M 10.25 -43.203125 "/></g></g></g><g fill="#010101" fill-opacity="1"><g transform="translate(500.27321, 106.380954)"><g><path d="M 15.78125 -44.4375 C 16.707031 -44.90625 17.628906 -45.140625 18.546875 -45.140625 C 21.691406 -45.140625 23.957031 -44.03125 25.34375 -41.8125 C 25.988281 -40.882812 26.3125 -36.5 26.3125 -28.65625 C 26.3125 -21.363281 26.125 -17.347656 25.75 -16.609375 C 25.476562 -16.148438 24.972656 -15.988281 24.234375 -16.125 C 23.492188 -16.269531 23.03125 -16.617188 22.84375 -17.171875 C 22.65625 -17.535156 22.472656 -21.410156 22.296875 -28.796875 C 22.109375 -35.722656 21.785156 -39.507812 21.328125 -40.15625 C 20.953125 -40.707031 20.300781 -40.984375 19.375 -40.984375 C 18.457031 -40.984375 17.582031 -40.679688 16.75 -40.078125 C 15.914062 -39.484375 15.5 -38.769531 15.5 -37.9375 C 15.5 -37.195312 15.316406 -36.734375 14.953125 -36.546875 C 14.304688 -35.898438 12.828125 -31.75 10.515625 -24.09375 C 9.316406 -19.9375 7.9375 -17.859375 6.375 -17.859375 C 4.707031 -17.859375 3.875 -18.644531 3.875 -20.21875 C 3.875 -21.132812 3.96875 -21.867188 4.15625 -22.421875 C 4.519531 -23.804688 4.703125 -26.71875 4.703125 -31.15625 L 4.703125 -33.234375 C 4.703125 -37.378906 5.210938 -39.773438 6.234375 -40.421875 C 7.710938 -41.441406 8.453125 -40.890625 8.453125 -38.765625 C 8.453125 -37.109375 8.585938 -35.863281 8.859375 -35.03125 L 9.28125 -33.5 L 10.25 -35.03125 C 11.257812 -37.15625 11.90625 -38.539062 12.1875 -39.1875 C 13.289062 -41.945312 14.488281 -43.695312 15.78125 -44.4375 Z M 15.78125 -44.4375 "/></g></g></g><g fill="#010101" fill-opacity="1"><g transform="translate(529.482902, 106.380954)"><g/></g></g><g fill="#010101" fill-opacity="1"><g transform="translate(554.401144, 106.380954)"><g><path d="M 48.59375 -47.90625 C 49.425781 -48.832031 50.394531 -49.25 51.5 -49.15625 C 52.789062 -48.96875 53.4375 -48.503906 53.4375 -47.765625 C 53.4375 -46.835938 52.378906 -44.945312 50.265625 -42.09375 C 48.046875 -39.226562 45.875 -35.648438 43.75 -31.359375 C 41.625 -27.066406 40.5625 -24.132812 40.5625 -22.5625 C 40.5625 -21.457031 40.125 -19.519531 39.25 -16.75 C 38.375 -13.976562 37.613281 -12.222656 36.96875 -11.484375 C 36.507812 -10.929688 35.957031 -10.65625 35.3125 -10.65625 C 34.101562 -10.65625 32.207031 -11.90625 29.625 -14.40625 C 26.851562 -17.257812 24.820312 -19.425781 23.53125 -20.90625 C 21.96875 -22.84375 20.953125 -23.8125 20.484375 -23.8125 C 19.753906 -23.8125 18.785156 -22.660156 17.578125 -20.359375 C 16.191406 -17.679688 14.851562 -16.34375 13.5625 -16.34375 C 12.550781 -16.34375 11.351562 -17.078125 9.96875 -18.546875 C 9.039062 -19.472656 8.1875 -21.179688 7.40625 -23.671875 C 6.625 -26.160156 6.234375 -28.332031 6.234375 -30.1875 C 6.234375 -32.300781 5.816406 -34.191406 4.984375 -35.859375 C 4.054688 -37.609375 3.960938 -38.851562 4.703125 -39.59375 C 5.171875 -40.0625 5.679688 -40.296875 6.234375 -40.296875 C 7.710938 -40.296875 8.726562 -39.046875 9.28125 -36.546875 C 9.550781 -35.628906 9.847656 -34.890625 10.171875 -34.328125 C 10.492188 -33.773438 10.722656 -33.242188 10.859375 -32.734375 C 11.003906 -32.234375 11.078125 -31.289062 11.078125 -29.90625 C 11.078125 -27.96875 11.257812 -26.191406 11.625 -24.578125 C 12 -22.960938 12.414062 -22.15625 12.875 -22.15625 L 13.015625 -22.15625 C 13.941406 -22.519531 15.28125 -24.410156 17.03125 -27.828125 C 17.769531 -29.117188 18.507812 -29.765625 19.25 -29.765625 C 20.445312 -29.765625 22.195312 -28.613281 24.5 -26.3125 C 26.53125 -24.28125 28.5625 -22.0625 30.59375 -19.65625 C 32.164062 -17.8125 33.414062 -16.890625 34.34375 -16.890625 C 34.988281 -16.890625 35.3125 -17.351562 35.3125 -18.28125 C 35.3125 -19.019531 35.816406 -20.398438 36.828125 -22.421875 C 37.753906 -24.453125 38.21875 -26.023438 38.21875 -27.140625 C 38.21875 -28.796875 39.484375 -32.140625 42.015625 -37.171875 C 44.554688 -42.203125 46.75 -45.78125 48.59375 -47.90625 Z M 48.59375 -47.90625 "/></g></g></g><g fill="#010101" fill-opacity="1"><g transform="translate(602.576426, 106.380954)"><g><path d="M 24.78125 -44.03125 L 24.09375 -44.03125 C 21.6875 -44.03125 19.285156 -43.5 16.890625 -42.4375 C 14.492188 -41.375 13.109375 -40.242188 12.734375 -39.046875 C 12.546875 -38.117188 12.59375 -37.539062 12.875 -37.3125 C 13.15625 -37.082031 13.894531 -36.921875 15.09375 -36.828125 L 15.640625 -36.828125 C 17.953125 -36.828125 20.375 -37.472656 22.90625 -38.765625 C 25.445312 -40.054688 26.71875 -41.300781 26.71875 -42.5 C 26.71875 -43.519531 26.070312 -44.03125 24.78125 -44.03125 Z M 18.96875 -47.078125 C 21.738281 -47.898438 23.628906 -48.3125 24.640625 -48.3125 C 25.109375 -48.3125 25.894531 -48.128906 27 -47.765625 C 29.675781 -46.835938 31.015625 -45.175781 31.015625 -42.78125 C 31.015625 -40.476562 29.03125 -38.03125 25.0625 -35.4375 C 21.457031 -33.039062 17.765625 -31.84375 13.984375 -31.84375 C 12.960938 -31.84375 12.085938 -31.984375 11.359375 -32.265625 C 10.148438 -32.722656 9.363281 -32.953125 9 -32.953125 C 8.539062 -32.953125 8.3125 -32.398438 8.3125 -31.296875 C 8.3125 -29.535156 8.722656 -28.054688 9.546875 -26.859375 C 10.929688 -25.015625 13.609375 -23.375 17.578125 -21.9375 C 21.546875 -20.507812 25.285156 -19.796875 28.796875 -19.796875 C 30.828125 -19.796875 32.601562 -20.578125 34.125 -22.140625 C 35.644531 -23.710938 36.6875 -25.796875 37.25 -28.390625 C 37.519531 -29.398438 38.023438 -29.90625 38.765625 -29.90625 C 39.410156 -29.90625 40.054688 -29.535156 40.703125 -28.796875 C 41.441406 -28.054688 41.671875 -27.085938 41.390625 -25.890625 C 41.210938 -24.691406 40.128906 -23.03125 38.140625 -20.90625 C 36.160156 -18.78125 34.429688 -17.347656 32.953125 -16.609375 C 31.660156 -16.054688 30.046875 -15.78125 28.109375 -15.78125 C 22.847656 -15.78125 17.351562 -17.257812 11.625 -20.21875 C 6.457031 -22.613281 3.875 -25.890625 3.875 -30.046875 C 3.875 -30.878906 4.015625 -31.707031 4.296875 -32.53125 C 5.398438 -36.40625 7.109375 -39.546875 9.421875 -41.953125 C 11.359375 -44.171875 14.539062 -45.878906 18.96875 -47.078125 Z M 18.96875 -47.078125 "/></g></g></g><g fill="#010101" fill-opacity="1"><g transform="translate(643.414696, 106.380954)"><g><path d="M 7.890625 -87.21875 C 8.171875 -87.957031 8.863281 -88.328125 9.96875 -88.328125 C 11.625 -88.328125 12.734375 -87.820312 13.296875 -86.8125 C 13.660156 -86.351562 13.84375 -85.796875 13.84375 -85.140625 C 13.84375 -84.492188 13.519531 -83.203125 12.875 -81.265625 C 12.132812 -79.054688 11.441406 -77.03125 10.796875 -75.1875 C 9.503906 -72.039062 8.859375 -66.363281 8.859375 -58.15625 C 8.859375 -52.707031 9.226562 -47.535156 9.96875 -42.640625 C 11.351562 -34.609375 13.382812 -29.070312 16.0625 -26.03125 C 18.550781 -23.164062 21.96875 -21.410156 26.3125 -20.765625 C 27.132812 -20.578125 28.191406 -20.484375 29.484375 -20.484375 C 30.773438 -20.484375 31.722656 -20.738281 32.328125 -21.25 C 32.929688 -21.757812 33.367188 -22.660156 33.640625 -23.953125 C 33.921875 -24.878906 34.0625 -26.492188 34.0625 -28.796875 C 34.0625 -33.867188 33.738281 -37.050781 33.09375 -38.34375 C 31.894531 -40.65625 30.601562 -41.8125 29.21875 -41.8125 C 28.195312 -41.8125 26.601562 -41.375 24.4375 -40.5 C 22.269531 -39.625 20.722656 -38.769531 19.796875 -37.9375 C 18.878906 -37.007812 17.910156 -36.546875 16.890625 -36.546875 C 16.335938 -36.546875 15.921875 -36.734375 15.640625 -37.109375 C 15.367188 -37.566406 15.691406 -38.582031 16.609375 -40.15625 C 17.253906 -41.257812 17.96875 -42.085938 18.75 -42.640625 C 19.539062 -43.191406 21.273438 -43.976562 23.953125 -45 C 28.566406 -46.75 31.566406 -47.625 32.953125 -47.625 C 33.597656 -47.625 34.015625 -47.53125 34.203125 -47.34375 C 34.941406 -46.789062 35.796875 -44.644531 36.765625 -40.90625 C 37.734375 -37.175781 38.257812 -33.691406 38.34375 -30.453125 C 38.4375 -29.628906 38.484375 -28.476562 38.484375 -27 C 38.484375 -24.601562 38.226562 -22.78125 37.71875 -21.53125 C 37.21875 -20.28125 36.226562 -19.007812 34.75 -17.71875 C 33.363281 -16.425781 32.210938 -15.78125 31.296875 -15.78125 C 30.648438 -15.78125 30.09375 -15.828125 29.625 -15.921875 C 27.59375 -16.285156 25.882812 -16.46875 24.5 -16.46875 C 22.9375 -16.46875 20.863281 -17.117188 18.28125 -18.421875 C 14.125 -20.441406 10.847656 -24.175781 8.453125 -29.625 C 7.523438 -31.65625 6.550781 -35.625 5.53125 -41.53125 C 4.519531 -47.4375 4.015625 -52.050781 4.015625 -55.375 C 4.015625 -60.550781 4.40625 -65.722656 5.1875 -70.890625 C 5.976562 -76.054688 6.832031 -79.191406 7.75 -80.296875 C 7.9375 -80.484375 8.03125 -80.945312 8.03125 -81.6875 C 8.03125 -82.144531 7.984375 -82.90625 7.890625 -83.96875 C 7.796875 -85.03125 7.75 -85.75 7.75 -86.125 C 7.75 -86.675781 7.796875 -87.039062 7.890625 -87.21875 Z M 7.890625 -87.21875 "/></g></g></g><g fill="#010101" fill-opacity="1"><g transform="translate(684.8067, 106.380954)"><g><path d="M 9.828125 -44.859375 C 10.753906 -45.316406 11.910156 -45.546875 13.296875 -45.546875 C 15.878906 -45.546875 17.171875 -44.671875 17.171875 -42.921875 C 17.171875 -41.628906 16.429688 -40.984375 14.953125 -40.984375 C 14.492188 -40.984375 13.988281 -41.164062 13.4375 -41.53125 C 13.15625 -41.8125 12.828125 -41.953125 12.453125 -41.953125 C 11.441406 -41.953125 10.425781 -41.003906 9.40625 -39.109375 C 8.394531 -37.222656 7.890625 -35.304688 7.890625 -33.359375 C 7.890625 -30.867188 8.722656 -29.253906 10.390625 -28.515625 C 10.941406 -28.335938 11.304688 -28.25 11.484375 -28.25 C 12.222656 -28.25 13.75 -29.03125 16.0625 -30.59375 C 19.65625 -32.90625 22.054688 -34.0625 23.265625 -34.0625 C 24.179688 -34.0625 25.148438 -33.875 26.171875 -33.5 C 28.378906 -32.851562 30.707031 -31.789062 33.15625 -30.3125 C 35.601562 -28.84375 36.921875 -27.691406 37.109375 -26.859375 C 37.203125 -26.578125 37.25 -26.160156 37.25 -25.609375 C 37.25 -23.304688 35.675781 -21.140625 32.53125 -19.109375 C 30.226562 -17.535156 28.472656 -16.539062 27.265625 -16.125 C 26.066406 -15.707031 23.804688 -15.316406 20.484375 -14.953125 C 18.273438 -14.671875 16.707031 -14.53125 15.78125 -14.53125 C 14.863281 -14.53125 13.941406 -14.765625 13.015625 -15.234375 C 11.910156 -15.878906 11.398438 -16.707031 11.484375 -17.71875 C 11.578125 -18.457031 11.738281 -18.921875 11.96875 -19.109375 C 12.207031 -19.296875 12.695312 -19.34375 13.4375 -19.25 C 16.019531 -19.0625 17.632812 -18.96875 18.28125 -18.96875 C 20.863281 -18.96875 23.492188 -19.566406 26.171875 -20.765625 C 28.203125 -21.691406 29.953125 -22.660156 31.421875 -23.671875 C 32.066406 -24.316406 32.390625 -24.78125 32.390625 -25.0625 C 32.390625 -25.800781 30.726562 -26.953125 27.40625 -28.515625 L 23.40625 -30.453125 L 18.140625 -27.40625 C 14.171875 -25.101562 11.304688 -23.953125 9.546875 -23.953125 C 7.984375 -23.953125 6.738281 -24.828125 5.8125 -26.578125 C 4.519531 -29.347656 3.875 -32.300781 3.875 -35.4375 C 3.875 -35.90625 3.96875 -36.484375 4.15625 -37.171875 C 4.34375 -37.867188 4.4375 -38.351562 4.4375 -38.625 C 4.613281 -39.644531 5.28125 -40.820312 6.4375 -42.15625 C 7.59375 -43.5 8.722656 -44.398438 9.828125 -44.859375 Z M 9.828125 -44.859375 "/></g></g></g><g fill="#010101" fill-opacity="1"><g transform="translate(721.907196, 106.380954)"><g><path d="M 8.03125 -40.015625 C 8.394531 -41.023438 8.878906 -41.691406 9.484375 -42.015625 C 10.085938 -42.335938 10.570312 -42.175781 10.9375 -41.53125 C 11.125 -41.164062 11.445312 -39.550781 11.90625 -36.6875 C 12.363281 -33.738281 12.960938 -31.753906 13.703125 -30.734375 C 14.441406 -29.722656 14.953125 -27.878906 15.234375 -25.203125 C 15.328125 -24.460938 15.375 -23.675781 15.375 -22.84375 C 15.375 -21.832031 14.726562 -20.679688 13.4375 -19.390625 C 12.050781 -18.003906 11.171875 -17.3125 10.796875 -17.3125 C 10.148438 -17.3125 9.828125 -17.863281 9.828125 -18.96875 C 9.828125 -19.800781 10.015625 -20.585938 10.390625 -21.328125 C 10.941406 -22.429688 11.21875 -23.535156 11.21875 -24.640625 C 11.21875 -26.210938 10.753906 -27.785156 9.828125 -29.359375 C 8.253906 -32.023438 7.46875 -34.609375 7.46875 -37.109375 C 7.46875 -38.304688 7.65625 -39.273438 8.03125 -40.015625 Z M -1.515625 -66.875 C -0.785156 -67.789062 0.222656 -68.25 1.515625 -68.25 C 2.535156 -68.25 3.046875 -67.882812 3.046875 -67.15625 C 3.046875 -66.59375 3.832031 -65.53125 5.40625 -63.96875 C 6.507812 -62.945312 7.109375 -62.273438 7.203125 -61.953125 C 7.296875 -61.628906 7.109375 -61.285156 6.640625 -60.921875 C 5.898438 -60.179688 4.929688 -59.71875 3.734375 -59.53125 C 2.441406 -59.351562 1.335938 -59.722656 0.421875 -60.640625 L -1.109375 -62.171875 L -1.109375 -60.234375 C -1.109375 -58.285156 -0.234375 -57.3125 1.515625 -57.3125 C 1.890625 -57.3125 2.722656 -57.40625 4.015625 -57.59375 C 6.316406 -57.96875 7.882812 -58.707031 8.71875 -59.8125 C 9.363281 -60.550781 9.800781 -60.941406 10.03125 -60.984375 C 10.269531 -61.035156 10.570312 -60.785156 10.9375 -60.234375 C 11.488281 -59.585938 11.765625 -58.707031 11.765625 -57.59375 C 11.765625 -56.851562 11.628906 -56.300781 11.359375 -55.9375 C 10.984375 -55.382812 10.054688 -54.804688 8.578125 -54.203125 C 7.109375 -53.597656 5.585938 -53.207031 4.015625 -53.03125 C 3.554688 -52.9375 2.957031 -52.890625 2.21875 -52.890625 C -0.457031 -52.890625 -2.628906 -53.8125 -4.296875 -55.65625 C -5.398438 -56.757812 -5.953125 -57.914062 -5.953125 -59.125 C -5.953125 -60.96875 -4.472656 -63.550781 -1.515625 -66.875 Z M -1.515625 -66.875 "/></g></g></g><g fill="#010101" fill-opacity="1"><g transform="translate(740.734311, 106.380954)"><g><path d="M 10.109375 -58.28125 C 10.472656 -59.488281 10.835938 -60.179688 11.203125 -60.359375 C 11.578125 -60.546875 12.085938 -60.269531 12.734375 -59.53125 C 13.378906 -58.882812 13.65625 -57.59375 13.5625 -55.65625 L 13.5625 -54.40625 C 13.5625 -53.300781 13.816406 -52.5625 14.328125 -52.1875 C 14.835938 -51.820312 15.921875 -51.640625 17.578125 -51.640625 C 19.054688 -51.640625 20.304688 -51.6875 21.328125 -51.78125 L 27.28125 -52.203125 L 27.28125 -48.1875 L 23.671875 -47.765625 C 20.898438 -47.578125 18.914062 -47.484375 17.71875 -47.484375 C 16.613281 -47.484375 15.691406 -47.207031 14.953125 -46.65625 C 14.210938 -46.101562 13.84375 -45.457031 13.84375 -44.71875 C 13.84375 -44.445312 13.890625 -44.21875 13.984375 -44.03125 C 14.171875 -43.65625 14.445312 -41.945312 14.8125 -38.90625 C 15.09375 -36.6875 16.476562 -31.007812 18.96875 -21.875 C 19.613281 -19.65625 19.9375 -17.851562 19.9375 -16.46875 C 19.9375 -15.09375 19.472656 -14.40625 18.546875 -14.40625 L 18.28125 -14.40625 C 17.351562 -14.488281 16.335938 -16.425781 15.234375 -20.21875 C 12.273438 -29.164062 10.613281 -35.859375 10.25 -40.296875 C 10.0625 -44.078125 9.597656 -46.3125 8.859375 -47 C 8.117188 -47.695312 5.90625 -48.046875 2.21875 -48.046875 C -2.582031 -48.046875 -4.984375 -48.644531 -4.984375 -49.84375 L -4.984375 -50.125 C -4.890625 -50.21875 -4.84375 -50.304688 -4.84375 -50.390625 C -4.476562 -51.597656 -1.847656 -52.203125 3.046875 -52.203125 C 5.722656 -52.203125 7.453125 -52.363281 8.234375 -52.6875 C 9.023438 -53.007812 9.421875 -53.722656 9.421875 -54.828125 C 9.421875 -55.753906 9.648438 -56.90625 10.109375 -58.28125 Z M 10.109375 -58.28125 "/></g></g></g><g fill="#010101" fill-opacity="1"><g transform="translate(769.25185, 106.380954)"><g><path d="M 24.78125 -44.03125 L 24.09375 -44.03125 C 21.6875 -44.03125 19.285156 -43.5 16.890625 -42.4375 C 14.492188 -41.375 13.109375 -40.242188 12.734375 -39.046875 C 12.546875 -38.117188 12.59375 -37.539062 12.875 -37.3125 C 13.15625 -37.082031 13.894531 -36.921875 15.09375 -36.828125 L 15.640625 -36.828125 C 17.953125 -36.828125 20.375 -37.472656 22.90625 -38.765625 C 25.445312 -40.054688 26.71875 -41.300781 26.71875 -42.5 C 26.71875 -43.519531 26.070312 -44.03125 24.78125 -44.03125 Z M 18.96875 -47.078125 C 21.738281 -47.898438 23.628906 -48.3125 24.640625 -48.3125 C 25.109375 -48.3125 25.894531 -48.128906 27 -47.765625 C 29.675781 -46.835938 31.015625 -45.175781 31.015625 -42.78125 C 31.015625 -40.476562 29.03125 -38.03125 25.0625 -35.4375 C 21.457031 -33.039062 17.765625 -31.84375 13.984375 -31.84375 C 12.960938 -31.84375 12.085938 -31.984375 11.359375 -32.265625 C 10.148438 -32.722656 9.363281 -32.953125 9 -32.953125 C 8.539062 -32.953125 8.3125 -32.398438 8.3125 -31.296875 C 8.3125 -29.535156 8.722656 -28.054688 9.546875 -26.859375 C 10.929688 -25.015625 13.609375 -23.375 17.578125 -21.9375 C 21.546875 -20.507812 25.285156 -19.796875 28.796875 -19.796875 C 30.828125 -19.796875 32.601562 -20.578125 34.125 -22.140625 C 35.644531 -23.710938 36.6875 -25.796875 37.25 -28.390625 C 37.519531 -29.398438 38.023438 -29.90625 38.765625 -29.90625 C 39.410156 -29.90625 40.054688 -29.535156 40.703125 -28.796875 C 41.441406 -28.054688 41.671875 -27.085938 41.390625 -25.890625 C 41.210938 -24.691406 40.128906 -23.03125 38.140625 -20.90625 C 36.160156 -18.78125 34.429688 -17.347656 32.953125 -16.609375 C 31.660156 -16.054688 30.046875 -15.78125 28.109375 -15.78125 C 22.847656 -15.78125 17.351562 -17.257812 11.625 -20.21875 C 6.457031 -22.613281 3.875 -25.890625 3.875 -30.046875 C 3.875 -30.878906 4.015625 -31.707031 4.296875 -32.53125 C 5.398438 -36.40625 7.109375 -39.546875 9.421875 -41.953125 C 11.359375 -44.171875 14.539062 -45.878906 18.96875 -47.078125 Z M 18.96875 -47.078125 "/></g></g></g><g fill="#010101" fill-opacity="1"><g transform="translate(810.09012, 106.380954)"><g><path d="M 9.828125 -44.859375 C 10.753906 -45.316406 11.910156 -45.546875 13.296875 -45.546875 C 15.878906 -45.546875 17.171875 -44.671875 17.171875 -42.921875 C 17.171875 -41.628906 16.429688 -40.984375 14.953125 -40.984375 C 14.492188 -40.984375 13.988281 -41.164062 13.4375 -41.53125 C 13.15625 -41.8125 12.828125 -41.953125 12.453125 -41.953125 C 11.441406 -41.953125 10.425781 -41.003906 9.40625 -39.109375 C 8.394531 -37.222656 7.890625 -35.304688 7.890625 -33.359375 C 7.890625 -30.867188 8.722656 -29.253906 10.390625 -28.515625 C 10.941406 -28.335938 11.304688 -28.25 11.484375 -28.25 C 12.222656 -28.25 13.75 -29.03125 16.0625 -30.59375 C 19.65625 -32.90625 22.054688 -34.0625 23.265625 -34.0625 C 24.179688 -34.0625 25.148438 -33.875 26.171875 -33.5 C 28.378906 -32.851562 30.707031 -31.789062 33.15625 -30.3125 C 35.601562 -28.84375 36.921875 -27.691406 37.109375 -26.859375 C 37.203125 -26.578125 37.25 -26.160156 37.25 -25.609375 C 37.25 -23.304688 35.675781 -21.140625 32.53125 -19.109375 C 30.226562 -17.535156 28.472656 -16.539062 27.265625 -16.125 C 26.066406 -15.707031 23.804688 -15.316406 20.484375 -14.953125 C 18.273438 -14.671875 16.707031 -14.53125 15.78125 -14.53125 C 14.863281 -14.53125 13.941406 -14.765625 13.015625 -15.234375 C 11.910156 -15.878906 11.398438 -16.707031 11.484375 -17.71875 C 11.578125 -18.457031 11.738281 -18.921875 11.96875 -19.109375 C 12.207031 -19.296875 12.695312 -19.34375 13.4375 -19.25 C 16.019531 -19.0625 17.632812 -18.96875 18.28125 -18.96875 C 20.863281 -18.96875 23.492188 -19.566406 26.171875 -20.765625 C 28.203125 -21.691406 29.953125 -22.660156 31.421875 -23.671875 C 32.066406 -24.316406 32.390625 -24.78125 32.390625 -25.0625 C 32.390625 -25.800781 30.726562 -26.953125 27.40625 -28.515625 L 23.40625 -30.453125 L 18.140625 -27.40625 C 14.171875 -25.101562 11.304688 -23.953125 9.546875 -23.953125 C 7.984375 -23.953125 6.738281 -24.828125 5.8125 -26.578125 C 4.519531 -29.347656 3.875 -32.300781 3.875 -35.4375 C 3.875 -35.90625 3.96875 -36.484375 4.15625 -37.171875 C 4.34375 -37.867188 4.4375 -38.351562 4.4375 -38.625 C 4.613281 -39.644531 5.28125 -40.820312 6.4375 -42.15625 C 7.59375 -43.5 8.722656 -44.398438 9.828125 -44.859375 Z M 9.828125 -44.859375 "/></g></g></g><g fill="#010101" fill-opacity="1"><g transform="translate(847.190616, 106.380954)"><g/></g></g><g fill="#010101" fill-opacity="1"><g transform="translate(872.108916, 106.380954)"><g><path d="M 16.609375 -42.09375 C 18.640625 -42.457031 19.75 -42.640625 19.9375 -42.640625 C 20.675781 -42.640625 21.550781 -42.269531 22.5625 -41.53125 C 23.675781 -40.707031 24.234375 -39.878906 24.234375 -39.046875 C 24.234375 -37.566406 23.078125 -36.828125 20.765625 -36.828125 C 20.023438 -36.828125 19.332031 -36.503906 18.6875 -35.859375 C 18.039062 -35.117188 17.578125 -34.84375 17.296875 -35.03125 C 17.023438 -35.21875 16.984375 -35.816406 17.171875 -36.828125 C 17.347656 -37.472656 17.4375 -37.882812 17.4375 -38.0625 C 17.4375 -38.25 17.320312 -38.363281 17.09375 -38.40625 C 16.863281 -38.457031 16.472656 -38.394531 15.921875 -38.21875 C 13.523438 -37.476562 10.847656 -37.109375 7.890625 -37.109375 C 4.941406 -37.109375 3.46875 -37.660156 3.46875 -38.765625 C 3.46875 -40.609375 5.816406 -41.53125 10.515625 -41.53125 C 12.921875 -41.53125 14.953125 -41.71875 16.609375 -42.09375 Z M 16.609375 -42.09375 "/></g></g></g><g fill="#010101" fill-opacity="1"><g transform="translate(899.242092, 106.380954)"><g/></g></g><g fill="#010101" fill-opacity="1"><g transform="translate(924.160334, 106.380954)"><g><path d="M 48.59375 -47.90625 C 49.425781 -48.832031 50.394531 -49.25 51.5 -49.15625 C 52.789062 -48.96875 53.4375 -48.503906 53.4375 -47.765625 C 53.4375 -46.835938 52.378906 -44.945312 50.265625 -42.09375 C 48.046875 -39.226562 45.875 -35.648438 43.75 -31.359375 C 41.625 -27.066406 40.5625 -24.132812 40.5625 -22.5625 C 40.5625 -21.457031 40.125 -19.519531 39.25 -16.75 C 38.375 -13.976562 37.613281 -12.222656 36.96875 -11.484375 C 36.507812 -10.929688 35.957031 -10.65625 35.3125 -10.65625 C 34.101562 -10.65625 32.207031 -11.90625 29.625 -14.40625 C 26.851562 -17.257812 24.820312 -19.425781 23.53125 -20.90625 C 21.96875 -22.84375 20.953125 -23.8125 20.484375 -23.8125 C 19.753906 -23.8125 18.785156 -22.660156 17.578125 -20.359375 C 16.191406 -17.679688 14.851562 -16.34375 13.5625 -16.34375 C 12.550781 -16.34375 11.351562 -17.078125 9.96875 -18.546875 C 9.039062 -19.472656 8.1875 -21.179688 7.40625 -23.671875 C 6.625 -26.160156 6.234375 -28.332031 6.234375 -30.1875 C 6.234375 -32.300781 5.816406 -34.191406 4.984375 -35.859375 C 4.054688 -37.609375 3.960938 -38.851562 4.703125 -39.59375 C 5.171875 -40.0625 5.679688 -40.296875 6.234375 -40.296875 C 7.710938 -40.296875 8.726562 -39.046875 9.28125 -36.546875 C 9.550781 -35.628906 9.847656 -34.890625 10.171875 -34.328125 C 10.492188 -33.773438 10.722656 -33.242188 10.859375 -32.734375 C 11.003906 -32.234375 11.078125 -31.289062 11.078125 -29.90625 C 11.078125 -27.96875 11.257812 -26.191406 11.625 -24.578125 C 12 -22.960938 12.414062 -22.15625 12.875 -22.15625 L 13.015625 -22.15625 C 13.941406 -22.519531 15.28125 -24.410156 17.03125 -27.828125 C 17.769531 -29.117188 18.507812 -29.765625 19.25 -29.765625 C 20.445312 -29.765625 22.195312 -28.613281 24.5 -26.3125 C 26.53125 -24.28125 28.5625 -22.0625 30.59375 -19.65625 C 32.164062 -17.8125 33.414062 -16.890625 34.34375 -16.890625 C 34.988281 -16.890625 35.3125 -17.351562 35.3125 -18.28125 C 35.3125 -19.019531 35.816406 -20.398438 36.828125 -22.421875 C 37.753906 -24.453125 38.21875 -26.023438 38.21875 -27.140625 C 38.21875 -28.796875 39.484375 -32.140625 42.015625 -37.171875 C 44.554688 -42.203125 46.75 -45.78125 48.59375 -47.90625 Z M 48.59375 -47.90625 "/></g></g></g><g fill="#010101" fill-opacity="1"><g transform="translate(972.335616, 106.380954)"><g><path d="M 24.78125 -44.03125 L 24.09375 -44.03125 C 21.6875 -44.03125 19.285156 -43.5 16.890625 -42.4375 C 14.492188 -41.375 13.109375 -40.242188 12.734375 -39.046875 C 12.546875 -38.117188 12.59375 -37.539062 12.875 -37.3125 C 13.15625 -37.082031 13.894531 -36.921875 15.09375 -36.828125 L 15.640625 -36.828125 C 17.953125 -36.828125 20.375 -37.472656 22.90625 -38.765625 C 25.445312 -40.054688 26.71875 -41.300781 26.71875 -42.5 C 26.71875 -43.519531 26.070312 -44.03125 24.78125 -44.03125 Z M 18.96875 -47.078125 C 21.738281 -47.898438 23.628906 -48.3125 24.640625 -48.3125 C 25.109375 -48.3125 25.894531 -48.128906 27 -47.765625 C 29.675781 -46.835938 31.015625 -45.175781 31.015625 -42.78125 C 31.015625 -40.476562 29.03125 -38.03125 25.0625 -35.4375 C 21.457031 -33.039062 17.765625 -31.84375 13.984375 -31.84375 C 12.960938 -31.84375 12.085938 -31.984375 11.359375 -32.265625 C 10.148438 -32.722656 9.363281 -32.953125 9 -32.953125 C 8.539062 -32.953125 8.3125 -32.398438 8.3125 -31.296875 C 8.3125 -29.535156 8.722656 -28.054688 9.546875 -26.859375 C 10.929688 -25.015625 13.609375 -23.375 17.578125 -21.9375 C 21.546875 -20.507812 25.285156 -19.796875 28.796875 -19.796875 C 30.828125 -19.796875 32.601562 -20.578125 34.125 -22.140625 C 35.644531 -23.710938 36.6875 -25.796875 37.25 -28.390625 C 37.519531 -29.398438 38.023438 -29.90625 38.765625 -29.90625 C 39.410156 -29.90625 40.054688 -29.535156 40.703125 -28.796875 C 41.441406 -28.054688 41.671875 -27.085938 41.390625 -25.890625 C 41.210938 -24.691406 40.128906 -23.03125 38.140625 -20.90625 C 36.160156 -18.78125 34.429688 -17.347656 32.953125 -16.609375 C 31.660156 -16.054688 30.046875 -15.78125 28.109375 -15.78125 C 22.847656 -15.78125 17.351562 -17.257812 11.625 -20.21875 C 6.457031 -22.613281 3.875 -25.890625 3.875 -30.046875 C 3.875 -30.878906 4.015625 -31.707031 4.296875 -32.53125 C 5.398438 -36.40625 7.109375 -39.546875 9.421875 -41.953125 C 11.359375 -44.171875 14.539062 -45.878906 18.96875 -47.078125 Z M 18.96875 -47.078125 "/></g></g></g><g fill="#010101" fill-opacity="1"><g transform="translate(254.737814, 298.734808)"><g><path d="M 24.78125 -48.1875 C 26.71875 -48.738281 28.332031 -49.015625 29.625 -49.015625 C 32.300781 -49.015625 33.640625 -47.488281 33.640625 -44.4375 C 33.640625 -42.78125 33.457031 -41.488281 33.09375 -40.5625 C 32.625 -39.820312 32.113281 -39.453125 31.5625 -39.453125 C 30.738281 -39.453125 30.09375 -39.960938 29.625 -40.984375 C 29.257812 -41.722656 28.890625 -42.132812 28.515625 -42.21875 C 28.148438 -42.3125 27.367188 -42.316406 26.171875 -42.234375 C 24.597656 -42.046875 21.988281 -41.070312 18.34375 -39.3125 C 14.695312 -37.5625 12.085938 -36.039062 10.515625 -34.75 C 9.140625 -33.550781 8.453125 -32.210938 8.453125 -30.734375 C 8.453125 -29.253906 9.097656 -27.566406 10.390625 -25.671875 C 11.679688 -23.785156 13.296875 -22.054688 15.234375 -20.484375 C 16.796875 -19.378906 18.039062 -18.828125 18.96875 -18.828125 C 19.707031 -18.828125 20.351562 -18.875 20.90625 -18.96875 C 22.65625 -19.25 25.285156 -20.492188 28.796875 -22.703125 C 32.304688 -24.921875 34.890625 -26.769531 36.546875 -28.25 C 38.210938 -29.632812 39.503906 -30.328125 40.421875 -30.328125 C 41.160156 -30.328125 41.765625 -29.957031 42.234375 -29.21875 C 42.503906 -28.75 42.640625 -28.238281 42.640625 -27.6875 C 42.640625 -26.394531 42.132812 -25.75 41.125 -25.75 C 40.570312 -25.75 39.140625 -24.828125 36.828125 -22.984375 C 35.441406 -21.785156 33.039062 -19.9375 29.625 -17.4375 L 25.890625 -14.8125 L 21.046875 -14.953125 C 17.722656 -15.046875 15.113281 -15.644531 13.21875 -16.75 C 11.332031 -17.863281 9.140625 -19.988281 6.640625 -23.125 C 5.078125 -25.0625 4.25 -27.367188 4.15625 -30.046875 L 3.875 -33.921875 L 6.375 -36.828125 C 7.84375 -38.398438 9.546875 -39.691406 11.484375 -40.703125 C 11.671875 -40.796875 13.585938 -41.972656 17.234375 -44.234375 C 20.878906 -46.492188 23.394531 -47.8125 24.78125 -48.1875 Z M 24.78125 -48.1875 "/></g></g></g><g fill="#010101" fill-opacity="1"><g transform="translate(300.975029, 298.734808)"><g><path d="M 9.140625 -42.640625 C 10.148438 -43.472656 10.890625 -43.890625 11.359375 -43.890625 C 12.367188 -43.890625 14.8125 -42 18.6875 -38.21875 C 20.8125 -36.1875 21.875 -34.9375 21.875 -34.46875 C 21.875 -34.195312 21.691406 -34.015625 21.328125 -33.921875 C 20.398438 -33.546875 19.796875 -33.359375 19.515625 -33.359375 C 18.691406 -33.359375 17.3125 -34.144531 15.375 -35.71875 C 13.707031 -37.101562 12.457031 -37.796875 11.625 -37.796875 L 11.484375 -37.796875 C 10.378906 -37.335938 9.828125 -36.226562 9.828125 -34.46875 C 9.828125 -33.644531 9.96875 -32.816406 10.25 -31.984375 C 10.613281 -30.960938 10.796875 -29.804688 10.796875 -28.515625 C 10.796875 -28.242188 10.703125 -26.816406 10.515625 -24.234375 C 10.054688 -19.429688 9.226562 -16.660156 8.03125 -15.921875 C 6.738281 -15.085938 5.539062 -15.226562 4.4375 -16.34375 C 3.96875 -16.800781 3.734375 -17.816406 3.734375 -19.390625 C 3.734375 -21.046875 3.78125 -22.566406 3.875 -23.953125 C 4.0625 -27.921875 4.6875 -31.75 5.75 -35.4375 C 6.8125 -39.132812 7.941406 -41.535156 9.140625 -42.640625 Z M 9.140625 -42.640625 "/></g></g></g><g fill="#010101" fill-opacity="1"><g transform="translate(326.447034, 298.734808)"><g><path d="M 12.328125 -41.265625 C 13.617188 -41.992188 14.863281 -42.359375 16.0625 -42.359375 C 17.351562 -42.359375 18.644531 -41.945312 19.9375 -41.125 C 21.78125 -39.925781 22.703125 -38.863281 22.703125 -37.9375 C 22.703125 -37.476562 22.378906 -36.96875 21.734375 -36.40625 C 19.890625 -35.03125 18.785156 -35.078125 18.421875 -36.546875 C 18.140625 -37.378906 17.488281 -37.796875 16.46875 -37.796875 C 15.457031 -37.796875 14.488281 -37.332031 13.5625 -36.40625 C 12 -34.5625 10.6875 -32.1875 9.625 -29.28125 C 8.5625 -26.375 8.03125 -23.675781 8.03125 -21.1875 C 8.03125 -19.988281 8.117188 -19.269531 8.296875 -19.03125 C 8.484375 -18.800781 9.039062 -18.6875 9.96875 -18.6875 C 11.445312 -18.6875 13.109375 -19.148438 14.953125 -20.078125 C 16.984375 -20.992188 18.828125 -22.703125 20.484375 -25.203125 C 22.054688 -27.503906 22.84375 -29.671875 22.84375 -31.703125 C 22.84375 -34.285156 23.441406 -35.578125 24.640625 -35.578125 C 25.109375 -35.578125 25.476562 -35.488281 25.75 -35.3125 C 26.488281 -34.9375 27.273438 -33.085938 28.109375 -29.765625 C 29.023438 -26.078125 29.785156 -23.5625 30.390625 -22.21875 C 30.992188 -20.882812 31.894531 -19.984375 33.09375 -19.515625 C 34.75 -18.867188 35.578125 -18.132812 35.578125 -17.3125 C 35.578125 -16.75 35.394531 -16.238281 35.03125 -15.78125 C 34.476562 -14.945312 33.785156 -14.53125 32.953125 -14.53125 C 32.304688 -14.53125 31.335938 -14.898438 30.046875 -15.640625 C 28.109375 -16.929688 26.628906 -19.378906 25.609375 -22.984375 C 25.429688 -23.628906 25.203125 -23.953125 24.921875 -23.953125 C 24.460938 -23.953125 23.21875 -22.796875 21.1875 -20.484375 C 17.675781 -16.429688 14.078125 -14.40625 10.390625 -14.40625 C 8.441406 -14.40625 6.820312 -15.050781 5.53125 -16.34375 C 4.425781 -17.445312 3.875 -18.550781 3.875 -19.65625 C 3.875 -20.675781 3.921875 -21.597656 4.015625 -22.421875 C 4.472656 -26.765625 5.460938 -30.6875 6.984375 -34.1875 C 8.515625 -37.695312 10.296875 -40.054688 12.328125 -41.265625 Z M 12.328125 -41.265625 "/></g></g></g><g fill="#010101" fill-opacity="1"><g transform="translate(365.624074, 298.734808)"><g><path d="M 15.234375 -86.671875 C 16.429688 -87.679688 17.304688 -88.1875 17.859375 -88.1875 C 18.691406 -88.1875 20.492188 -86.523438 23.265625 -83.203125 C 25.015625 -80.992188 26.71875 -78.570312 28.375 -75.9375 C 30.039062 -73.3125 30.875 -71.675781 30.875 -71.03125 L 30.734375 -70.75 C 30.546875 -70.5625 30.222656 -70.46875 29.765625 -70.46875 C 28.753906 -70.46875 27.046875 -71.347656 24.640625 -73.109375 C 22.703125 -74.578125 21.382812 -75.773438 20.6875 -76.703125 C 20 -77.628906 19.566406 -78.875 19.390625 -80.4375 C 19.109375 -81.820312 18.785156 -82.515625 18.421875 -82.515625 C 17.859375 -82.515625 17.300781 -81.867188 16.75 -80.578125 C 15.832031 -78.640625 15.375 -75.640625 15.375 -71.578125 C 15.375 -66.128906 16.0625 -62.710938 17.4375 -61.328125 C 18 -60.773438 18.785156 -60.5 19.796875 -60.5 C 21.085938 -60.5 22.332031 -60.59375 23.53125 -60.78125 L 30.328125 -61.75 C 31.617188 -62.03125 32.585938 -61.753906 33.234375 -60.921875 C 33.785156 -60.273438 34.0625 -59.835938 34.0625 -59.609375 C 34.0625 -59.378906 33.785156 -58.847656 33.234375 -58.015625 C 32.398438 -57.085938 31.148438 -56.625 29.484375 -56.625 L 24.5 -56.625 C 20.53125 -56.625 18.546875 -56.070312 18.546875 -54.96875 C 18.546875 -54.78125 18.59375 -54.59375 18.6875 -54.40625 C 18.96875 -53.664062 19.429688 -52.070312 20.078125 -49.625 C 20.722656 -47.1875 21.179688 -45.597656 21.453125 -44.859375 C 21.921875 -43.753906 22.566406 -39.71875 23.390625 -32.75 C 24.222656 -25.78125 24.6875 -20.722656 24.78125 -17.578125 L 24.78125 -15.78125 C 24.78125 -14.300781 24.363281 -13.519531 23.53125 -13.4375 L 22.84375 -13.4375 C 21.550781 -13.4375 20.648438 -14.445312 20.140625 -16.46875 C 19.640625 -18.5 19.15625 -23.207031 18.6875 -30.59375 C 18.507812 -33.550781 18.28125 -35.925781 18 -37.71875 C 17.71875 -39.519531 17.273438 -41.53125 16.671875 -43.75 C 16.078125 -45.96875 15.644531 -47.90625 15.375 -49.5625 C 14.632812 -52.976562 13.867188 -55.125 13.078125 -56 C 12.296875 -56.875 10.84375 -57.3125 8.71875 -57.3125 C 5.582031 -57.3125 4.015625 -57.820312 4.015625 -58.84375 C 4.015625 -59.125 4.0625 -59.351562 4.15625 -59.53125 C 4.519531 -60.644531 5.953125 -61.203125 8.453125 -61.203125 L 9.546875 -61.203125 C 10.660156 -61.109375 11.332031 -61.175781 11.5625 -61.40625 C 11.789062 -61.632812 11.859375 -62.164062 11.765625 -63 C 11.398438 -67.0625 11.21875 -70.519531 11.21875 -73.375 C 11.21875 -76.425781 11.539062 -78.96875 12.1875 -81 C 12.925781 -83.675781 13.941406 -85.566406 15.234375 -86.671875 Z M 15.234375 -86.671875 "/></g></g></g><g fill="#010101" fill-opacity="1"><g transform="translate(396.91034, 298.734808)"><g><path d="M 10.109375 -58.28125 C 10.472656 -59.488281 10.835938 -60.179688 11.203125 -60.359375 C 11.578125 -60.546875 12.085938 -60.269531 12.734375 -59.53125 C 13.378906 -58.882812 13.65625 -57.59375 13.5625 -55.65625 L 13.5625 -54.40625 C 13.5625 -53.300781 13.816406 -52.5625 14.328125 -52.1875 C 14.835938 -51.820312 15.921875 -51.640625 17.578125 -51.640625 C 19.054688 -51.640625 20.304688 -51.6875 21.328125 -51.78125 L 27.28125 -52.203125 L 27.28125 -48.1875 L 23.671875 -47.765625 C 20.898438 -47.578125 18.914062 -47.484375 17.71875 -47.484375 C 16.613281 -47.484375 15.691406 -47.207031 14.953125 -46.65625 C 14.210938 -46.101562 13.84375 -45.457031 13.84375 -44.71875 C 13.84375 -44.445312 13.890625 -44.21875 13.984375 -44.03125 C 14.171875 -43.65625 14.445312 -41.945312 14.8125 -38.90625 C 15.09375 -36.6875 16.476562 -31.007812 18.96875 -21.875 C 19.613281 -19.65625 19.9375 -17.851562 19.9375 -16.46875 C 19.9375 -15.09375 19.472656 -14.40625 18.546875 -14.40625 L 18.28125 -14.40625 C 17.351562 -14.488281 16.335938 -16.425781 15.234375 -20.21875 C 12.273438 -29.164062 10.613281 -35.859375 10.25 -40.296875 C 10.0625 -44.078125 9.597656 -46.3125 8.859375 -47 C 8.117188 -47.695312 5.90625 -48.046875 2.21875 -48.046875 C -2.582031 -48.046875 -4.984375 -48.644531 -4.984375 -49.84375 L -4.984375 -50.125 C -4.890625 -50.21875 -4.84375 -50.304688 -4.84375 -50.390625 C -4.476562 -51.597656 -1.847656 -52.203125 3.046875 -52.203125 C 5.722656 -52.203125 7.453125 -52.363281 8.234375 -52.6875 C 9.023438 -53.007812 9.421875 -53.722656 9.421875 -54.828125 C 9.421875 -55.753906 9.648438 -56.90625 10.109375 -58.28125 Z M 10.109375 -58.28125 "/></g></g></g><g fill="#010101" fill-opacity="1"><g transform="translate(425.427908, 298.734808)"><g/></g></g><g fill="#010101" fill-opacity="1"><g transform="translate(450.34615, 298.734808)"><g><path d="M 15.234375 -86.671875 C 16.429688 -87.679688 17.304688 -88.1875 17.859375 -88.1875 C 18.691406 -88.1875 20.492188 -86.523438 23.265625 -83.203125 C 25.015625 -80.992188 26.71875 -78.570312 28.375 -75.9375 C 30.039062 -73.3125 30.875 -71.675781 30.875 -71.03125 L 30.734375 -70.75 C 30.546875 -70.5625 30.222656 -70.46875 29.765625 -70.46875 C 28.753906 -70.46875 27.046875 -71.347656 24.640625 -73.109375 C 22.703125 -74.578125 21.382812 -75.773438 20.6875 -76.703125 C 20 -77.628906 19.566406 -78.875 19.390625 -80.4375 C 19.109375 -81.820312 18.785156 -82.515625 18.421875 -82.515625 C 17.859375 -82.515625 17.300781 -81.867188 16.75 -80.578125 C 15.832031 -78.640625 15.375 -75.640625 15.375 -71.578125 C 15.375 -66.128906 16.0625 -62.710938 17.4375 -61.328125 C 18 -60.773438 18.785156 -60.5 19.796875 -60.5 C 21.085938 -60.5 22.332031 -60.59375 23.53125 -60.78125 L 30.328125 -61.75 C 31.617188 -62.03125 32.585938 -61.753906 33.234375 -60.921875 C 33.785156 -60.273438 34.0625 -59.835938 34.0625 -59.609375 C 34.0625 -59.378906 33.785156 -58.847656 33.234375 -58.015625 C 32.398438 -57.085938 31.148438 -56.625 29.484375 -56.625 L 24.5 -56.625 C 20.53125 -56.625 18.546875 -56.070312 18.546875 -54.96875 C 18.546875 -54.78125 18.59375 -54.59375 18.6875 -54.40625 C 18.96875 -53.664062 19.429688 -52.070312 20.078125 -49.625 C 20.722656 -47.1875 21.179688 -45.597656 21.453125 -44.859375 C 21.921875 -43.753906 22.566406 -39.71875 23.390625 -32.75 C 24.222656 -25.78125 24.6875 -20.722656 24.78125 -17.578125 L 24.78125 -15.78125 C 24.78125 -14.300781 24.363281 -13.519531 23.53125 -13.4375 L 22.84375 -13.4375 C 21.550781 -13.4375 20.648438 -14.445312 20.140625 -16.46875 C 19.640625 -18.5 19.15625 -23.207031 18.6875 -30.59375 C 18.507812 -33.550781 18.28125 -35.925781 18 -37.71875 C 17.71875 -39.519531 17.273438 -41.53125 16.671875 -43.75 C 16.078125 -45.96875 15.644531 -47.90625 15.375 -49.5625 C 14.632812 -52.976562 13.867188 -55.125 13.078125 -56 C 12.296875 -56.875 10.84375 -57.3125 8.71875 -57.3125 C 5.582031 -57.3125 4.015625 -57.820312 4.015625 -58.84375 C 4.015625 -59.125 4.0625 -59.351562 4.15625 -59.53125 C 4.519531 -60.644531 5.953125 -61.203125 8.453125 -61.203125 L 9.546875 -61.203125 C 10.660156 -61.109375 11.332031 -61.175781 11.5625 -61.40625 C 11.789062 -61.632812 11.859375 -62.164062 11.765625 -63 C 11.398438 -67.0625 11.21875 -70.519531 11.21875 -73.375 C 11.21875 -76.425781 11.539062 -78.96875 12.1875 -81 C 12.925781 -83.675781 13.941406 -85.566406 15.234375 -86.671875 Z M 15.234375 -86.671875 "/></g></g></g><g fill="#010101" fill-opacity="1"><g transform="translate(481.632415, 298.734808)"><g><path d="M 6.09375 -82.375 C 7.195312 -82.375 8.441406 -81.546875 9.828125 -79.890625 C 11.210938 -78.316406 12 -77.160156 12.1875 -76.421875 C 12.363281 -75.960938 12.359375 -75.660156 12.171875 -75.515625 C 11.992188 -75.378906 11.535156 -75.3125 10.796875 -75.3125 C 9.960938 -75.3125 9.453125 -75.21875 9.265625 -75.03125 C 9.085938 -74.851562 9.09375 -74.488281 9.28125 -73.9375 C 9.550781 -73.195312 10.195312 -69.179688 11.21875 -61.890625 C 14.070312 -42.410156 15.734375 -30.503906 16.203125 -26.171875 C 16.660156 -22.203125 17.164062 -19.660156 17.71875 -18.546875 C 18.269531 -17.347656 18.5 -16.378906 18.40625 -15.640625 C 18.320312 -14.898438 18.160156 -14.4375 17.921875 -14.25 C 17.691406 -14.070312 17.207031 -13.984375 16.46875 -13.984375 C 15.363281 -13.984375 14.554688 -14.488281 14.046875 -15.5 C 13.546875 -16.519531 13.0625 -18.367188 12.59375 -21.046875 C 12.414062 -22.617188 11.722656 -27.328125 10.515625 -35.171875 C 9.316406 -43.015625 8.628906 -47.722656 8.453125 -49.296875 C 8.359375 -49.941406 8.21875 -50.976562 8.03125 -52.40625 C 7.84375 -53.832031 7.632812 -55.628906 7.40625 -57.796875 C 7.175781 -59.972656 6.96875 -61.753906 6.78125 -63.140625 C 6.039062 -69.222656 5.347656 -73.925781 4.703125 -77.25 C 4.242188 -79.28125 4.015625 -80.710938 4.015625 -81.546875 C 4.015625 -82.097656 4.707031 -82.375 6.09375 -82.375 Z M 6.09375 -82.375 "/></g></g></g><g fill="#010101" fill-opacity="1"><g transform="translate(503.643541, 298.734808)"><g><path d="M 12.328125 -41.265625 C 13.617188 -41.992188 14.863281 -42.359375 16.0625 -42.359375 C 17.351562 -42.359375 18.644531 -41.945312 19.9375 -41.125 C 21.78125 -39.925781 22.703125 -38.863281 22.703125 -37.9375 C 22.703125 -37.476562 22.378906 -36.96875 21.734375 -36.40625 C 19.890625 -35.03125 18.785156 -35.078125 18.421875 -36.546875 C 18.140625 -37.378906 17.488281 -37.796875 16.46875 -37.796875 C 15.457031 -37.796875 14.488281 -37.332031 13.5625 -36.40625 C 12 -34.5625 10.6875 -32.1875 9.625 -29.28125 C 8.5625 -26.375 8.03125 -23.675781 8.03125 -21.1875 C 8.03125 -19.988281 8.117188 -19.269531 8.296875 -19.03125 C 8.484375 -18.800781 9.039062 -18.6875 9.96875 -18.6875 C 11.445312 -18.6875 13.109375 -19.148438 14.953125 -20.078125 C 16.984375 -20.992188 18.828125 -22.703125 20.484375 -25.203125 C 22.054688 -27.503906 22.84375 -29.671875 22.84375 -31.703125 C 22.84375 -34.285156 23.441406 -35.578125 24.640625 -35.578125 C 25.109375 -35.578125 25.476562 -35.488281 25.75 -35.3125 C 26.488281 -34.9375 27.273438 -33.085938 28.109375 -29.765625 C 29.023438 -26.078125 29.785156 -23.5625 30.390625 -22.21875 C 30.992188 -20.882812 31.894531 -19.984375 33.09375 -19.515625 C 34.75 -18.867188 35.578125 -18.132812 35.578125 -17.3125 C 35.578125 -16.75 35.394531 -16.238281 35.03125 -15.78125 C 34.476562 -14.945312 33.785156 -14.53125 32.953125 -14.53125 C 32.304688 -14.53125 31.335938 -14.898438 30.046875 -15.640625 C 28.109375 -16.929688 26.628906 -19.378906 25.609375 -22.984375 C 25.429688 -23.628906 25.203125 -23.953125 24.921875 -23.953125 C 24.460938 -23.953125 23.21875 -22.796875 21.1875 -20.484375 C 17.675781 -16.429688 14.078125 -14.40625 10.390625 -14.40625 C 8.441406 -14.40625 6.820312 -15.050781 5.53125 -16.34375 C 4.425781 -17.445312 3.875 -18.550781 3.875 -19.65625 C 3.875 -20.675781 3.921875 -21.597656 4.015625 -22.421875 C 4.472656 -26.765625 5.460938 -30.6875 6.984375 -34.1875 C 8.515625 -37.695312 10.296875 -40.054688 12.328125 -41.265625 Z M 12.328125 -41.265625 "/></g></g></g><g fill="#010101" fill-opacity="1"><g transform="translate(542.820582, 298.734808)"><g><path d="M 25.46875 -46.515625 C 24.914062 -47.347656 24.640625 -48.085938 24.640625 -48.734375 C 24.640625 -50.117188 25.472656 -50.8125 27.140625 -50.8125 C 28.617188 -50.8125 29.632812 -50.257812 30.1875 -49.15625 C 30.363281 -48.875 30.453125 -48.410156 30.453125 -47.765625 C 30.453125 -46.753906 29.804688 -43.800781 28.515625 -38.90625 C 25.753906 -28.570312 22.34375 -21.648438 18.28125 -18.140625 C 16.34375 -16.378906 14.957031 -15.5 14.125 -15.5 C 13.289062 -15.5 12.085938 -16.378906 10.515625 -18.140625 C 9.222656 -19.617188 8.253906 -21.253906 7.609375 -23.046875 C 6.960938 -24.847656 6.179688 -28.425781 5.265625 -33.78125 C 4.335938 -38.394531 3.875 -40.890625 3.875 -41.265625 C 3.875 -42.828125 4.75 -43.609375 6.5 -43.609375 L 7.203125 -43.609375 C 7.941406 -43.421875 8.632812 -43.023438 9.28125 -42.421875 C 9.925781 -41.828125 10.25 -41.300781 10.25 -40.84375 C 10.25 -40.476562 9.878906 -39.925781 9.140625 -39.1875 C 8.585938 -38.625 8.285156 -38.203125 8.234375 -37.921875 C 8.191406 -37.648438 8.351562 -37.191406 8.71875 -36.546875 C 9.457031 -35.535156 9.96875 -33.460938 10.25 -30.328125 C 10.800781 -25.429688 12.046875 -22.382812 13.984375 -21.1875 C 14.722656 -20.71875 15.785156 -21.269531 17.171875 -22.84375 C 19.660156 -25.707031 22.015625 -30.738281 24.234375 -37.9375 C 25.429688 -41.90625 26.03125 -44.210938 26.03125 -44.859375 C 26.03125 -45.222656 25.84375 -45.773438 25.46875 -46.515625 Z M 25.46875 -46.515625 "/></g></g></g><g fill="#010101" fill-opacity="1"><g transform="translate(575.214313, 298.734808)"><g><path d="M 17.71875 -46.515625 C 17.257812 -46.703125 16.660156 -46.796875 15.921875 -46.796875 C 14.347656 -46.796875 12.457031 -45.6875 10.25 -43.46875 C 9.132812 -42.363281 8.460938 -41.535156 8.234375 -40.984375 C 8.003906 -40.429688 7.890625 -39.273438 7.890625 -37.515625 C 7.890625 -35.210938 8.394531 -32.238281 9.40625 -28.59375 C 10.425781 -24.945312 11.398438 -22.613281 12.328125 -21.59375 C 13.148438 -20.675781 14.117188 -20.21875 15.234375 -20.21875 C 18.085938 -20.21875 21.457031 -23.351562 25.34375 -29.625 C 27.738281 -33.5 28.9375 -36.316406 28.9375 -38.078125 C 28.9375 -38.910156 28.753906 -39.554688 28.390625 -40.015625 C 28.015625 -40.566406 27.664062 -40.863281 27.34375 -40.90625 C 27.019531 -40.957031 26.394531 -40.796875 25.46875 -40.421875 C 24.09375 -39.960938 22.753906 -39.921875 21.453125 -40.296875 C 20.253906 -40.753906 18.640625 -41.078125 16.609375 -41.265625 C 14.953125 -41.535156 14.125 -41.859375 14.125 -42.234375 C 14.125 -42.691406 14.90625 -43.289062 16.46875 -44.03125 C 18.78125 -45.132812 19.195312 -45.960938 17.71875 -46.515625 Z M 12.453125 -50.390625 C 12.921875 -50.578125 13.894531 -50.671875 15.375 -50.671875 C 19.0625 -50.671875 21.457031 -50.253906 22.5625 -49.421875 C 23.394531 -48.867188 24 -47.945312 24.375 -46.65625 C 24.550781 -45.820312 24.820312 -45.289062 25.1875 -45.0625 C 25.5625 -44.832031 26.394531 -44.625 27.6875 -44.4375 C 29.351562 -44.257812 30.710938 -43.707031 31.765625 -42.78125 C 32.828125 -41.851562 33.359375 -40.835938 33.359375 -39.734375 C 33.359375 -37.609375 32.226562 -34.375 29.96875 -30.03125 C 27.707031 -25.695312 25.332031 -22.191406 22.84375 -19.515625 C 20.90625 -17.304688 18.273438 -16.203125 14.953125 -16.203125 C 14.765625 -16.203125 14.53125 -16.222656 14.25 -16.265625 C 13.976562 -16.316406 13.796875 -16.34375 13.703125 -16.34375 C 11.398438 -16.707031 9.71875 -17.582031 8.65625 -18.96875 C 7.59375 -20.351562 6.367188 -23.257812 4.984375 -27.6875 C 4.523438 -28.800781 4.203125 -31.15625 4.015625 -34.75 C 3.921875 -35.675781 3.875 -36.785156 3.875 -38.078125 C 3.875 -39.828125 4.148438 -41.441406 4.703125 -42.921875 C 5.347656 -44.492188 6.429688 -46.039062 7.953125 -47.5625 C 9.484375 -49.082031 10.984375 -50.023438 12.453125 -50.390625 Z M 12.453125 -50.390625 "/></g></g></g><g fill="#010101" fill-opacity="1"><g transform="translate(612.037943, 298.734808)"><g><path d="M 9.140625 -42.640625 C 10.148438 -43.472656 10.890625 -43.890625 11.359375 -43.890625 C 12.367188 -43.890625 14.8125 -42 18.6875 -38.21875 C 20.8125 -36.1875 21.875 -34.9375 21.875 -34.46875 C 21.875 -34.195312 21.691406 -34.015625 21.328125 -33.921875 C 20.398438 -33.546875 19.796875 -33.359375 19.515625 -33.359375 C 18.691406 -33.359375 17.3125 -34.144531 15.375 -35.71875 C 13.707031 -37.101562 12.457031 -37.796875 11.625 -37.796875 L 11.484375 -37.796875 C 10.378906 -37.335938 9.828125 -36.226562 9.828125 -34.46875 C 9.828125 -33.644531 9.96875 -32.816406 10.25 -31.984375 C 10.613281 -30.960938 10.796875 -29.804688 10.796875 -28.515625 C 10.796875 -28.242188 10.703125 -26.816406 10.515625 -24.234375 C 10.054688 -19.429688 9.226562 -16.660156 8.03125 -15.921875 C 6.738281 -15.085938 5.539062 -15.226562 4.4375 -16.34375 C 3.96875 -16.800781 3.734375 -17.816406 3.734375 -19.390625 C 3.734375 -21.046875 3.78125 -22.566406 3.875 -23.953125 C 4.0625 -27.921875 4.6875 -31.75 5.75 -35.4375 C 6.8125 -39.132812 7.941406 -41.535156 9.140625 -42.640625 Z M 9.140625 -42.640625 "/></g></g></g><g fill="#010101" fill-opacity="1"><g transform="translate(637.509948, 298.734808)"><g><path d="M 9.828125 -44.859375 C 10.753906 -45.316406 11.910156 -45.546875 13.296875 -45.546875 C 15.878906 -45.546875 17.171875 -44.671875 17.171875 -42.921875 C 17.171875 -41.628906 16.429688 -40.984375 14.953125 -40.984375 C 14.492188 -40.984375 13.988281 -41.164062 13.4375 -41.53125 C 13.15625 -41.8125 12.828125 -41.953125 12.453125 -41.953125 C 11.441406 -41.953125 10.425781 -41.003906 9.40625 -39.109375 C 8.394531 -37.222656 7.890625 -35.304688 7.890625 -33.359375 C 7.890625 -30.867188 8.722656 -29.253906 10.390625 -28.515625 C 10.941406 -28.335938 11.304688 -28.25 11.484375 -28.25 C 12.222656 -28.25 13.75 -29.03125 16.0625 -30.59375 C 19.65625 -32.90625 22.054688 -34.0625 23.265625 -34.0625 C 24.179688 -34.0625 25.148438 -33.875 26.171875 -33.5 C 28.378906 -32.851562 30.707031 -31.789062 33.15625 -30.3125 C 35.601562 -28.84375 36.921875 -27.691406 37.109375 -26.859375 C 37.203125 -26.578125 37.25 -26.160156 37.25 -25.609375 C 37.25 -23.304688 35.675781 -21.140625 32.53125 -19.109375 C 30.226562 -17.535156 28.472656 -16.539062 27.265625 -16.125 C 26.066406 -15.707031 23.804688 -15.316406 20.484375 -14.953125 C 18.273438 -14.671875 16.707031 -14.53125 15.78125 -14.53125 C 14.863281 -14.53125 13.941406 -14.765625 13.015625 -15.234375 C 11.910156 -15.878906 11.398438 -16.707031 11.484375 -17.71875 C 11.578125 -18.457031 11.738281 -18.921875 11.96875 -19.109375 C 12.207031 -19.296875 12.695312 -19.34375 13.4375 -19.25 C 16.019531 -19.0625 17.632812 -18.96875 18.28125 -18.96875 C 20.863281 -18.96875 23.492188 -19.566406 26.171875 -20.765625 C 28.203125 -21.691406 29.953125 -22.660156 31.421875 -23.671875 C 32.066406 -24.316406 32.390625 -24.78125 32.390625 -25.0625 C 32.390625 -25.800781 30.726562 -26.953125 27.40625 -28.515625 L 23.40625 -30.453125 L 18.140625 -27.40625 C 14.171875 -25.101562 11.304688 -23.953125 9.546875 -23.953125 C 7.984375 -23.953125 6.738281 -24.828125 5.8125 -26.578125 C 4.519531 -29.347656 3.875 -32.300781 3.875 -35.4375 C 3.875 -35.90625 3.96875 -36.484375 4.15625 -37.171875 C 4.34375 -37.867188 4.4375 -38.351562 4.4375 -38.625 C 4.613281 -39.644531 5.28125 -40.820312 6.4375 -42.15625 C 7.59375 -43.5 8.722656 -44.398438 9.828125 -44.859375 Z M 9.828125 -44.859375 "/></g></g></g><g fill="#010101" fill-opacity="1"><g transform="translate(674.610472, 298.734808)"><g/></g></g><g fill="#010101" fill-opacity="1"><g transform="translate(699.528714, 298.734808)"><g><path d="M 17.171875 -30.875 C 17.171875 -31.332031 16.847656 -31.5625 16.203125 -31.5625 C 15.003906 -31.5625 13.753906 -30.914062 12.453125 -29.625 C 11.253906 -28.425781 10.65625 -27.410156 10.65625 -26.578125 C 10.65625 -25.835938 11.023438 -25.46875 11.765625 -25.46875 C 12.316406 -25.46875 12.960938 -25.648438 13.703125 -26.015625 C 14.441406 -26.390625 15.203125 -27.109375 15.984375 -28.171875 C 16.773438 -29.234375 17.171875 -30.132812 17.171875 -30.875 Z M 24.234375 -32.125 C 23.304688 -32.488281 22.75 -32.671875 22.5625 -32.671875 C 21.269531 -32.671875 20.625 -31.332031 20.625 -28.65625 C 20.625 -28.195312 20.644531 -27.875 20.6875 -27.6875 C 20.738281 -27.5 20.878906 -27.40625 21.109375 -27.40625 C 21.335938 -27.40625 21.613281 -27.5 21.9375 -27.6875 C 22.257812 -27.875 22.75 -28.148438 23.40625 -28.515625 C 24.695312 -29.347656 25.34375 -30.085938 25.34375 -30.734375 C 25.34375 -31.191406 24.972656 -31.65625 24.234375 -32.125 Z M 11.359375 -34.46875 L 14.40625 -36.96875 L 18.96875 -36.546875 C 26.8125 -35.804688 30.734375 -33.820312 30.734375 -30.59375 C 30.734375 -27.269531 24.597656 -23.71875 12.328125 -19.9375 L 12.046875 -19.9375 C 11.304688 -19.9375 10.335938 -20.394531 9.140625 -21.3125 C 7.941406 -22.238281 7.15625 -23.164062 6.78125 -24.09375 C 6.414062 -24.832031 6.234375 -25.707031 6.234375 -26.71875 C 6.234375 -29.125 7.941406 -31.707031 11.359375 -34.46875 Z M 13.84375 -53.296875 C 13.65625 -54.410156 13.421875 -55.054688 13.140625 -55.234375 C 12.867188 -55.421875 12.226562 -55.425781 11.21875 -55.25 C 9.1875 -54.96875 8.171875 -53.582031 8.171875 -51.09375 C 8.171875 -50.445312 8.304688 -49.753906 8.578125 -49.015625 C 8.953125 -48.367188 9.273438 -48.046875 9.546875 -48.046875 C 10.015625 -48.046875 10.941406 -48.597656 12.328125 -49.703125 C 13.148438 -50.535156 13.65625 -51.132812 13.84375 -51.5 C 14.03125 -51.875 14.03125 -52.472656 13.84375 -53.296875 Z M 5.671875 -59.671875 C 7.148438 -61.609375 8.675781 -62.578125 10.25 -62.578125 C 10.800781 -62.578125 11.210938 -62.53125 11.484375 -62.4375 C 11.953125 -62.34375 12.601562 -62.296875 13.4375 -62.296875 C 13.988281 -62.296875 14.585938 -61.460938 15.234375 -59.796875 C 15.878906 -58.140625 16.660156 -56.851562 17.578125 -55.9375 C 19.054688 -54.457031 19.984375 -52.472656 20.359375 -49.984375 C 20.441406 -49.523438 20.484375 -49.015625 20.484375 -48.453125 C 20.484375 -47.628906 19.609375 -46.335938 17.859375 -44.578125 C 15.085938 -41.804688 13.007812 -40.421875 11.625 -40.421875 C 10.613281 -40.421875 9.554688 -40.835938 8.453125 -41.671875 C 5.492188 -43.703125 3.96875 -47.300781 3.875 -52.46875 L 3.875 -54.6875 C 3.875 -56.71875 4.472656 -58.378906 5.671875 -59.671875 Z M 5.671875 -59.671875 "/></g></g></g><g fill="#010101" fill-opacity="1"><g transform="translate(733.860544, 298.734808)"><g><path d="M 4.84375 -69.78125 C 5.300781 -70.519531 5.945312 -70.890625 6.78125 -70.890625 C 7.707031 -70.890625 8.953125 -70.378906 10.515625 -69.359375 C 14.765625 -66.597656 17.859375 -62.90625 19.796875 -58.28125 C 20.722656 -55.976562 21.300781 -54.226562 21.53125 -53.03125 C 21.757812 -51.832031 21.875 -49.660156 21.875 -46.515625 L 21.875 -39.734375 L 18.96875 -34.0625 C 16.9375 -29.90625 14.535156 -26.351562 11.765625 -23.40625 C 8.722656 -20.082031 6.96875 -18.328125 6.5 -18.140625 L 6.234375 -18.140625 C 5.679688 -18.140625 5.148438 -18.484375 4.640625 -19.171875 C 4.128906 -19.867188 3.875 -20.585938 3.875 -21.328125 C 3.875 -21.972656 5.441406 -24.046875 8.578125 -27.546875 C 13.285156 -32.535156 16.195312 -37.84375 17.3125 -43.46875 C 17.582031 -44.757812 17.71875 -45.820312 17.71875 -46.65625 C 17.71875 -47.394531 17.488281 -48.921875 17.03125 -51.234375 C 16.195312 -54.828125 15.085938 -57.707031 13.703125 -59.875 C 12.316406 -62.050781 10.238281 -64.109375 7.46875 -66.046875 C 5.445312 -67.515625 4.4375 -68.390625 4.4375 -68.671875 C 4.4375 -68.859375 4.570312 -69.226562 4.84375 -69.78125 Z M 4.84375 -69.78125 "/></g></g></g></g></g></svg>