<svg xmlns="http://www.w3.org/2000/svg" xmlns:xlink="http://www.w3.org/1999/xlink" width="1366" zoomAndPan="magnify" viewBox="0 0 1024.5 576" height="768" preserveAspectRatio="xMidYMid meet" version="1.0"><defs><clipPath id="715b34e963"><path d="M 224.140625 0.140625 L 799.859375 0.140625 L 799.859375 575.859375 L 224.140625 575.859375 Z M 224.140625 0.140625 " clip-rule="nonzero"/></clipPath></defs><g clip-path="url(#715b34e963)"><path fill="#212121" d="M 392.707031 2.121094 C 362.089844 3.558594 341.183594 8.464844 322.90625 15.625 C 303.976562 23 287.949219 32.871094 272.003906 48.898438 C 256.03125 64.925781 246.214844 80.980469 238.921875 99.933594 C 231.84375 118.265625 227.042969 139.175781 225.6875 169.820312 C 224.332031 200.488281 224.03125 210.277344 224.167969 288.433594 C 224.304688 366.5625 224.65625 376.378906 226.121094 407.074219 C 227.585938 437.691406 232.464844 458.574219 239.625 476.878906 C 247 495.804688 256.871094 511.804688 272.898438 527.777344 C 288.925781 543.75 304.980469 553.542969 323.933594 560.863281 C 342.242188 567.941406 363.175781 572.769531 393.792969 574.097656 C 424.488281 575.453125 434.28125 575.75 512.40625 575.589844 C 590.5625 575.453125 600.351562 575.101562 631.050781 573.636719 C 661.664062 572.171875 682.546875 567.261719 700.851562 560.132812 C 719.78125 552.726562 735.804688 542.882812 751.753906 526.855469 C 767.699219 510.832031 777.515625 494.777344 784.835938 475.820312 C 791.914062 457.515625 796.742188 436.582031 798.070312 405.992188 C 799.398438 375.292969 799.722656 365.476562 799.589844 287.347656 C 799.453125 209.222656 799.074219 199.433594 797.636719 168.734375 C 796.171875 138.089844 791.289062 117.210938 784.132812 98.90625 C 776.726562 79.976562 766.882812 63.976562 750.855469 48.003906 C 734.832031 32.058594 718.777344 22.214844 699.820312 14.917969 C 681.515625 7.84375 660.582031 3.015625 629.964844 1.6875 C 599.265625 0.332031 589.449219 0.03125 511.320312 0.167969 C 433.195312 0.304688 423.40625 0.65625 392.707031 2.121094 M 396.070312 522.273438 C 368.03125 521.054688 352.789062 516.390625 342.621094 512.484375 C 329.167969 507.277344 319.597656 501.039062 309.480469 491.035156 C 299.394531 480.972656 293.15625 471.398438 287.894531 458.003906 C 283.964844 447.863281 279.21875 432.648438 277.890625 404.582031 C 276.453125 374.261719 276.125 365.152344 275.992188 288.324219 C 275.855469 211.527344 276.125 202.414062 277.453125 172.070312 C 278.648438 144.03125 283.339844 128.789062 287.246094 118.648438 C 292.453125 105.195312 298.660156 95.625 308.695312 85.507812 C 318.757812 75.421875 328.328125 69.183594 341.753906 63.921875 C 351.894531 59.964844 367.109375 55.246094 395.148438 53.914062 C 425.492188 52.480469 434.578125 52.179688 511.402344 52.019531 C 588.230469 51.855469 597.339844 52.125 627.6875 53.480469 C 655.726562 54.703125 670.96875 59.339844 681.109375 63.273438 C 694.558594 68.476562 704.160156 74.660156 714.246094 84.722656 C 724.335938 94.78125 730.601562 104.328125 735.832031 117.777344 C 739.792969 127.894531 744.511719 143.132812 745.839844 171.148438 C 747.277344 201.492188 747.601562 210.605469 747.738281 287.402344 C 747.875 364.230469 747.601562 373.339844 746.273438 403.660156 C 745.054688 431.699219 740.390625 446.964844 736.484375 457.109375 C 731.277344 470.53125 725.066406 480.132812 715.007812 490.21875 C 704.945312 500.28125 695.402344 506.546875 681.949219 511.804688 C 671.835938 515.765625 656.59375 520.484375 628.582031 521.8125 C 598.234375 523.25 589.152344 523.574219 512.296875 523.710938 C 435.5 523.847656 426.386719 523.574219 396.042969 522.246094 M 630.640625 134.078125 C 630.667969 153.140625 646.179688 168.570312 665.21875 168.515625 C 684.28125 168.488281 699.710938 153.003906 699.683594 133.941406 C 699.65625 114.878906 684.144531 99.449219 665.082031 99.472656 C 646.019531 99.5 630.589844 115.011719 630.613281 134.050781 M 364.125 288.164062 C 364.289062 369.761719 430.5625 435.765625 512.136719 435.605469 C 593.734375 435.441406 659.765625 369.191406 659.605469 287.59375 C 659.441406 206.023438 593.164062 139.988281 511.566406 140.125 C 429.996094 140.289062 363.960938 206.5625 364.125 288.164062 M 415.949219 288.054688 C 415.867188 235.09375 458.710938 192.054688 511.675781 191.972656 C 564.636719 191.867188 607.671875 234.710938 607.78125 287.703125 C 607.890625 340.664062 565.015625 383.699219 512.054688 383.78125 C 459.09375 383.890625 416.054688 341.015625 415.972656 288.054688 " fill-opacity="1" fill-rule="nonzero"/></g></svg>