<svg xmlns="http://www.w3.org/2000/svg" xmlns:xlink="http://www.w3.org/1999/xlink" width="1366" zoomAndPan="magnify" viewBox="0 0 1024.5 576" height="768" preserveAspectRatio="xMidYMid meet" version="1.0"><defs><g/><clipPath id="d2ecd14893"><path d="M 0 0.140625 L 1024 0.140625 L 1024 575.859375 L 0 575.859375 Z M 0 0.140625 " clip-rule="nonzero"/></clipPath><clipPath id="23a71e24a6"><rect x="0" width="1024" y="0" height="576"/></clipPath></defs><g clip-path="url(#d2ecd14893)"><g transform="matrix(1, 0, 0, 1, 0, -0.000000000000058398)"><g clip-path="url(#23a71e24a6)"><g fill="#010101" fill-opacity="1"><g transform="translate(0.628754, 534.183655)"><g><path d="M 38.53125 -434.15625 C 41.382812 -442.71875 46.238281 -447 53.09375 -447 C 59.375 -447 63.941406 -445.570312 66.796875 -442.71875 C 69.648438 -439.863281 72.503906 -433.296875 75.359375 -423.015625 C 77.066406 -417.304688 77.921875 -412.453125 77.921875 -408.453125 C 77.921875 -404.460938 76.492188 -397.613281 73.640625 -387.90625 C 69.648438 -375.914062 67.65625 -359.078125 67.65625 -337.390625 C 67.65625 -299.710938 73.644531 -256.328125 85.625 -207.234375 C 91.332031 -186.109375 94.1875 -165.554688 94.1875 -145.578125 C 94.1875 -125.597656 91.332031 -110.46875 85.625 -100.1875 C 77.0625 -85.34375 69.359375 -77.921875 62.515625 -77.921875 C 59.660156 -77.921875 57.375 -78.207031 55.65625 -78.78125 C 49.375 -79.925781 46.234375 -82.207031 46.234375 -85.625 C 46.234375 -89.050781 49.660156 -94.476562 56.515625 -101.90625 C 63.941406 -109.894531 67.65625 -120.453125 67.65625 -133.578125 C 67.65625 -144.429688 65.226562 -164.695312 60.375 -194.375 C 55.519531 -224.0625 50.523438 -248.613281 45.390625 -268.03125 C 39.679688 -293.144531 36.253906 -310.84375 35.109375 -321.125 C 31.109375 -342.8125 28.539062 -355.65625 27.40625 -359.65625 C 25.6875 -364.21875 24.828125 -368.210938 24.828125 -371.640625 C 24.828125 -375.640625 26.828125 -381.921875 30.828125 -390.484375 C 35.960938 -403.035156 37.675781 -411.3125 35.96875 -415.3125 C 34.820312 -419.875 35.675781 -426.15625 38.53125 -434.15625 Z M 120.734375 -461.546875 C 121.878906 -466.691406 123.878906 -469.265625 126.734375 -469.265625 C 129.585938 -469.265625 133.15625 -466.550781 137.4375 -461.125 C 141.71875 -455.695312 144.429688 -450.703125 145.578125 -446.140625 C 158.128906 -377.066406 176.679688 -307.988281 201.234375 -238.90625 C 201.804688 -236.625 202.660156 -235.484375 203.796875 -235.484375 C 207.222656 -235.484375 212.363281 -248.328125 219.21875 -274.015625 C 233.488281 -326.535156 250.328125 -366.210938 269.734375 -393.046875 C 274.867188 -400.460938 278.867188 -407.882812 281.734375 -415.3125 C 284.015625 -423.300781 288.296875 -427.296875 294.578125 -427.296875 C 298.566406 -427.296875 301.703125 -425.582031 303.984375 -422.15625 C 306.273438 -418.738281 309.988281 -410.75 315.125 -398.1875 C 343.09375 -334.25 357.9375 -247.757812 359.65625 -138.71875 L 359.65625 -114.75 C 359.65625 -97.050781 358.65625 -85.773438 356.65625 -80.921875 C 354.65625 -76.066406 350.515625 -73.640625 344.234375 -73.640625 C 340.242188 -73.640625 337.816406 -75.207031 336.953125 -78.34375 C 336.097656 -81.488281 335.101562 -91.910156 333.96875 -109.609375 C 332.25 -129.015625 331.390625 -151.847656 331.390625 -178.109375 C 331.390625 -210.648438 325.109375 -253.46875 312.546875 -306.5625 C 301.703125 -351.65625 293.140625 -374.203125 286.859375 -374.203125 C 285.148438 -374.203125 280.867188 -367.066406 274.015625 -352.796875 C 266.023438 -333.960938 259.460938 -319.117188 254.328125 -308.265625 C 246.898438 -292.285156 242.617188 -279.15625 241.484375 -268.875 C 240.335938 -257.457031 238.625 -249.753906 236.34375 -245.765625 C 231.207031 -236.628906 228.640625 -212.648438 228.640625 -173.828125 C 228.640625 -170.398438 228.78125 -165.972656 229.0625 -160.546875 C 229.34375 -155.128906 229.484375 -151.28125 229.484375 -149 C 229.484375 -145.570312 228.195312 -142.570312 225.625 -140 C 223.0625 -137.4375 220.351562 -136.15625 217.5 -136.15625 C 216.363281 -136.15625 214.648438 -136.722656 212.359375 -137.859375 C 208.367188 -140.148438 195.382812 -174.40625 173.40625 -240.625 C 151.425781 -306.84375 138.148438 -351.367188 133.578125 -374.203125 C 124.453125 -417.585938 119.890625 -444.132812 119.890625 -453.84375 C 119.890625 -457.84375 120.171875 -460.410156 120.734375 -461.546875 Z M 120.734375 -461.546875 "/></g></g></g><g fill="#010101" fill-opacity="1"><g transform="translate(379.905148, 534.183655)"><g><path d="M 153.28125 -272.3125 L 149 -272.3125 C 134.15625 -272.3125 119.3125 -269.023438 104.46875 -262.453125 C 89.625 -255.890625 81.0625 -248.898438 78.78125 -241.484375 C 77.632812 -235.773438 77.914062 -232.207031 79.625 -230.78125 C 81.34375 -229.351562 85.914062 -228.351562 93.34375 -227.78125 L 96.765625 -227.78125 C 111.035156 -227.78125 126.019531 -231.773438 141.71875 -239.765625 C 157.414062 -247.753906 165.265625 -255.460938 165.265625 -262.890625 C 165.265625 -269.171875 161.269531 -272.3125 153.28125 -272.3125 Z M 117.3125 -291.140625 C 134.4375 -296.285156 146.140625 -298.859375 152.421875 -298.859375 C 155.273438 -298.859375 160.128906 -297.710938 166.984375 -295.421875 C 183.535156 -289.710938 191.8125 -279.4375 191.8125 -264.59375 C 191.8125 -250.320312 179.539062 -235.195312 155 -219.21875 C 132.726562 -204.375 109.890625 -196.953125 86.484375 -196.953125 C 80.203125 -196.953125 74.78125 -197.804688 70.21875 -199.515625 C 62.789062 -202.367188 57.9375 -203.796875 55.65625 -203.796875 C 52.800781 -203.796875 51.375 -200.375 51.375 -193.53125 C 51.375 -182.675781 53.941406 -173.539062 59.078125 -166.125 C 67.648438 -154.707031 84.207031 -144.570312 108.75 -135.71875 C 133.300781 -126.875 156.421875 -122.453125 178.109375 -122.453125 C 190.671875 -122.453125 201.660156 -127.300781 211.078125 -137 C 220.492188 -146.707031 226.914062 -159.554688 230.34375 -175.546875 C 232.0625 -181.828125 235.203125 -184.96875 239.765625 -184.96875 C 243.765625 -184.96875 247.757812 -182.679688 251.75 -178.109375 C 256.320312 -173.546875 257.75 -167.550781 256.03125 -160.125 C 254.894531 -152.707031 248.1875 -142.429688 235.90625 -129.296875 C 223.632812 -116.171875 212.929688 -107.320312 203.796875 -102.75 C 195.804688 -99.332031 185.816406 -97.625 173.828125 -97.625 C 141.285156 -97.625 107.320312 -106.753906 71.9375 -125.015625 C 39.96875 -139.859375 23.984375 -160.125 23.984375 -185.8125 C 23.984375 -190.957031 24.835938 -196.097656 26.546875 -201.234375 C 33.398438 -225.210938 43.960938 -244.625 58.234375 -259.46875 C 70.222656 -273.164062 89.914062 -283.722656 117.3125 -291.140625 Z M 117.3125 -291.140625 "/></g></g></g><g fill="#010101" fill-opacity="1"><g transform="translate(632.470694, 534.183655)"><g><path d="M 97.625 -274.875 C 103.332031 -277.726562 109.039062 -279.15625 114.75 -279.15625 C 134.15625 -279.15625 148.140625 -272.304688 156.703125 -258.609375 C 160.703125 -252.898438 162.703125 -225.78125 162.703125 -177.25 C 162.703125 -132.15625 161.5625 -107.320312 159.28125 -102.75 C 157.5625 -99.894531 154.414062 -98.894531 149.84375 -99.75 C 145.28125 -100.613281 142.429688 -102.757812 141.296875 -106.1875 C 140.148438 -108.46875 139.003906 -132.441406 137.859375 -178.109375 C 136.722656 -220.929688 134.726562 -244.335938 131.875 -248.328125 C 129.59375 -251.753906 125.597656 -253.46875 119.890625 -253.46875 C 114.179688 -253.46875 108.753906 -251.613281 103.609375 -247.90625 C 98.472656 -244.195312 95.90625 -239.769531 95.90625 -234.625 C 95.90625 -230.0625 94.765625 -227.207031 92.484375 -226.0625 C 88.484375 -222.070312 79.347656 -196.382812 65.078125 -149 C 57.660156 -123.3125 49.097656 -110.46875 39.390625 -110.46875 C 29.117188 -110.46875 23.984375 -115.316406 23.984375 -125.015625 C 23.984375 -130.722656 24.550781 -135.289062 25.6875 -138.71875 C 27.96875 -147.28125 29.109375 -165.265625 29.109375 -192.671875 L 29.109375 -205.515625 C 29.109375 -231.203125 32.25 -246.046875 38.53125 -250.046875 C 47.664062 -256.328125 52.234375 -252.898438 52.234375 -239.765625 C 52.234375 -229.492188 53.085938 -221.785156 54.796875 -216.640625 L 57.375 -207.234375 L 63.359375 -216.640625 C 69.640625 -229.773438 73.640625 -238.34375 75.359375 -242.34375 C 82.203125 -259.46875 89.625 -270.3125 97.625 -274.875 Z M 97.625 -274.875 "/></g></g></g><g fill="#010101" fill-opacity="1"><g transform="translate(813.119273, 534.183655)"><g><path d="M 29.96875 -244.046875 C 35.101562 -250.328125 39.671875 -253.46875 43.671875 -253.46875 C 46.523438 -253.46875 49.378906 -251.1875 52.234375 -246.625 C 54.515625 -242.050781 55.65625 -237.484375 55.65625 -232.921875 C 55.65625 -227.773438 53.941406 -223.492188 50.515625 -220.078125 C 46.523438 -216.078125 45.671875 -210.367188 47.953125 -202.953125 C 49.660156 -196.097656 51.660156 -181.820312 53.953125 -160.125 C 55.660156 -140.144531 58.796875 -127.875 63.359375 -123.3125 C 65.078125 -121.59375 66.789062 -120.734375 68.5 -120.734375 C 71.351562 -120.734375 78.773438 -125.875 90.765625 -136.15625 C 113.597656 -156.707031 126.160156 -180.398438 128.453125 -207.234375 C 130.160156 -228.347656 134.722656 -238.90625 142.140625 -238.90625 C 145.566406 -238.90625 149.28125 -236.90625 153.28125 -232.90625 C 157.28125 -228.914062 158.421875 -220.640625 156.703125 -208.078125 C 156.703125 -206.941406 156.554688 -204.660156 156.265625 -201.234375 C 155.984375 -197.804688 155.84375 -195.238281 155.84375 -193.53125 C 155.84375 -182.675781 156.703125 -172.96875 158.421875 -164.40625 C 160.128906 -148.425781 165.550781 -135.296875 174.6875 -125.015625 C 183.25 -115.890625 187.53125 -109.898438 187.53125 -107.046875 C 187.53125 -105.328125 186.101562 -103.039062 183.25 -100.1875 C 180.96875 -97.90625 177.828125 -96.765625 173.828125 -96.765625 C 167.546875 -96.765625 160.976562 -100.1875 154.125 -107.03125 C 147.28125 -113.882812 142.71875 -122.164062 140.4375 -131.875 C 137.007812 -142.71875 134.722656 -148.425781 133.578125 -149 C 133.015625 -149.570312 131.160156 -148.144531 128.015625 -144.71875 C 124.878906 -141.289062 121.597656 -137.007812 118.171875 -131.875 C 111.890625 -122.164062 102.894531 -113.171875 91.1875 -104.890625 C 79.488281 -96.617188 70.210938 -92.484375 63.359375 -92.484375 C 57.648438 -92.484375 51.800781 -96.050781 45.8125 -103.1875 C 39.820312 -110.320312 35.398438 -119.3125 32.546875 -130.15625 C 27.972656 -147.28125 25.398438 -167.832031 24.828125 -191.8125 C 23.691406 -212.363281 23.125 -223.210938 23.125 -224.359375 C 23.125 -232.921875 25.40625 -239.484375 29.96875 -244.046875 Z M 29.96875 -244.046875 "/></g></g></g></g></g></g></svg>