<svg xmlns="http://www.w3.org/2000/svg" xmlns:xlink="http://www.w3.org/1999/xlink" width="1366" zoomAndPan="magnify" viewBox="0 0 1024.5 576" height="768" preserveAspectRatio="xMidYMid meet" version="1.0"><defs><g/><clipPath id="105ea3f460"><rect x="0" width="579" y="0" height="474"/></clipPath></defs><g transform="matrix(1, 0, 0, 1, 223, 51)"><g clip-path="url(#105ea3f460)"><g fill="#010101" fill-opacity="1"><g transform="translate(3.016005, 375.789043)"><g><path d="M 21.546875 -242.828125 C 23.148438 -247.609375 25.863281 -250 29.6875 -250 C 33.207031 -250 35.765625 -249.203125 37.359375 -247.609375 C 38.953125 -246.015625 40.546875 -242.34375 42.140625 -236.59375 C 43.097656 -233.40625 43.578125 -230.691406 43.578125 -228.453125 C 43.578125 -226.210938 42.78125 -222.378906 41.1875 -216.953125 C 38.957031 -210.253906 37.84375 -200.835938 37.84375 -188.703125 C 37.84375 -167.628906 41.191406 -143.363281 47.890625 -115.90625 C 51.085938 -104.09375 52.6875 -92.597656 52.6875 -81.421875 C 52.6875 -70.242188 51.085938 -61.78125 47.890625 -56.03125 C 43.097656 -47.726562 38.789062 -43.578125 34.96875 -43.578125 C 33.363281 -43.578125 32.082031 -43.738281 31.125 -44.0625 C 27.613281 -44.695312 25.859375 -45.972656 25.859375 -47.890625 C 25.859375 -49.804688 27.773438 -52.84375 31.609375 -57 C 35.765625 -61.46875 37.84375 -67.375 37.84375 -74.71875 C 37.84375 -80.78125 36.484375 -92.113281 33.765625 -108.71875 C 31.046875 -125.320312 28.253906 -139.050781 25.390625 -149.90625 C 22.191406 -163.957031 20.273438 -173.851562 19.640625 -179.59375 C 17.398438 -191.726562 15.960938 -198.914062 15.328125 -201.15625 C 14.367188 -203.707031 13.890625 -205.941406 13.890625 -207.859375 C 13.890625 -210.097656 15.003906 -213.609375 17.234375 -218.390625 C 20.109375 -225.421875 21.066406 -230.050781 20.109375 -232.28125 C 19.472656 -234.832031 19.953125 -238.347656 21.546875 -242.828125 Z M 67.53125 -258.140625 C 68.164062 -261.015625 69.28125 -262.453125 70.875 -262.453125 C 72.476562 -262.453125 74.476562 -260.9375 76.875 -257.90625 C 79.269531 -254.875 80.785156 -252.082031 81.421875 -249.53125 C 88.441406 -210.894531 98.816406 -172.257812 112.546875 -133.625 C 112.867188 -132.34375 113.347656 -131.703125 113.984375 -131.703125 C 115.898438 -131.703125 118.773438 -138.890625 122.609375 -153.265625 C 130.585938 -182.640625 140.003906 -204.828125 150.859375 -219.828125 C 153.734375 -223.984375 155.972656 -228.132812 157.578125 -232.28125 C 158.847656 -236.75 161.238281 -238.984375 164.75 -238.984375 C 166.988281 -238.984375 168.742188 -238.023438 170.015625 -236.109375 C 171.296875 -234.203125 173.375 -229.734375 176.25 -222.703125 C 191.894531 -186.941406 200.195312 -138.570312 201.15625 -77.59375 L 201.15625 -64.171875 C 201.15625 -54.273438 200.59375 -47.96875 199.46875 -45.25 C 198.351562 -42.539062 196.039062 -41.1875 192.53125 -41.1875 C 190.300781 -41.1875 188.945312 -42.0625 188.46875 -43.8125 C 187.988281 -45.570312 187.425781 -51.398438 186.78125 -61.296875 C 185.820312 -72.160156 185.34375 -84.9375 185.34375 -99.625 C 185.34375 -117.820312 181.832031 -141.765625 174.8125 -171.453125 C 168.75 -196.679688 163.957031 -209.296875 160.4375 -209.296875 C 159.476562 -209.296875 157.085938 -205.304688 153.265625 -197.328125 C 148.796875 -186.785156 145.125 -178.484375 142.25 -172.421875 C 138.09375 -163.472656 135.695312 -156.128906 135.0625 -150.390625 C 134.425781 -144.003906 133.46875 -139.691406 132.1875 -137.453125 C 129.3125 -132.347656 127.875 -118.9375 127.875 -97.21875 C 127.875 -95.300781 127.953125 -92.828125 128.109375 -89.796875 C 128.273438 -86.765625 128.359375 -84.609375 128.359375 -83.328125 C 128.359375 -81.421875 127.640625 -79.75 126.203125 -78.3125 C 124.765625 -76.875 123.25 -76.15625 121.65625 -76.15625 C 121.007812 -76.15625 120.050781 -76.472656 118.78125 -77.109375 C 116.539062 -78.390625 109.273438 -97.546875 96.984375 -134.578125 C 84.691406 -171.617188 77.269531 -196.523438 74.71875 -209.296875 C 69.601562 -233.554688 67.046875 -248.40625 67.046875 -253.84375 C 67.046875 -256.070312 67.207031 -257.503906 67.53125 -258.140625 Z M 67.53125 -258.140625 "/></g></g></g><g fill="#010101" fill-opacity="1"><g transform="translate(215.144995, 375.789043)"><g><path d="M 85.734375 -152.296875 L 83.328125 -152.296875 C 75.023438 -152.296875 66.722656 -150.457031 58.421875 -146.78125 C 50.128906 -143.113281 45.34375 -139.207031 44.0625 -135.0625 C 43.425781 -131.863281 43.585938 -129.863281 44.546875 -129.0625 C 45.503906 -128.269531 48.054688 -127.710938 52.203125 -127.390625 L 54.125 -127.390625 C 62.101562 -127.390625 70.484375 -129.625 79.265625 -134.09375 C 88.046875 -138.570312 92.4375 -142.882812 92.4375 -147.03125 C 92.4375 -150.539062 90.203125 -152.296875 85.734375 -152.296875 Z M 65.609375 -162.84375 C 75.191406 -165.71875 81.738281 -167.15625 85.25 -167.15625 C 86.84375 -167.15625 89.554688 -166.515625 93.390625 -165.234375 C 102.648438 -162.035156 107.28125 -156.285156 107.28125 -147.984375 C 107.28125 -140.003906 100.414062 -131.546875 86.6875 -122.609375 C 74.238281 -114.304688 61.46875 -110.15625 48.375 -110.15625 C 44.863281 -110.15625 41.828125 -110.632812 39.265625 -111.59375 C 35.117188 -113.1875 32.40625 -113.984375 31.125 -113.984375 C 29.53125 -113.984375 28.734375 -112.066406 28.734375 -108.234375 C 28.734375 -102.171875 30.171875 -97.0625 33.046875 -92.90625 C 37.835938 -86.519531 47.097656 -80.851562 60.828125 -75.90625 C 74.554688 -70.957031 87.488281 -68.484375 99.625 -68.484375 C 106.644531 -68.484375 112.785156 -71.195312 118.046875 -76.625 C 123.316406 -82.050781 126.910156 -89.238281 128.828125 -98.1875 C 129.785156 -101.695312 131.546875 -103.453125 134.109375 -103.453125 C 136.335938 -103.453125 138.570312 -102.175781 140.8125 -99.625 C 143.363281 -97.0625 144.160156 -93.707031 143.203125 -89.5625 C 142.566406 -85.40625 138.816406 -79.65625 131.953125 -72.3125 C 125.085938 -64.96875 119.097656 -60.019531 113.984375 -57.46875 C 109.515625 -55.550781 103.925781 -54.59375 97.21875 -54.59375 C 79.019531 -54.59375 60.023438 -59.703125 40.234375 -69.921875 C 22.347656 -78.222656 13.40625 -89.554688 13.40625 -103.921875 C 13.40625 -106.796875 13.882812 -109.671875 14.84375 -112.546875 C 18.675781 -125.960938 24.582031 -136.820312 32.5625 -145.125 C 39.269531 -152.78125 50.285156 -158.6875 65.609375 -162.84375 Z M 65.609375 -162.84375 "/></g></g></g><g fill="#010101" fill-opacity="1"><g transform="translate(356.404706, 375.789043)"><g><path d="M 54.59375 -153.734375 C 57.789062 -155.335938 60.984375 -156.140625 64.171875 -156.140625 C 75.035156 -156.140625 82.859375 -152.304688 87.640625 -144.640625 C 89.878906 -141.441406 91 -126.273438 91 -99.140625 C 91 -73.910156 90.359375 -60.019531 89.078125 -57.46875 C 88.117188 -55.875 86.363281 -55.316406 83.8125 -55.796875 C 81.257812 -56.273438 79.664062 -57.472656 79.03125 -59.390625 C 78.382812 -60.660156 77.742188 -74.070312 77.109375 -99.625 C 76.472656 -123.570312 75.351562 -136.660156 73.75 -138.890625 C 72.476562 -140.804688 70.242188 -141.765625 67.046875 -141.765625 C 63.859375 -141.765625 60.828125 -140.726562 57.953125 -138.65625 C 55.078125 -136.582031 53.640625 -134.109375 53.640625 -131.234375 C 53.640625 -128.671875 53 -127.070312 51.71875 -126.4375 C 49.488281 -124.207031 44.382812 -109.835938 36.40625 -83.328125 C 32.25 -68.960938 27.457031 -61.78125 22.03125 -61.78125 C 16.28125 -61.78125 13.40625 -64.492188 13.40625 -69.921875 C 13.40625 -73.117188 13.726562 -75.675781 14.375 -77.59375 C 15.644531 -82.375 16.28125 -92.429688 16.28125 -107.765625 L 16.28125 -114.9375 C 16.28125 -129.3125 18.035156 -137.613281 21.546875 -139.84375 C 26.660156 -143.363281 29.21875 -141.453125 29.21875 -134.109375 C 29.21875 -128.359375 29.695312 -124.046875 30.65625 -121.171875 L 32.09375 -115.90625 L 35.4375 -121.171875 C 38.945312 -128.515625 41.179688 -133.304688 42.140625 -135.546875 C 45.972656 -145.117188 50.125 -151.179688 54.59375 -153.734375 Z M 54.59375 -153.734375 "/></g></g></g><g fill="#010101" fill-opacity="1"><g transform="translate(457.441314, 375.789043)"><g><path d="M 16.765625 -136.5 C 19.640625 -140.007812 22.191406 -141.765625 24.421875 -141.765625 C 26.023438 -141.765625 27.625 -140.488281 29.21875 -137.9375 C 30.488281 -135.382812 31.125 -132.828125 31.125 -130.265625 C 31.125 -127.390625 30.164062 -125 28.25 -123.09375 C 26.019531 -120.851562 25.546875 -117.660156 26.828125 -113.515625 C 27.773438 -109.679688 28.890625 -101.695312 30.171875 -89.5625 C 31.128906 -78.382812 32.882812 -71.519531 35.4375 -68.96875 C 36.394531 -68.007812 37.351562 -67.53125 38.3125 -67.53125 C 39.90625 -67.53125 44.054688 -70.40625 50.765625 -76.15625 C 63.535156 -87.644531 70.5625 -100.894531 71.84375 -115.90625 C 72.800781 -127.71875 75.351562 -133.625 79.5 -133.625 C 81.414062 -133.625 83.488281 -132.503906 85.71875 -130.265625 C 87.957031 -128.035156 88.597656 -123.40625 87.640625 -116.375 C 87.640625 -115.738281 87.5625 -114.460938 87.40625 -112.546875 C 87.25 -110.628906 87.171875 -109.191406 87.171875 -108.234375 C 87.171875 -102.171875 87.648438 -96.742188 88.609375 -91.953125 C 89.566406 -83.015625 92.597656 -75.671875 97.703125 -69.921875 C 102.492188 -64.816406 104.890625 -61.460938 104.890625 -59.859375 C 104.890625 -58.910156 104.09375 -57.632812 102.5 -56.03125 C 101.21875 -54.757812 99.457031 -54.125 97.21875 -54.125 C 93.707031 -54.125 90.035156 -56.035156 86.203125 -59.859375 C 82.378906 -63.691406 79.828125 -68.320312 78.546875 -73.75 C 76.628906 -79.820312 75.351562 -83.015625 74.71875 -83.328125 C 74.394531 -83.648438 73.351562 -82.851562 71.59375 -80.9375 C 69.84375 -79.019531 68.007812 -76.625 66.09375 -73.75 C 62.582031 -68.320312 57.550781 -63.289062 51 -58.65625 C 44.457031 -54.03125 39.269531 -51.71875 35.4375 -51.71875 C 32.25 -51.71875 28.976562 -53.710938 25.625 -57.703125 C 22.269531 -61.703125 19.796875 -66.734375 18.203125 -72.796875 C 15.648438 -82.378906 14.210938 -93.875 13.890625 -107.28125 C 13.253906 -118.78125 12.9375 -124.847656 12.9375 -125.484375 C 12.9375 -130.273438 14.210938 -133.945312 16.765625 -136.5 Z M 16.765625 -136.5 "/></g></g></g></g></g></svg>