<svg xmlns="http://www.w3.org/2000/svg" xmlns:xlink="http://www.w3.org/1999/xlink" width="1366" zoomAndPan="magnify" viewBox="0 0 1024.5 576" height="768" preserveAspectRatio="xMidYMid meet" version="1.0"><defs><g/><clipPath id="fbfab776ae"><path d="M 2 0.140625 L 1008 0.140625 L 1008 575.859375 L 2 575.859375 Z M 2 0.140625 " clip-rule="nonzero"/></clipPath><clipPath id="7806138a9a"><rect x="0" width="1006" y="0" height="576"/></clipPath></defs><g clip-path="url(#fbfab776ae)"><g transform="matrix(1, 0, 0, 1, 2, -0.000000000000058398)"><g clip-path="url(#7806138a9a)"><g fill="#010101" fill-opacity="1"><g transform="translate(3.576365, 580.077325)"><g><path d="M 56.0625 -153.265625 C 57.25 -155.453125 58.238281 -156.546875 59.03125 -156.546875 C 60.625 -156.546875 62.164062 -156.046875 63.65625 -155.046875 C 65.144531 -154.054688 65.890625 -152.960938 65.890625 -151.765625 C 65.890625 -150.378906 64.796875 -144.367188 62.609375 -133.734375 C 60.429688 -123.097656 58.941406 -116.488281 58.140625 -113.90625 C 57.347656 -111.320312 57.347656 -109.628906 58.140625 -108.828125 L 58.734375 -108.828125 C 61.117188 -108.828125 66.289062 -109.820312 74.25 -111.8125 C 83.988281 -114.394531 90.546875 -115.6875 93.921875 -115.6875 C 96.109375 -115.6875 97.898438 -115.289062 99.296875 -114.5 C 100.878906 -113.5 101.671875 -112.203125 101.671875 -110.609375 C 101.671875 -109.023438 100.78125 -107.640625 99 -106.453125 C 96.8125 -105.253906 91.9375 -104.160156 84.375 -103.171875 C 78.019531 -102.171875 71.265625 -100.878906 64.109375 -99.296875 L 55.15625 -97.203125 L 52.1875 -79.3125 C 50.195312 -66.988281 48.503906 -60.429688 47.109375 -59.640625 C 44.523438 -57.648438 42.640625 -58.144531 41.453125 -61.125 C 41.046875 -61.914062 40.84375 -63.503906 40.84375 -65.890625 C 40.84375 -74.046875 41.738281 -81.503906 43.53125 -88.265625 C 43.925781 -89.847656 43.726562 -91.238281 42.9375 -92.4375 C 42.539062 -93.03125 41.644531 -93.328125 40.25 -93.328125 C 36.476562 -93.328125 30.019531 -91.535156 20.875 -87.953125 C 17.09375 -86.367188 14.007812 -85.578125 11.625 -85.578125 C 9.4375 -85.578125 8.34375 -86.671875 8.34375 -88.859375 C 8.34375 -90.640625 11.375 -92.972656 17.4375 -95.859375 C 23.5 -98.742188 29.910156 -100.984375 36.671875 -102.578125 C 37.671875 -102.773438 38.960938 -103.070312 40.546875 -103.46875 C 42.140625 -103.863281 43.179688 -104.109375 43.671875 -104.203125 C 44.171875 -104.304688 44.816406 -104.554688 45.609375 -104.953125 C 46.410156 -105.347656 46.859375 -105.695312 46.953125 -106 C 47.054688 -106.300781 47.304688 -106.894531 47.703125 -107.78125 C 48.097656 -108.675781 48.296875 -109.570312 48.296875 -110.46875 C 48.296875 -111.363281 48.398438 -112.707031 48.609375 -114.5 C 49.003906 -119.46875 50.09375 -126.625 51.875 -135.96875 C 53.664062 -145.3125 55.0625 -151.078125 56.0625 -153.265625 Z M 56.0625 -153.265625 "/></g></g></g><g fill="#010101" fill-opacity="1"><g transform="translate(112.976307, 580.077325)"><g><path d="M 18.484375 -107.34375 L 26.53125 -113.609375 L 41.453125 -113.609375 C 45.222656 -113.609375 47.65625 -113.40625 48.75 -113 C 49.84375 -112.601562 51.382812 -111.410156 53.375 -109.421875 C 55.363281 -107.441406 56.601562 -105.804688 57.09375 -104.515625 C 57.59375 -103.222656 57.84375 -100.6875 57.84375 -96.90625 C 57.84375 -92.132812 57.148438 -88.359375 55.765625 -85.578125 C 54.566406 -83.390625 53.96875 -81.695312 53.96875 -80.5 C 53.96875 -78.113281 56.253906 -74.9375 60.828125 -70.96875 C 65.398438 -67.1875 67.984375 -63.207031 68.578125 -59.03125 C 68.773438 -58.238281 68.875 -56.945312 68.875 -55.15625 C 68.875 -47.40625 67.285156 -42.140625 64.109375 -39.359375 C 62.316406 -37.566406 59.429688 -36.671875 55.453125 -36.671875 C 52.273438 -36.671875 48.695312 -35.773438 44.71875 -33.984375 C 42.738281 -32.992188 41.148438 -32.5 39.953125 -32.5 C 38.359375 -32.5 36.367188 -32.992188 33.984375 -33.984375 C 30.804688 -35.179688 28.023438 -36.671875 25.640625 -38.453125 C 23.253906 -40.242188 22.0625 -41.640625 22.0625 -42.640625 C 22.0625 -42.835938 22.160156 -43.035156 22.359375 -43.234375 C 22.753906 -43.628906 25.4375 -43.828125 30.40625 -43.828125 L 38.171875 -43.828125 C 49.898438 -43.828125 56.851562 -46.210938 59.03125 -50.984375 C 59.4375 -51.785156 59.640625 -52.976562 59.640625 -54.5625 C 59.640625 -60.332031 54.96875 -64.609375 45.625 -67.390625 C 43.039062 -68.179688 40.457031 -69.375 37.875 -70.96875 C 36.675781 -72.15625 36.078125 -72.847656 36.078125 -73.046875 C 36.078125 -73.648438 38.5625 -77.628906 43.53125 -84.984375 C 46.3125 -89.347656 47.703125 -92.925781 47.703125 -95.71875 C 47.703125 -98.300781 46.609375 -100.6875 44.421875 -102.875 C 42.234375 -105.0625 39.945312 -106.15625 37.5625 -106.15625 C 33.59375 -106.15625 29.71875 -103.96875 25.9375 -99.59375 C 23.945312 -97.207031 20.769531 -95.613281 16.40625 -94.8125 C 14.019531 -94.414062 12.625 -94.21875 12.21875 -94.21875 C 9.632812 -94.21875 8.34375 -94.914062 8.34375 -96.3125 C 8.34375 -98.5 11.722656 -102.175781 18.484375 -107.34375 Z M 18.484375 -107.34375 "/></g></g></g><g fill="#010101" fill-opacity="1"><g transform="translate(188.989914, 580.077325)"><g><path d="M 44.421875 -133.28125 C 51.179688 -136.664062 55.257812 -138.359375 56.65625 -138.359375 L 56.953125 -138.359375 C 57.546875 -137.953125 57.84375 -136.554688 57.84375 -134.171875 C 57.84375 -131.785156 57.046875 -130.296875 55.453125 -129.703125 C 53.671875 -129.304688 51.085938 -127.613281 47.703125 -124.625 C 44.328125 -121.644531 39.457031 -118.367188 33.09375 -114.796875 C 26.53125 -111.210938 22.753906 -108.332031 21.765625 -106.15625 C 19.972656 -102.96875 18.1875 -94.914062 16.40625 -82 L 15.796875 -76.625 L 24.453125 -81.109375 C 30.410156 -84.085938 35.476562 -85.578125 39.65625 -85.578125 C 43.632812 -85.578125 47.5625 -84.628906 51.4375 -82.734375 C 55.3125 -80.847656 58.144531 -78.515625 59.9375 -75.734375 C 62.519531 -71.960938 63.8125 -67.585938 63.8125 -62.609375 C 63.8125 -57.242188 62.117188 -52.078125 58.734375 -47.109375 C 55.953125 -43.335938 51.28125 -40.109375 44.71875 -37.421875 C 38.164062 -34.734375 31.804688 -33.390625 25.640625 -33.390625 C 23.253906 -33.390625 20.96875 -33.691406 18.78125 -34.296875 C 16.789062 -34.890625 15.796875 -36.578125 15.796875 -39.359375 C 15.796875 -41.347656 15.945312 -42.539062 16.25 -42.9375 C 16.550781 -43.332031 17.492188 -43.332031 19.078125 -42.9375 C 22.265625 -41.945312 25.050781 -41.453125 27.4375 -41.453125 C 29.414062 -41.453125 31.300781 -42.242188 33.09375 -43.828125 C 35.28125 -45.816406 38.859375 -47.90625 43.828125 -50.09375 C 48.992188 -52.476562 52.078125 -54.265625 53.078125 -55.453125 C 54.460938 -57.242188 55.15625 -60.03125 55.15625 -63.8125 C 55.15625 -66 54.859375 -67.585938 54.265625 -68.578125 C 52.472656 -71.160156 47.601562 -73.445312 39.65625 -75.4375 L 33.390625 -77.21875 L 22.953125 -69.765625 C 15.597656 -64.992188 11.523438 -62.609375 10.734375 -62.609375 C 9.140625 -62.609375 8.34375 -66.1875 8.34375 -73.34375 C 8.34375 -80.90625 9.140625 -89.207031 10.734375 -98.25 C 12.328125 -107.289062 14.113281 -112.507812 16.09375 -113.90625 C 16.695312 -114.300781 18.238281 -115.539062 20.71875 -117.625 C 23.207031 -119.71875 25.046875 -121.160156 26.234375 -121.953125 C 31.203125 -125.734375 37.265625 -129.507812 44.421875 -133.28125 Z M 44.421875 -133.28125 "/></g></g></g><g fill="#010101" fill-opacity="1"><g transform="translate(260.532079, 580.077325)"><g><path d="M 55.765625 -142.828125 C 58.546875 -143.222656 61.425781 -143.617188 64.40625 -144.015625 C 67.382812 -144.410156 69.71875 -144.757812 71.40625 -145.0625 C 73.101562 -145.363281 74.050781 -145.515625 74.25 -145.515625 L 74.546875 -145.515625 C 75.734375 -145.515625 76.875 -144.367188 77.96875 -142.078125 C 79.0625 -139.796875 79.609375 -137.5625 79.609375 -135.375 C 79.609375 -135.175781 79.554688 -134.875 79.453125 -134.46875 C 79.359375 -134.070312 79.3125 -133.773438 79.3125 -133.578125 C 79.113281 -132.785156 78.316406 -127.816406 76.921875 -118.671875 C 73.742188 -99.191406 68.773438 -82.59375 62.015625 -68.875 C 59.035156 -62.914062 56.953125 -57.945312 55.765625 -53.96875 C 54.960938 -50.988281 53.617188 -47.804688 51.734375 -44.421875 C 49.847656 -41.046875 48.304688 -39.359375 47.109375 -39.359375 C 45.921875 -39.359375 45.328125 -42.738281 45.328125 -49.5 C 45.328125 -56.851562 45.921875 -61.425781 47.109375 -63.21875 C 48.503906 -65.40625 49.398438 -67.09375 49.796875 -68.28125 C 52.378906 -77.226562 55.457031 -84.382812 59.03125 -89.75 C 61.414062 -93.53125 63.503906 -99.492188 65.296875 -107.640625 C 67.285156 -116.984375 68.28125 -122.25 68.28125 -123.4375 C 68.28125 -125.425781 67.484375 -127.21875 65.890625 -128.8125 C 64.109375 -130.601562 59.738281 -131.5 52.78125 -131.5 C 44.625 -131.5 35.773438 -130.304688 26.234375 -127.921875 C 18.679688 -126.128906 13.910156 -125.234375 11.921875 -125.234375 C 11.722656 -125.234375 11.523438 -125.234375 11.328125 -125.234375 L 10.734375 -125.53125 C 9.140625 -126.125 8.34375 -128.609375 8.34375 -132.984375 C 8.34375 -136.765625 9.039062 -138.953125 10.4375 -139.546875 C 12.820312 -140.140625 17.789062 -140.4375 25.34375 -140.4375 C 32.894531 -140.4375 43.035156 -141.234375 55.765625 -142.828125 Z M 55.765625 -142.828125 "/></g></g></g><g fill="#010101" fill-opacity="1"><g transform="translate(347.873141, 580.077325)"><g><path d="M 38.171875 -127.625 C 36.378906 -129.207031 33.894531 -130 30.71875 -130 C 27.726562 -130 25.640625 -129.304688 24.453125 -127.921875 C 20.078125 -123.148438 17.394531 -115.894531 16.40625 -106.15625 C 16.40625 -105.550781 16.351562 -104.851562 16.25 -104.0625 C 16.144531 -103.269531 16.09375 -102.671875 16.09375 -102.265625 C 16.09375 -98.890625 16.789062 -96.554688 18.1875 -95.265625 C 19.582031 -93.972656 21.867188 -93.328125 25.046875 -93.328125 C 27.234375 -93.328125 29.269531 -93.921875 31.15625 -95.109375 C 33.039062 -96.304688 36.671875 -99.289062 42.046875 -104.0625 C 50.191406 -111.21875 54.265625 -115.492188 54.265625 -116.890625 C 54.265625 -118.078125 52.875 -119.765625 50.09375 -121.953125 C 47.3125 -124.140625 45.222656 -125.234375 43.828125 -125.234375 C 42.035156 -125.234375 40.148438 -126.03125 38.171875 -127.625 Z M 22.953125 -138.953125 C 25.335938 -139.941406 27.722656 -140.4375 30.109375 -140.4375 C 36.078125 -140.4375 42.539062 -138.148438 49.5 -133.578125 C 53.675781 -130.796875 56.753906 -129.007812 58.734375 -128.21875 C 63.109375 -125.832031 69.070312 -109.234375 76.625 -78.421875 C 81.789062 -57.742188 84.375 -45.019531 84.375 -40.25 C 84.375 -38.0625 83.976562 -36.570312 83.1875 -35.78125 C 82.394531 -34.988281 81.003906 -34.59375 79.015625 -34.59375 C 77.617188 -34.59375 76.722656 -34.988281 76.328125 -35.78125 C 75.929688 -36.570312 75.535156 -38.5625 75.140625 -41.75 C 74.941406 -44.726562 74.394531 -47.109375 73.5 -48.890625 C 72.601562 -50.679688 72.15625 -53.070312 72.15625 -56.0625 C 72.15625 -58.84375 70.414062 -67.535156 66.9375 -82.140625 C 63.457031 -96.753906 61.222656 -104.554688 60.234375 -105.546875 L 59.9375 -105.546875 C 59.539062 -105.546875 56.957031 -103.5625 52.1875 -99.59375 C 47.8125 -95.8125 42.738281 -92.128906 36.96875 -88.546875 C 31.207031 -84.972656 26.9375 -82.890625 24.15625 -82.296875 C 23.15625 -82.097656 21.863281 -82 20.28125 -82 C 12.320312 -82 8.34375 -88.859375 8.34375 -102.578125 C 8.34375 -109.734375 9.039062 -115.394531 10.4375 -119.5625 C 11.820312 -123.34375 13.804688 -127.316406 16.390625 -131.484375 C 18.984375 -135.660156 21.171875 -138.148438 22.953125 -138.953125 Z M 22.953125 -138.953125 "/></g></g></g><g fill="#010101" fill-opacity="1"><g transform="translate(439.983704, 580.077325)"><g><path d="M 55.765625 -142.828125 C 58.546875 -143.222656 61.425781 -143.617188 64.40625 -144.015625 C 67.382812 -144.410156 69.71875 -144.757812 71.40625 -145.0625 C 73.101562 -145.363281 74.050781 -145.515625 74.25 -145.515625 L 74.546875 -145.515625 C 75.734375 -145.515625 76.875 -144.367188 77.96875 -142.078125 C 79.0625 -139.796875 79.609375 -137.5625 79.609375 -135.375 C 79.609375 -135.175781 79.554688 -134.875 79.453125 -134.46875 C 79.359375 -134.070312 79.3125 -133.773438 79.3125 -133.578125 C 79.113281 -132.785156 78.316406 -127.816406 76.921875 -118.671875 C 73.742188 -99.191406 68.773438 -82.59375 62.015625 -68.875 C 59.035156 -62.914062 56.953125 -57.945312 55.765625 -53.96875 C 54.960938 -50.988281 53.617188 -47.804688 51.734375 -44.421875 C 49.847656 -41.046875 48.304688 -39.359375 47.109375 -39.359375 C 45.921875 -39.359375 45.328125 -42.738281 45.328125 -49.5 C 45.328125 -56.851562 45.921875 -61.425781 47.109375 -63.21875 C 48.503906 -65.40625 49.398438 -67.09375 49.796875 -68.28125 C 52.378906 -77.226562 55.457031 -84.382812 59.03125 -89.75 C 61.414062 -93.53125 63.503906 -99.492188 65.296875 -107.640625 C 67.285156 -116.984375 68.28125 -122.25 68.28125 -123.4375 C 68.28125 -125.425781 67.484375 -127.21875 65.890625 -128.8125 C 64.109375 -130.601562 59.738281 -131.5 52.78125 -131.5 C 44.625 -131.5 35.773438 -130.304688 26.234375 -127.921875 C 18.679688 -126.128906 13.910156 -125.234375 11.921875 -125.234375 C 11.722656 -125.234375 11.523438 -125.234375 11.328125 -125.234375 L 10.734375 -125.53125 C 9.140625 -126.125 8.34375 -128.609375 8.34375 -132.984375 C 8.34375 -136.765625 9.039062 -138.953125 10.4375 -139.546875 C 12.820312 -140.140625 17.789062 -140.4375 25.34375 -140.4375 C 32.894531 -140.4375 43.035156 -141.234375 55.765625 -142.828125 Z M 55.765625 -142.828125 "/></g></g></g><g fill="#010101" fill-opacity="1"><g transform="translate(527.324766, 580.077325)"><g><path d="M 38.171875 -127.625 C 36.378906 -129.207031 33.894531 -130 30.71875 -130 C 27.726562 -130 25.640625 -129.304688 24.453125 -127.921875 C 20.078125 -123.148438 17.394531 -115.894531 16.40625 -106.15625 C 16.40625 -105.550781 16.351562 -104.851562 16.25 -104.0625 C 16.144531 -103.269531 16.09375 -102.671875 16.09375 -102.265625 C 16.09375 -98.890625 16.789062 -96.554688 18.1875 -95.265625 C 19.582031 -93.972656 21.867188 -93.328125 25.046875 -93.328125 C 27.234375 -93.328125 29.269531 -93.921875 31.15625 -95.109375 C 33.039062 -96.304688 36.671875 -99.289062 42.046875 -104.0625 C 50.191406 -111.21875 54.265625 -115.492188 54.265625 -116.890625 C 54.265625 -118.078125 52.875 -119.765625 50.09375 -121.953125 C 47.3125 -124.140625 45.222656 -125.234375 43.828125 -125.234375 C 42.035156 -125.234375 40.148438 -126.03125 38.171875 -127.625 Z M 22.953125 -138.953125 C 25.335938 -139.941406 27.722656 -140.4375 30.109375 -140.4375 C 36.078125 -140.4375 42.539062 -138.148438 49.5 -133.578125 C 53.675781 -130.796875 56.753906 -129.007812 58.734375 -128.21875 C 63.109375 -125.832031 69.070312 -109.234375 76.625 -78.421875 C 81.789062 -57.742188 84.375 -45.019531 84.375 -40.25 C 84.375 -38.0625 83.976562 -36.570312 83.1875 -35.78125 C 82.394531 -34.988281 81.003906 -34.59375 79.015625 -34.59375 C 77.617188 -34.59375 76.722656 -34.988281 76.328125 -35.78125 C 75.929688 -36.570312 75.535156 -38.5625 75.140625 -41.75 C 74.941406 -44.726562 74.394531 -47.109375 73.5 -48.890625 C 72.601562 -50.679688 72.15625 -53.070312 72.15625 -56.0625 C 72.15625 -58.84375 70.414062 -67.535156 66.9375 -82.140625 C 63.457031 -96.753906 61.222656 -104.554688 60.234375 -105.546875 L 59.9375 -105.546875 C 59.539062 -105.546875 56.957031 -103.5625 52.1875 -99.59375 C 47.8125 -95.8125 42.738281 -92.128906 36.96875 -88.546875 C 31.207031 -84.972656 26.9375 -82.890625 24.15625 -82.296875 C 23.15625 -82.097656 21.863281 -82 20.28125 -82 C 12.320312 -82 8.34375 -88.859375 8.34375 -102.578125 C 8.34375 -109.734375 9.039062 -115.394531 10.4375 -119.5625 C 11.820312 -123.34375 13.804688 -127.316406 16.390625 -131.484375 C 18.984375 -135.660156 21.171875 -138.148438 22.953125 -138.953125 Z M 22.953125 -138.953125 "/></g></g></g><g fill="#010101" fill-opacity="1"><g transform="translate(619.435329, 580.077325)"><g><path d="M 38.171875 -127.625 C 36.378906 -129.207031 33.894531 -130 30.71875 -130 C 27.726562 -130 25.640625 -129.304688 24.453125 -127.921875 C 20.078125 -123.148438 17.394531 -115.894531 16.40625 -106.15625 C 16.40625 -105.550781 16.351562 -104.851562 16.25 -104.0625 C 16.144531 -103.269531 16.09375 -102.671875 16.09375 -102.265625 C 16.09375 -98.890625 16.789062 -96.554688 18.1875 -95.265625 C 19.582031 -93.972656 21.867188 -93.328125 25.046875 -93.328125 C 27.234375 -93.328125 29.269531 -93.921875 31.15625 -95.109375 C 33.039062 -96.304688 36.671875 -99.289062 42.046875 -104.0625 C 50.191406 -111.21875 54.265625 -115.492188 54.265625 -116.890625 C 54.265625 -118.078125 52.875 -119.765625 50.09375 -121.953125 C 47.3125 -124.140625 45.222656 -125.234375 43.828125 -125.234375 C 42.035156 -125.234375 40.148438 -126.03125 38.171875 -127.625 Z M 22.953125 -138.953125 C 25.335938 -139.941406 27.722656 -140.4375 30.109375 -140.4375 C 36.078125 -140.4375 42.539062 -138.148438 49.5 -133.578125 C 53.675781 -130.796875 56.753906 -129.007812 58.734375 -128.21875 C 63.109375 -125.832031 69.070312 -109.234375 76.625 -78.421875 C 81.789062 -57.742188 84.375 -45.019531 84.375 -40.25 C 84.375 -38.0625 83.976562 -36.570312 83.1875 -35.78125 C 82.394531 -34.988281 81.003906 -34.59375 79.015625 -34.59375 C 77.617188 -34.59375 76.722656 -34.988281 76.328125 -35.78125 C 75.929688 -36.570312 75.535156 -38.5625 75.140625 -41.75 C 74.941406 -44.726562 74.394531 -47.109375 73.5 -48.890625 C 72.601562 -50.679688 72.15625 -53.070312 72.15625 -56.0625 C 72.15625 -58.84375 70.414062 -67.535156 66.9375 -82.140625 C 63.457031 -96.753906 61.222656 -104.554688 60.234375 -105.546875 L 59.9375 -105.546875 C 59.539062 -105.546875 56.957031 -103.5625 52.1875 -99.59375 C 47.8125 -95.8125 42.738281 -92.128906 36.96875 -88.546875 C 31.207031 -84.972656 26.9375 -82.890625 24.15625 -82.296875 C 23.15625 -82.097656 21.863281 -82 20.28125 -82 C 12.320312 -82 8.34375 -88.859375 8.34375 -102.578125 C 8.34375 -109.734375 9.039062 -115.394531 10.4375 -119.5625 C 11.820312 -123.34375 13.804688 -127.316406 16.390625 -131.484375 C 18.984375 -135.660156 21.171875 -138.148438 22.953125 -138.953125 Z M 22.953125 -138.953125 "/></g></g></g><g fill="#010101" fill-opacity="1"><g transform="translate(711.545893, 580.077325)"><g><path d="M 38.171875 -127.625 C 36.378906 -129.207031 33.894531 -130 30.71875 -130 C 27.726562 -130 25.640625 -129.304688 24.453125 -127.921875 C 20.078125 -123.148438 17.394531 -115.894531 16.40625 -106.15625 C 16.40625 -105.550781 16.351562 -104.851562 16.25 -104.0625 C 16.144531 -103.269531 16.09375 -102.671875 16.09375 -102.265625 C 16.09375 -98.890625 16.789062 -96.554688 18.1875 -95.265625 C 19.582031 -93.972656 21.867188 -93.328125 25.046875 -93.328125 C 27.234375 -93.328125 29.269531 -93.921875 31.15625 -95.109375 C 33.039062 -96.304688 36.671875 -99.289062 42.046875 -104.0625 C 50.191406 -111.21875 54.265625 -115.492188 54.265625 -116.890625 C 54.265625 -118.078125 52.875 -119.765625 50.09375 -121.953125 C 47.3125 -124.140625 45.222656 -125.234375 43.828125 -125.234375 C 42.035156 -125.234375 40.148438 -126.03125 38.171875 -127.625 Z M 22.953125 -138.953125 C 25.335938 -139.941406 27.722656 -140.4375 30.109375 -140.4375 C 36.078125 -140.4375 42.539062 -138.148438 49.5 -133.578125 C 53.675781 -130.796875 56.753906 -129.007812 58.734375 -128.21875 C 63.109375 -125.832031 69.070312 -109.234375 76.625 -78.421875 C 81.789062 -57.742188 84.375 -45.019531 84.375 -40.25 C 84.375 -38.0625 83.976562 -36.570312 83.1875 -35.78125 C 82.394531 -34.988281 81.003906 -34.59375 79.015625 -34.59375 C 77.617188 -34.59375 76.722656 -34.988281 76.328125 -35.78125 C 75.929688 -36.570312 75.535156 -38.5625 75.140625 -41.75 C 74.941406 -44.726562 74.394531 -47.109375 73.5 -48.890625 C 72.601562 -50.679688 72.15625 -53.070312 72.15625 -56.0625 C 72.15625 -58.84375 70.414062 -67.535156 66.9375 -82.140625 C 63.457031 -96.753906 61.222656 -104.554688 60.234375 -105.546875 L 59.9375 -105.546875 C 59.539062 -105.546875 56.957031 -103.5625 52.1875 -99.59375 C 47.8125 -95.8125 42.738281 -92.128906 36.96875 -88.546875 C 31.207031 -84.972656 26.9375 -82.890625 24.15625 -82.296875 C 23.15625 -82.097656 21.863281 -82 20.28125 -82 C 12.320312 -82 8.34375 -88.859375 8.34375 -102.578125 C 8.34375 -109.734375 9.039062 -115.394531 10.4375 -119.5625 C 11.820312 -123.34375 13.804688 -127.316406 16.390625 -131.484375 C 18.984375 -135.660156 21.171875 -138.148438 22.953125 -138.953125 Z M 22.953125 -138.953125 "/></g></g></g><g fill="#010101" fill-opacity="1"><g transform="translate(803.656456, 580.077325)"><g><path d="M 30.109375 -107.9375 C 35.679688 -110.71875 39.257812 -112.109375 40.84375 -112.109375 L 41.453125 -112.109375 C 43.835938 -112.109375 47.113281 -111.363281 51.28125 -109.875 C 55.457031 -108.382812 57.546875 -107.242188 57.546875 -106.453125 C 57.546875 -104.859375 55.851562 -103.316406 52.46875 -101.828125 C 49.09375 -100.335938 45.816406 -99.59375 42.640625 -99.59375 C 38.859375 -99.59375 34.78125 -98.445312 30.40625 -96.15625 C 26.039062 -93.875 23.0625 -91.34375 21.46875 -88.5625 C 17.488281 -82.195312 15.5 -72.554688 15.5 -59.640625 C 15.5 -55.066406 15.894531 -51.6875 16.6875 -49.5 C 17.488281 -47.3125 19.429688 -45.320312 22.515625 -43.53125 C 25.597656 -41.738281 28.332031 -40.84375 30.71875 -40.84375 C 32.101562 -40.84375 33.09375 -41.242188 33.6875 -42.046875 C 34.09375 -42.835938 35.882812 -43.429688 39.0625 -43.828125 C 42.4375 -44.421875 47.109375 -47.304688 53.078125 -52.484375 C 58.835938 -57.453125 62.957031 -62.367188 65.4375 -67.234375 C 67.925781 -72.109375 69.671875 -78.914062 70.671875 -87.65625 C 71.660156 -95.613281 72.851562 -99.59375 74.25 -99.59375 C 76.832031 -99.59375 78.125 -93.628906 78.125 -81.703125 C 78.125 -75.535156 76.53125 -69.375 73.34375 -63.21875 C 70.957031 -58.445312 69.117188 -55.363281 67.828125 -53.96875 C 66.535156 -52.570312 64.101562 -50.882812 60.53125 -48.90625 C 55.164062 -45.71875 51.488281 -43.03125 49.5 -40.84375 C 43.726562 -34.488281 35.476562 -31.3125 24.75 -31.3125 C 17.195312 -31.3125 12.425781 -33.296875 10.4375 -37.265625 C 9.4375 -39.054688 8.539062 -44.226562 7.75 -52.78125 C 7.550781 -54.5625 7.453125 -57.242188 7.453125 -60.828125 C 7.453125 -69.972656 8.546875 -78.222656 10.734375 -85.578125 C 12.921875 -92.929688 15.601562 -97.003906 18.78125 -97.796875 C 20.570312 -98.390625 21.664062 -99.582031 22.0625 -101.375 C 22.457031 -103.164062 25.140625 -105.351562 30.109375 -107.9375 Z M 30.109375 -107.9375 "/></g></g></g><g fill="#010101" fill-opacity="1"><g transform="translate(888.910917, 580.077325)"><g><path d="M 38.171875 -127.625 C 36.378906 -129.207031 33.894531 -130 30.71875 -130 C 27.726562 -130 25.640625 -129.304688 24.453125 -127.921875 C 20.078125 -123.148438 17.394531 -115.894531 16.40625 -106.15625 C 16.40625 -105.550781 16.351562 -104.851562 16.25 -104.0625 C 16.144531 -103.269531 16.09375 -102.671875 16.09375 -102.265625 C 16.09375 -98.890625 16.789062 -96.554688 18.1875 -95.265625 C 19.582031 -93.972656 21.867188 -93.328125 25.046875 -93.328125 C 27.234375 -93.328125 29.269531 -93.921875 31.15625 -95.109375 C 33.039062 -96.304688 36.671875 -99.289062 42.046875 -104.0625 C 50.191406 -111.21875 54.265625 -115.492188 54.265625 -116.890625 C 54.265625 -118.078125 52.875 -119.765625 50.09375 -121.953125 C 47.3125 -124.140625 45.222656 -125.234375 43.828125 -125.234375 C 42.035156 -125.234375 40.148438 -126.03125 38.171875 -127.625 Z M 22.953125 -138.953125 C 25.335938 -139.941406 27.722656 -140.4375 30.109375 -140.4375 C 36.078125 -140.4375 42.539062 -138.148438 49.5 -133.578125 C 53.675781 -130.796875 56.753906 -129.007812 58.734375 -128.21875 C 63.109375 -125.832031 69.070312 -109.234375 76.625 -78.421875 C 81.789062 -57.742188 84.375 -45.019531 84.375 -40.25 C 84.375 -38.0625 83.976562 -36.570312 83.1875 -35.78125 C 82.394531 -34.988281 81.003906 -34.59375 79.015625 -34.59375 C 77.617188 -34.59375 76.722656 -34.988281 76.328125 -35.78125 C 75.929688 -36.570312 75.535156 -38.5625 75.140625 -41.75 C 74.941406 -44.726562 74.394531 -47.109375 73.5 -48.890625 C 72.601562 -50.679688 72.15625 -53.070312 72.15625 -56.0625 C 72.15625 -58.84375 70.414062 -67.535156 66.9375 -82.140625 C 63.457031 -96.753906 61.222656 -104.554688 60.234375 -105.546875 L 59.9375 -105.546875 C 59.539062 -105.546875 56.957031 -103.5625 52.1875 -99.59375 C 47.8125 -95.8125 42.738281 -92.128906 36.96875 -88.546875 C 31.207031 -84.972656 26.9375 -82.890625 24.15625 -82.296875 C 23.15625 -82.097656 21.863281 -82 20.28125 -82 C 12.320312 -82 8.34375 -88.859375 8.34375 -102.578125 C 8.34375 -109.734375 9.039062 -115.394531 10.4375 -119.5625 C 11.820312 -123.34375 13.804688 -127.316406 16.390625 -131.484375 C 18.984375 -135.660156 21.171875 -138.148438 22.953125 -138.953125 Z M 22.953125 -138.953125 "/></g></g></g><g fill="#010101" fill-opacity="1"><g transform="translate(981.02148, 580.077325)"><g><path d="M 7.453125 -106.75 C 8.441406 -110.320312 10.53125 -110.617188 13.71875 -107.640625 C 14.707031 -106.648438 15.347656 -104.210938 15.640625 -100.328125 C 15.941406 -96.453125 16.09375 -86.566406 16.09375 -70.671875 C 16.09375 -48.203125 15.597656 -36.96875 14.609375 -36.96875 C 14.410156 -36.96875 14.210938 -37.066406 14.015625 -37.265625 C 11.429688 -39.453125 9.691406 -42.878906 8.796875 -47.546875 C 7.898438 -52.222656 7.351562 -61.617188 7.15625 -75.734375 L 7.15625 -88.5625 C 7.15625 -99.882812 7.253906 -105.945312 7.453125 -106.75 Z M 7.453125 -106.75 "/></g></g></g><g fill="#010101" fill-opacity="1"><g transform="translate(37.894196, 192.602066)"><g><path d="M 52.921875 -149.84375 C 53.910156 -150.832031 55 -151.328125 56.1875 -151.328125 C 57.769531 -151.328125 59.65625 -150.632812 61.84375 -149.25 C 69.175781 -145.082031 72.84375 -134.578125 72.84375 -117.734375 C 72.84375 -117.140625 72.789062 -116.046875 72.6875 -114.453125 C 72.59375 -112.867188 72.546875 -111.679688 72.546875 -110.890625 C 72.148438 -99.398438 71.453125 -86.421875 70.453125 -71.953125 C 69.660156 -58.078125 69.265625 -51.039062 69.265625 -50.84375 C 69.265625 -47.664062 69.757812 -44.097656 70.75 -40.140625 C 71.550781 -37.753906 71.953125 -35.472656 71.953125 -33.296875 C 71.953125 -29.929688 70.460938 -28.25 67.484375 -28.25 C 64.316406 -28.25 62.4375 -29.335938 61.84375 -31.515625 C 61.25 -33.691406 60.75 -40.332031 60.34375 -51.4375 L 60.34375 -58.265625 C 60.34375 -69.765625 60.941406 -81.5625 62.140625 -93.65625 C 63.128906 -102.769531 63.625 -110 63.625 -115.34375 C 63.625 -119.3125 63.425781 -122.285156 63.03125 -124.265625 C 62.238281 -128.429688 61.492188 -131.253906 60.796875 -132.734375 C 60.097656 -134.222656 58.660156 -135.859375 56.484375 -137.640625 C 52.921875 -140.222656 51.140625 -143 51.140625 -145.96875 C 51.140625 -147.351562 51.734375 -148.644531 52.921875 -149.84375 Z M 83.84375 -176.890625 C 93.351562 -177.679688 98.601562 -178.078125 99.59375 -178.078125 C 104.75 -178.078125 107.328125 -176.890625 107.328125 -174.515625 C 107.328125 -172.335938 106.679688 -170.847656 105.390625 -170.046875 C 104.097656 -169.253906 101.570312 -168.757812 97.8125 -168.5625 C 94.238281 -168.363281 91.757812 -167.867188 90.375 -167.078125 C 88.988281 -166.285156 86.210938 -163.804688 82.046875 -159.640625 L 73.734375 -151.03125 L 73.140625 -155.1875 C 72.941406 -157.164062 73.535156 -159.546875 74.921875 -162.328125 C 76.109375 -164.109375 76.703125 -165.394531 76.703125 -166.1875 C 76.703125 -166.582031 75.8125 -166.78125 74.03125 -166.78125 C 69.863281 -166.78125 65.703125 -166.085938 61.546875 -164.703125 C 59.554688 -163.710938 57.570312 -163.21875 55.59375 -163.21875 C 54.007812 -163.21875 52.722656 -163.414062 51.734375 -163.8125 C 50.347656 -164.40625 48.265625 -164.703125 45.484375 -164.703125 C 44.296875 -164.703125 42.515625 -164.503906 40.140625 -164.109375 C 36.367188 -163.515625 30.914062 -163.019531 23.78125 -162.625 C 19.820312 -162.226562 17.644531 -162.03125 17.25 -162.03125 C 15.257812 -162.03125 13.570312 -163.117188 12.1875 -165.296875 C 10.40625 -167.472656 9.316406 -169.753906 8.921875 -172.140625 C 8.722656 -172.535156 8.625 -173.128906 8.625 -173.921875 C 8.625 -175.703125 9.613281 -176.59375 11.59375 -176.59375 C 12.976562 -176.59375 14.363281 -176.195312 15.75 -175.40625 C 17.9375 -174.21875 20.710938 -173.921875 24.078125 -174.515625 C 27.648438 -175.304688 36.96875 -175.703125 52.03125 -175.703125 C 66.894531 -175.703125 77.5 -176.097656 83.84375 -176.890625 Z M 83.84375 -176.890625 "/></g></g></g><g fill="#010101" fill-opacity="1"><g transform="translate(155.321525, 192.602066)"><g><path d="M 53.21875 -94.546875 L 51.734375 -94.546875 C 46.578125 -94.546875 41.421875 -93.40625 36.265625 -91.125 C 31.117188 -88.84375 28.144531 -86.414062 27.34375 -83.84375 C 26.945312 -81.851562 27.046875 -80.609375 27.640625 -80.109375 C 28.242188 -79.617188 29.832031 -79.273438 32.40625 -79.078125 L 33.59375 -79.078125 C 38.550781 -79.078125 43.753906 -80.460938 49.203125 -83.234375 C 54.648438 -86.015625 57.375 -88.691406 57.375 -91.265625 C 57.375 -93.453125 55.988281 -94.546875 53.21875 -94.546875 Z M 40.734375 -101.078125 C 46.679688 -102.859375 50.742188 -103.75 52.921875 -103.75 C 53.910156 -103.75 55.59375 -103.351562 57.96875 -102.5625 C 63.71875 -100.582031 66.59375 -97.015625 66.59375 -91.859375 C 66.59375 -86.910156 62.332031 -81.660156 53.8125 -76.109375 C 46.082031 -70.953125 38.15625 -68.375 30.03125 -68.375 C 27.84375 -68.375 25.957031 -68.671875 24.375 -69.265625 C 21.800781 -70.253906 20.117188 -70.75 19.328125 -70.75 C 18.335938 -70.75 17.84375 -69.5625 17.84375 -67.1875 C 17.84375 -63.425781 18.734375 -60.253906 20.515625 -57.671875 C 23.484375 -53.710938 29.226562 -50.195312 37.75 -47.125 C 46.28125 -44.050781 54.3125 -42.515625 61.84375 -42.515625 C 66.195312 -42.515625 70.007812 -44.195312 73.28125 -47.5625 C 76.550781 -50.9375 78.78125 -55.398438 79.96875 -60.953125 C 80.5625 -63.128906 81.65625 -64.21875 83.25 -64.21875 C 84.632812 -64.21875 86.019531 -63.425781 87.40625 -61.84375 C 88.988281 -60.25 89.484375 -58.164062 88.890625 -55.59375 C 88.492188 -53.019531 86.164062 -49.453125 81.90625 -44.890625 C 77.644531 -40.328125 73.925781 -37.253906 70.75 -35.671875 C 67.976562 -34.484375 64.507812 -33.890625 60.34375 -33.890625 C 49.050781 -33.890625 37.257812 -37.0625 24.96875 -43.40625 C 13.875 -48.5625 8.328125 -55.597656 8.328125 -64.515625 C 8.328125 -66.296875 8.625 -68.078125 9.21875 -69.859375 C 11.59375 -78.179688 15.257812 -84.921875 20.21875 -90.078125 C 24.375 -94.835938 31.210938 -98.503906 40.734375 -101.078125 Z M 40.734375 -101.078125 "/></g></g></g><g fill="#010101" fill-opacity="1"><g transform="translate(263.830671, 192.602066)"><g><path d="M 58.859375 -110.890625 C 64.609375 -117.628906 68.570312 -121 70.75 -121 C 73.132812 -121 74.523438 -120.304688 74.921875 -118.921875 C 75.117188 -118.722656 75.21875 -118.328125 75.21875 -117.734375 C 75.21875 -114.554688 70.363281 -108.210938 60.65625 -98.703125 C 52.914062 -90.972656 49.046875 -86.710938 49.046875 -85.921875 C 49.046875 -84.734375 53.113281 -80.078125 61.25 -71.953125 C 71.945312 -61.046875 80.863281 -51.082031 88 -42.0625 C 95.132812 -33.050781 98.703125 -27.15625 98.703125 -24.375 C 98.703125 -22.59375 98.109375 -21.703125 96.921875 -21.703125 C 94.140625 -21.703125 88.585938 -27.050781 80.265625 -37.75 C 76.503906 -42.707031 69.367188 -50.390625 58.859375 -60.796875 C 48.359375 -71.203125 42.515625 -76.40625 41.328125 -76.40625 C 40.140625 -76.40625 36.914062 -73.476562 31.65625 -67.625 C 26.40625 -61.78125 23.78125 -58.164062 23.78125 -56.78125 C 23.78125 -55.394531 22.59375 -53.460938 20.21875 -50.984375 C 17.84375 -48.503906 15.957031 -47.265625 14.5625 -47.265625 C 12.976562 -47.265625 12.1875 -48.160156 12.1875 -49.953125 C 12.1875 -55.691406 17.34375 -64.507812 27.65625 -76.40625 C 31.019531 -80.570312 32.703125 -83.25 32.703125 -84.4375 C 32.703125 -86.019531 30.375 -88.789062 25.71875 -92.75 C 21.0625 -96.71875 17.144531 -99.394531 13.96875 -100.78125 C 11.59375 -101.769531 10.109375 -102.5625 9.515625 -103.15625 C 8.921875 -103.75 8.625 -104.644531 8.625 -105.84375 C 8.625 -109.800781 10.007812 -111.78125 12.78125 -111.78125 C 16.351562 -111.78125 22.203125 -108.210938 30.328125 -101.078125 C 33.890625 -97.710938 36.765625 -95.632812 38.953125 -94.84375 C 39.148438 -94.84375 39.347656 -94.789062 39.546875 -94.6875 C 39.742188 -94.59375 39.941406 -94.546875 40.140625 -94.546875 C 43.503906 -94.546875 49.742188 -99.992188 58.859375 -110.890625 Z M 58.859375 -110.890625 "/></g></g></g><g fill="#010101" fill-opacity="1"><g transform="translate(368.178114, 192.602066)"><g><path d="M 21.703125 -125.15625 C 22.492188 -127.738281 23.285156 -129.226562 24.078125 -129.625 C 24.867188 -130.019531 25.957031 -129.425781 27.34375 -127.84375 C 28.738281 -126.445312 29.335938 -123.671875 29.140625 -119.515625 L 29.140625 -116.84375 C 29.140625 -114.457031 29.679688 -112.867188 30.765625 -112.078125 C 31.859375 -111.285156 34.1875 -110.890625 37.75 -110.890625 C 40.925781 -110.890625 43.601562 -110.988281 45.78125 -111.1875 L 58.5625 -112.078125 L 58.5625 -103.453125 L 50.84375 -102.5625 C 44.894531 -102.164062 40.628906 -101.96875 38.046875 -101.96875 C 35.671875 -101.96875 33.691406 -101.375 32.109375 -100.1875 C 30.523438 -99 29.734375 -97.613281 29.734375 -96.03125 C 29.734375 -95.4375 29.832031 -94.941406 30.03125 -94.546875 C 30.425781 -93.742188 31.019531 -90.078125 31.8125 -83.546875 C 32.40625 -78.785156 35.378906 -66.59375 40.734375 -46.96875 C 42.117188 -42.21875 42.8125 -38.351562 42.8125 -35.375 C 42.8125 -32.40625 41.820312 -30.921875 39.84375 -30.921875 L 39.25 -30.921875 C 37.257812 -31.117188 35.078125 -35.28125 32.703125 -43.40625 C 26.359375 -62.632812 22.789062 -77.003906 22 -86.515625 C 21.601562 -94.640625 20.613281 -99.441406 19.03125 -100.921875 C 17.445312 -102.410156 12.6875 -103.15625 4.75 -103.15625 C -5.550781 -103.15625 -10.703125 -104.445312 -10.703125 -107.03125 L -10.703125 -107.625 C -10.503906 -107.820312 -10.40625 -108.019531 -10.40625 -108.21875 C -9.613281 -110.789062 -3.960938 -112.078125 6.546875 -112.078125 C 12.285156 -112.078125 16 -112.421875 17.6875 -113.109375 C 19.375 -113.804688 20.21875 -115.347656 20.21875 -117.734375 C 20.21875 -119.710938 20.710938 -122.1875 21.703125 -125.15625 Z M 21.703125 -125.15625 "/></g></g></g><g fill="#010101" fill-opacity="1"><g transform="translate(450.23023, 192.602066)"><g/></g></g><g fill="#010101" fill-opacity="1"><g transform="translate(524.553282, 192.602066)"><g><path d="M 76.703125 -145.671875 C 76.109375 -152.609375 75.414062 -156.078125 74.625 -156.078125 C 73.632812 -156.078125 72.742188 -152.804688 71.953125 -146.265625 C 70.554688 -134.773438 67.285156 -120.90625 62.140625 -104.65625 C 60.347656 -99.300781 59.953125 -96.328125 60.953125 -95.734375 C 61.742188 -95.140625 65.65625 -94.34375 72.6875 -93.34375 C 79.726562 -92.351562 84.632812 -91.859375 87.40625 -91.859375 L 88.59375 -92.15625 C 88.789062 -92.351562 88.394531 -94.234375 87.40625 -97.796875 C 86.414062 -101.367188 85.375 -104.988281 84.28125 -108.65625 C 83.195312 -112.320312 82.65625 -114.253906 82.65625 -114.453125 C 82.65625 -116.046875 81.757812 -120.007812 79.96875 -126.34375 C 78.382812 -133.082031 77.296875 -139.523438 76.703125 -145.671875 Z M 69.265625 -178.671875 C 69.066406 -179.460938 68.96875 -180.453125 68.96875 -181.640625 C 68.96875 -185.804688 70.359375 -187.890625 73.140625 -187.890625 C 74.722656 -187.890625 76.304688 -187.195312 77.890625 -185.8125 C 80.066406 -184.03125 81.453125 -180.660156 82.046875 -175.703125 C 82.453125 -172.535156 83.148438 -168.617188 84.140625 -163.953125 C 85.128906 -159.296875 85.921875 -154.492188 86.515625 -149.546875 C 87.898438 -136.265625 91.269531 -119.613281 96.625 -99.59375 L 99.296875 -89.1875 L 105.84375 -89.1875 C 110.988281 -89.1875 114.65625 -89.582031 116.84375 -90.375 C 117.832031 -90.769531 118.921875 -90.96875 120.109375 -90.96875 C 121.691406 -90.96875 122.878906 -89.382812 123.671875 -86.21875 C 124.066406 -84.632812 124.066406 -83.59375 123.671875 -83.09375 C 123.273438 -82.59375 122.085938 -81.847656 120.109375 -80.859375 C 116.535156 -79.671875 112.867188 -79.078125 109.109375 -79.078125 C 104.941406 -79.078125 102.859375 -78.679688 102.859375 -77.890625 C 102.859375 -77.492188 103.457031 -75.515625 104.65625 -71.953125 C 106.039062 -67.785156 107.472656 -61.882812 108.953125 -54.25 C 110.441406 -46.625 111.1875 -41.125 111.1875 -37.75 L 111.1875 -36.265625 C 110.394531 -32.109375 108.910156 -30.03125 106.734375 -30.03125 C 105.742188 -30.03125 104.253906 -30.523438 102.265625 -31.515625 C 99.097656 -33.097656 97.910156 -34.679688 98.703125 -36.265625 C 99.097656 -37.859375 99.296875 -39.84375 99.296875 -42.21875 C 99.296875 -47.375 98.648438 -53.46875 97.359375 -60.5 C 96.078125 -67.53125 94.640625 -72.535156 93.046875 -75.515625 C 91.859375 -77.691406 90.175781 -79.273438 88 -80.265625 C 85.820312 -81.253906 81.460938 -82.148438 74.921875 -82.953125 C 66.597656 -83.941406 61.640625 -84.4375 60.046875 -84.4375 C 56.679688 -84.4375 54.601562 -83.441406 53.8125 -81.453125 L 46.96875 -67.78125 C 37.851562 -49.15625 28.046875 -37.164062 17.546875 -31.8125 C 14.960938 -30.425781 13.320312 -29.734375 12.625 -29.734375 C 11.9375 -29.734375 11.195312 -30.328125 10.40625 -31.515625 C 9.21875 -33.296875 8.625 -34.878906 8.625 -36.265625 C 8.625 -39.046875 11.195312 -42.316406 16.34375 -46.078125 C 25.664062 -52.816406 33.695312 -62.828125 40.4375 -76.109375 L 45.484375 -86.515625 L 42.21875 -87.109375 C 38.84375 -87.703125 35.867188 -89.140625 33.296875 -91.421875 C 30.722656 -93.703125 29.4375 -96.03125 29.4375 -98.40625 C 29.4375 -101.570312 31.21875 -103.15625 34.78125 -103.15625 C 37.363281 -103.15625 40.238281 -102.265625 43.40625 -100.484375 C 46.570312 -99.097656 48.453125 -98.40625 49.046875 -98.40625 C 51.035156 -98.40625 52.328125 -100.285156 52.921875 -104.046875 C 53.316406 -105.640625 54.304688 -108.910156 55.890625 -113.859375 C 57.472656 -118.816406 58.460938 -123.078125 58.859375 -126.640625 C 59.648438 -133.179688 60.941406 -139.03125 62.734375 -144.1875 C 64.316406 -148.75 65.15625 -152.265625 65.25 -154.734375 C 65.351562 -157.210938 66 -160.535156 67.1875 -164.703125 C 68.769531 -170.054688 69.5625 -174.019531 69.5625 -176.59375 C 69.5625 -176.988281 69.507812 -177.382812 69.40625 -177.78125 C 69.3125 -178.175781 69.265625 -178.472656 69.265625 -178.671875 Z M 69.265625 -178.671875 "/></g></g></g><g fill="#010101" fill-opacity="1"><g transform="translate(677.058479, 192.602066)"><g><path d="M 77.890625 -163.8125 C 77.890625 -164.207031 78.132812 -165.59375 78.625 -167.96875 C 79.125 -170.351562 79.570312 -172.632812 79.96875 -174.8125 C 80.363281 -176.988281 80.804688 -179.265625 81.296875 -181.640625 C 81.796875 -184.023438 82.394531 -185.910156 83.09375 -187.296875 C 83.789062 -188.679688 84.4375 -189.375 85.03125 -189.375 C 86.414062 -189.375 87.703125 -188.582031 88.890625 -187 C 90.078125 -185.414062 90.671875 -183.53125 90.671875 -181.34375 C 90.671875 -178.769531 90.078125 -173.863281 88.890625 -166.625 C 87.703125 -159.394531 86.8125 -155.382812 86.21875 -154.59375 C 85.625 -153.601562 84.929688 -151.320312 84.140625 -147.75 C 83.941406 -145.96875 82.75 -140.71875 80.5625 -132 C 75.8125 -113.164062 72.34375 -95.328125 70.15625 -78.484375 C 69.757812 -74.722656 69.066406 -70.910156 68.078125 -67.046875 C 67.085938 -63.179688 66.59375 -59.859375 66.59375 -57.078125 C 66.59375 -54.898438 66.890625 -51.726562 67.484375 -47.5625 C 67.878906 -42.8125 68.078125 -39.941406 68.078125 -38.953125 C 68.078125 -34.785156 66.890625 -32.703125 64.515625 -32.703125 L 63.328125 -32.703125 C 61.742188 -32.898438 60.351562 -35.578125 59.15625 -40.734375 C 58.363281 -45.878906 57.96875 -50.238281 57.96875 -53.8125 C 57.96875 -61.144531 58.863281 -70.554688 60.65625 -82.046875 L 63.03125 -96.625 L 59.15625 -99.890625 C 48.851562 -108.804688 42.21875 -115.644531 39.25 -120.40625 C 30.71875 -133.289062 23.285156 -139.734375 16.953125 -139.734375 C 13.773438 -139.734375 11.59375 -140.175781 10.40625 -141.0625 C 9.21875 -141.957031 8.625 -143.59375 8.625 -145.96875 C 8.625 -148.351562 8.921875 -149.84375 9.515625 -150.4375 C 10.109375 -151.03125 11.492188 -151.328125 13.671875 -151.328125 C 18.234375 -151.328125 23.285156 -149.097656 28.828125 -144.640625 C 34.378906 -140.179688 39.132812 -135.320312 43.09375 -130.0625 C 47.0625 -124.8125 50.976562 -119.957031 54.84375 -115.5 C 58.71875 -111.039062 61.546875 -108.8125 63.328125 -108.8125 C 64.117188 -108.8125 64.8125 -109.304688 65.40625 -110.296875 C 66 -111.484375 68.03125 -119.359375 71.5 -133.921875 C 74.96875 -148.492188 77.097656 -158.457031 77.890625 -163.8125 Z M 77.890625 -163.8125 "/></g></g></g><g fill="#010101" fill-opacity="1"><g transform="translate(796.269445, 192.602066)"><g><path d="M 76.703125 -145.671875 C 76.109375 -152.609375 75.414062 -156.078125 74.625 -156.078125 C 73.632812 -156.078125 72.742188 -152.804688 71.953125 -146.265625 C 70.554688 -134.773438 67.285156 -120.90625 62.140625 -104.65625 C 60.347656 -99.300781 59.953125 -96.328125 60.953125 -95.734375 C 61.742188 -95.140625 65.65625 -94.34375 72.6875 -93.34375 C 79.726562 -92.351562 84.632812 -91.859375 87.40625 -91.859375 L 88.59375 -92.15625 C 88.789062 -92.351562 88.394531 -94.234375 87.40625 -97.796875 C 86.414062 -101.367188 85.375 -104.988281 84.28125 -108.65625 C 83.195312 -112.320312 82.65625 -114.253906 82.65625 -114.453125 C 82.65625 -116.046875 81.757812 -120.007812 79.96875 -126.34375 C 78.382812 -133.082031 77.296875 -139.523438 76.703125 -145.671875 Z M 69.265625 -178.671875 C 69.066406 -179.460938 68.96875 -180.453125 68.96875 -181.640625 C 68.96875 -185.804688 70.359375 -187.890625 73.140625 -187.890625 C 74.722656 -187.890625 76.304688 -187.195312 77.890625 -185.8125 C 80.066406 -184.03125 81.453125 -180.660156 82.046875 -175.703125 C 82.453125 -172.535156 83.148438 -168.617188 84.140625 -163.953125 C 85.128906 -159.296875 85.921875 -154.492188 86.515625 -149.546875 C 87.898438 -136.265625 91.269531 -119.613281 96.625 -99.59375 L 99.296875 -89.1875 L 105.84375 -89.1875 C 110.988281 -89.1875 114.65625 -89.582031 116.84375 -90.375 C 117.832031 -90.769531 118.921875 -90.96875 120.109375 -90.96875 C 121.691406 -90.96875 122.878906 -89.382812 123.671875 -86.21875 C 124.066406 -84.632812 124.066406 -83.59375 123.671875 -83.09375 C 123.273438 -82.59375 122.085938 -81.847656 120.109375 -80.859375 C 116.535156 -79.671875 112.867188 -79.078125 109.109375 -79.078125 C 104.941406 -79.078125 102.859375 -78.679688 102.859375 -77.890625 C 102.859375 -77.492188 103.457031 -75.515625 104.65625 -71.953125 C 106.039062 -67.785156 107.472656 -61.882812 108.953125 -54.25 C 110.441406 -46.625 111.1875 -41.125 111.1875 -37.75 L 111.1875 -36.265625 C 110.394531 -32.109375 108.910156 -30.03125 106.734375 -30.03125 C 105.742188 -30.03125 104.253906 -30.523438 102.265625 -31.515625 C 99.097656 -33.097656 97.910156 -34.679688 98.703125 -36.265625 C 99.097656 -37.859375 99.296875 -39.84375 99.296875 -42.21875 C 99.296875 -47.375 98.648438 -53.46875 97.359375 -60.5 C 96.078125 -67.53125 94.640625 -72.535156 93.046875 -75.515625 C 91.859375 -77.691406 90.175781 -79.273438 88 -80.265625 C 85.820312 -81.253906 81.460938 -82.148438 74.921875 -82.953125 C 66.597656 -83.941406 61.640625 -84.4375 60.046875 -84.4375 C 56.679688 -84.4375 54.601562 -83.441406 53.8125 -81.453125 L 46.96875 -67.78125 C 37.851562 -49.15625 28.046875 -37.164062 17.546875 -31.8125 C 14.960938 -30.425781 13.320312 -29.734375 12.625 -29.734375 C 11.9375 -29.734375 11.195312 -30.328125 10.40625 -31.515625 C 9.21875 -33.296875 8.625 -34.878906 8.625 -36.265625 C 8.625 -39.046875 11.195312 -42.316406 16.34375 -46.078125 C 25.664062 -52.816406 33.695312 -62.828125 40.4375 -76.109375 L 45.484375 -86.515625 L 42.21875 -87.109375 C 38.84375 -87.703125 35.867188 -89.140625 33.296875 -91.421875 C 30.722656 -93.703125 29.4375 -96.03125 29.4375 -98.40625 C 29.4375 -101.570312 31.21875 -103.15625 34.78125 -103.15625 C 37.363281 -103.15625 40.238281 -102.265625 43.40625 -100.484375 C 46.570312 -99.097656 48.453125 -98.40625 49.046875 -98.40625 C 51.035156 -98.40625 52.328125 -100.285156 52.921875 -104.046875 C 53.316406 -105.640625 54.304688 -108.910156 55.890625 -113.859375 C 57.472656 -118.816406 58.460938 -123.078125 58.859375 -126.640625 C 59.648438 -133.179688 60.941406 -139.03125 62.734375 -144.1875 C 64.316406 -148.75 65.15625 -152.265625 65.25 -154.734375 C 65.351562 -157.210938 66 -160.535156 67.1875 -164.703125 C 68.769531 -170.054688 69.5625 -174.019531 69.5625 -176.59375 C 69.5625 -176.988281 69.507812 -177.382812 69.40625 -177.78125 C 69.3125 -178.175781 69.265625 -178.472656 69.265625 -178.671875 Z M 69.265625 -178.671875 "/></g></g></g></g></g></g></svg>