<?xml version="1.0" standalone="no"?>
<!DOCTYPE svg PUBLIC "-//W3C//DTD SVG 20010904//EN"
 "http://www.w3.org/TR/2001/REC-SVG-20010904/DTD/svg10.dtd">
<svg version="1.0" xmlns="http://www.w3.org/2000/svg"
 width="134.000000pt" height="143.000000pt" viewBox="0 0 134.000000 143.000000"
 preserveAspectRatio="xMidYMid meet">

<g transform="translate(0.000000,143.000000) scale(0.100000,-0.100000)"
fill="#000000" stroke="none">
<path d="M555 1410 c3 -5 1 -38 -5 -72 -15 -82 -6 -137 33 -195 l32 -48 -120
-1 c-130 -1 -205 -21 -271 -70 -39 -29 -88 -116 -142 -251 -55 -136 -74 -220
-73 -325 2 -249 92 -363 326 -413 117 -25 612 -31 698 -9 87 22 125 45 184
106 53 57 73 104 104 248 17 78 17 256 0 305 -30 86 -235 260 -338 288 -44 11
-58 27 -25 27 75 0 176 76 170 127 -4 35 -30 50 -60 36 -13 -7 -66 -14 -118
-16 -62 -3 -107 -10 -131 -22 l-36 -17 -50 53 c-32 33 -70 92 -103 156 -30 59
-59 103 -67 103 -8 0 -11 -4 -8 -10z m71 -125 c19 -38 57 -96 84 -127 28 -31
50 -63 50 -71 0 -12 11 -10 53 10 38 19 78 28 147 34 52 4 107 11 123 15 24 6
27 4 27 -18 0 -60 -74 -103 -198 -115 l-62 -6 47 -32 c76 -51 100 -84 126
-167 l25 -78 -28 0 c-15 0 -42 10 -61 23 -27 18 -37 35 -50 83 -19 72 -35 99
-65 113 -19 8 -23 6 -28 -12 -12 -46 -5 -104 20 -157 25 -53 44 -150 30 -150
-20 0 -68 34 -92 66 -26 34 -28 41 -26 140 0 58 -3 106 -9 110 -5 3 -31 -6
-57 -19 -134 -72 -156 -80 -226 -85 -61 -4 -74 -1 -96 17 l-25 20 29 1 c19 0
43 13 72 40 24 22 52 40 62 40 19 0 118 31 157 49 11 5 26 11 33 13 8 2 -11
34 -52 85 -73 93 -81 118 -71 211 8 74 8 73 61 -33z m23 -228 c12 -17 12 -21
-5 -31 -19 -11 -26 -13 -129 -41 -40 -11 -72 -28 -95 -51 -27 -26 -44 -34 -72
-34 -32 0 -35 -3 -31 -21 9 -31 61 -59 113 -59 62 0 175 34 215 64 18 14 44
28 59 32 l26 6 -2 -88 c-1 -72 3 -97 19 -129 25 -47 73 -86 111 -88 27 -2 27
-1 24 56 -1 35 -11 75 -23 99 -24 47 -38 158 -21 158 16 0 48 -67 56 -116 8
-45 34 -76 79 -93 32 -13 97 -15 97 -3 0 4 -12 45 -25 92 -19 65 -33 93 -62
122 l-38 39 30 -11 c97 -34 277 -178 318 -255 19 -35 22 -55 22 -165 -1 -184
-36 -311 -110 -398 -40 -46 -104 -83 -175 -100 -70 -17 -557 -14 -655 4 -83
15 -191 54 -237 86 -67 46 -111 178 -111 333 -1 92 3 110 43 225 49 144 101
253 139 293 34 37 112 77 170 87 25 5 93 8 151 7 91 -1 107 -4 119 -20z"/>
</g>
</svg>
